<?xml version="1.0" encoding="utf-8"?>
<!-- Generator: Adobe Illustrator 23.1.0, SVG Export Plug-In . SVG Version: 6.00 Build 0)  -->
<svg version="1.1" xmlns="http://www.w3.org/2000/svg" xmlns:xlink="http://www.w3.org/1999/xlink" x="0px" y="0px"
	 viewBox="0 0 1920 1080" style="enable-background:new 0 0 1920 1080;" xml:space="preserve">
<style type="text/css">
	.st0{fill:#F4E8D8;}
	.st1{fill:#866694;}
	.st2{fill:#BB83C3;}
	.st3{fill:#B981C1;}
	.st4{opacity:0.5;fill:#866694;}
	.st5{fill:#48598B;}
	.st6{fill:#29ACE4;}
	.st7{fill:#1D2436;}
	.st8{fill:#C93F37;}
	.st9{fill:#F6874E;}
	.st10{fill:#CE6D3E;}
	.st11{fill:#102441;}
	.st12{fill:#3D4C6D;}
	.st13{fill:#FEED7F;}
	.st14{fill:#B9392E;}
	.st15{opacity:0.5;fill:#EC5E4D;}
	.st16{fill:none;stroke:#F6874E;stroke-miterlimit:10;}
	.st17{fill:#F7D04C;}
	.st18{fill:#EC5E4D;}
	.st19{fill:none;stroke:#903636;stroke-miterlimit:10;}
	.st20{opacity:0.48;fill:#EDC331;}
	.st21{fill:none;stroke:#F7D04C;stroke-miterlimit:10;}
	.st22{opacity:0.5;fill:#FCEA7D;}
	.st23{fill:#FFFFFF;}
	.st24{fill:#903636;}
	.st25{fill:#F5854D;}
	.st26{fill:none;stroke:#F5854D;stroke-miterlimit:10;}
	.st27{fill:none;stroke:#EC5E4D;stroke-miterlimit:10;}
	.st28{fill:#273150;}
	.st29{opacity:0.5;fill:#903636;}
	.st30{fill:none;stroke:#E7B748;stroke-miterlimit:10;}
</style>
<g id="bg">
	<path class="st0" d="M669.52,511.3c0,0-32.57-146.46-138.42-172.84c-78.67-19.61-78.67,46.85-78.67,46.85
		s-113.42-80.24-166.15,14.24s515.08,226,515.08,226L669.52,511.3z"/>
	<path class="st0" d="M1583.2,553.96c0,0,6.98-180.52-178.95-258.85c-138.88-58.51-203.78-48.5-303.1-50.22
		c-93.11-1.61-39.64-123.92,35.1-122.25c77.06,1.72,102.64,76.9,103.42,73.57c2.33-10.01,36.57-29.66,73.82-19.33
		c49.66,13.77,71.92,78.34,78.77,95.56c0,0,99.81,26.81,157.54,136.89C1600.38,505.74,1583.2,553.96,1583.2,553.96z"/>
	<path class="st0" d="M1553.23,811.68c0,0-0.86-8.99,17.12-10.27c17.98-1.28,26.26,4.57,26.26,4.57s4.57-18.27,28.97-5.42
		c24.4,12.84,16.7,33.39,16.7,33.39c41.1-0.86,101.89,55.65-37.67,111.31c0,0,73.61-59.09,24.83-107.03
		C1596.62,805.97,1553.23,811.68,1553.23,811.68z"/>
	<path class="st0" d="M917.66,889.31c0,0-203.53-30.32-234.26-67.26c-21.57-25.93-77.95-54.86-94.63-49.13
		c-6.42,0.97,38.47-17.46,4.25-35.33c-33.25-17.36-79.41-10.87-79.41-10.87s34.89-39.83-8.69-62.53
		c-41.94-21.86-83.43,19.13-81.44,53.22c1.74,29.83,105.08,92.84,221.25,134.2C761.66,893.23,917.66,889.31,917.66,889.31z"/>
	<g>
		<path class="st1" d="M1525.41,826.23c0,64.19-52.04,116.23-116.23,116.23s-116.23-52.04-116.23-116.23
			c0-33.47,11.49-64.94,33.82-86.48c11.99-11.56,51.69-29.64,82.41-29.75c56.72-0.21,77.27,30.18,85.46,37.45
			C1515.7,766.16,1525.41,795.84,1525.41,826.23z"/>
		<g>
			<path class="st2" d="M1458.59,760.98c0,0-14.43,16.45-0.86,32.96c6.77,8.24,14.57,8.26,21.27,5.58c3.8-1.52,7.02-5.02,7.27-8.58
				c0.35-4.84-4.75-6.86-4.75-6.86s3.38,10.91-6.87,11.98c-7.29,0.76-14.66-1.7-18.58-12.38
				C1452.57,774.13,1458.59,760.98,1458.59,760.98z"/>
			<path class="st2" d="M1392.06,841.03c0,0,14.99,11.12,14.02,27.07C1406.08,868.1,1416.23,843.45,1392.06,841.03z"/>
			<path class="st3" d="M1366.92,842c0,0-13.54,7.25-16.92,13.54c-3.38,6.28-4.83,18.85-2.9,27.56c1.93,8.7,12.72,9.69,15.62,10.17
				s28.38,1.43,31.28,1.43s15.47-9.67,15.47-9.67s-2.9,9.19-10.64,13.05s-34.81-0.48-37.23-0.48c-2.42,0-14.99-8.7-19.34-11.6
				c-4.35-2.9-0.48-23.21,1.45-29.97S1356.77,842,1366.92,842z"/>
			<g>
				<path class="st3" d="M1512.38,874.8c-2.42,0-15.51-6.46-19.86-9.36c-4.35-2.9-0.48-23.21,1.45-29.97s13.05-14.02,23.21-14.02
					c0,0-13.54,7.25-16.92,13.54c-3.38,6.28-6.6,23.6-5.02,27.55c1.41,3.52,10.15,8.18,12.13,9.1
					C1509.35,872.56,1512.38,874.8,1512.38,874.8z"/>
			</g>
			<path class="st2" d="M1343.43,743.85c0,0,10.7,4.71,12.84,9.85c2.14,5.14,7.26,20.36-0.88,24.64c-8.13,4.28-21.07,5.7-22.35,0.99
				c-1.28-4.71-0.75-8.51-0.75-8.51s-3,3.42-1.71,8.99c1.28,5.57,5.99,5.14,16.27,3.85c10.27-1.28,15.41-2.57,17.12-9.42
				c1.71-6.85-3-17.12-4.28-21.83C1358.41,747.7,1351.13,743,1343.43,743.85z"/>
			<path class="st2" d="M1364.29,727.71c-0.49,0-0.95,0.06-1.4,0.17c1.77,0.86,2.99,2.58,2.99,4.57c0,2.4-1.76,4.4-4.13,4.98
				c0.76,0.37,1.63,0.58,2.55,0.58c3.06,0,5.54-2.31,5.54-5.16C1369.83,730.02,1367.35,727.71,1364.29,727.71z"/>
			<path class="st2" d="M1408.2,916.13c-2.91,0-5.29-2.09-5.52-4.75c-0.27,0.61-0.42,1.27-0.42,1.96c0,2.85,2.48,5.16,5.54,5.16
				c3.06,0,5.54-2.31,5.54-5.16c0-0.14-0.01-0.27-0.02-0.41C1412.5,914.81,1410.52,916.13,1408.2,916.13z"/>
			<path class="st2" d="M1502.71,801.87c-0.99-2.75,0.19-5.7,2.64-6.8c-0.68-0.05-1.37,0.03-2.04,0.27
				c-2.68,0.97-4.01,4.08-2.97,6.96c1.04,2.88,4.05,4.42,6.73,3.46c0.12-0.04,0.22-0.11,0.33-0.16
				C1505.38,805.44,1503.49,804.03,1502.71,801.87z"/>
			<path class="st2" d="M1456.07,864.59c-8.77-2.22-14.11-12.7-14.26-21.04c-0.93,1.66-1.51,3.58-1.65,5.72
				c-0.57,8.76,6.44,17.75,15.65,20.08c9.22,2.33,17.15-2.88,17.73-11.64c0.03-0.43,0.02-0.85,0.02-1.28
				C1470.68,861.56,1463.04,866.35,1456.07,864.59z"/>
			<path class="st2" d="M1408.62,928.92c0.01,0.12,0.04,0.23,0.04,0.35c0,2.37-2.06,4.29-4.61,4.29c-1.71,0-3.18-0.87-3.98-2.16
				c0.2,2.2,2.15,3.94,4.57,3.94c2.55,0,4.61-1.92,4.61-4.29C1409.25,930.27,1409.01,929.55,1408.62,928.92z"/>
			<path class="st2" d="M1376.69,927.4c-6.44,0-11.65-4.86-11.65-10.85c0-3.27,1.56-6.19,4.01-8.18c-5.07,1.17-8.84,5.43-8.84,10.52
				c0,5.99,5.22,10.85,11.65,10.85c2.93,0,5.59-1.01,7.64-2.67C1378.6,927.27,1377.66,927.4,1376.69,927.4z"/>
			<path class="st2" d="M1396.02,736.61c-0.88,4.18-4.83,7.33-9.57,7.33c-4.97,0-9.06-3.46-9.67-7.92
				c-1.74,4.89,1.01,10.41,6.24,12.42c5.3,2.04,11.14-0.32,13.03-5.25C1396.88,741.01,1396.81,738.7,1396.02,736.61z"/>
			<path class="st2" d="M1473.6,887.21c4.32-2.29,9.08-1.95,11.24,1.03c2.26,3.12,0.89,8.04-3.02,11.47
				c5.37-2.23,9.3-7.71,8.8-12.36c-0.51-4.72-5.37-6.79-10.87-4.62C1477.33,883.67,1475.19,885.29,1473.6,887.21z"/>
			<path class="st2" d="M1434.72,725.98c2.95-1.32,6.65-0.3,8.76,2.61c2.21,3.05,1.91,7.09-0.56,9.46c3.77-1.11,5.94-5.25,4.84-9.35
				c-1.11-4.16-5.15-6.69-9.02-5.66C1437.04,723.49,1435.65,724.56,1434.72,725.98z"/>
		</g>
		<path class="st4" d="M1517.9,837.7c0,47.1-38.18,85.29-85.29,85.29s-79.39-16.97-79.39-64.07c0-24.56,19.1-71.88,35.49-87.69
			c8.8-8.48,36.61-18.09,59.15-18.09c24.8,0,46.88,18.33,52.89,23.66C1516.22,790.53,1517.9,815.4,1517.9,837.7z"/>
	</g>
	<g>
		<path class="st5" d="M1417.83,643.35c-1.17,14.3-6.19,75.87-7.07,87.33c-0.09,1.23,0.78,2.42,1.99,2.72l0,0
			c1.27,0.31,2.43-0.49,2.57-1.78l9.3-87.51c0.19-1.8-1.22-3.42-2.85-3.27l-1.8,0.16C1418.82,641.1,1417.93,642.08,1417.83,643.35z"
			/>
		<path class="st6" d="M1423.15,642.15c0,0,11.17-1.28,25.63-4.28c17.14-3.56,33.41-8.47,41.72-10.45
			c5.82-1.39-19.75,29.96-27.16,37.85l4.74,9.36l-47.62,6.25L1423.15,642.15z"/>
	</g>
	<path class="st0" d="M1196.67,913.75c0,0,101.73,19.39,131.33,12.34c29.59-7.05-7.95-36.33,26.78-48.07
		c17.29-5.85,23.21,21.58,23.21,21.58s27.97-8.05,29.56,24.93c0,0,49.42,9.08,48.42,25.3
		C1454.95,966.14,1352.46,1003.31,1196.67,913.75z"/>
	<path class="st0" d="M1197.91,887.88c0,0-30.88-23.78-11.99-36.82c24.83-17.12,48.8-18.84,76.2-30.82
		C1262.12,820.24,1088.26,851.59,1197.91,887.88z"/>
	<path class="st0" d="M1052.94,710.55c4.62,2.2,10.97-14.76-10.98-27.15c-12.05-6.81-30.46,2.7-30.46,2.7s31.68-21.71,9.79-29.63
		c-18.16-6.57-43.69-3.76-58.86,2.93c-2.54-6.91-5.95-13.04-10.4-14.98c-11.88-5.21-24.41,13.93-11.85,25.54
		c4.64,4.29,9.7,7.42,14.25,9.67c0.45,0.35,0.93,0.71,1.46,1.06c31.52,21.2,133.6,61.58,164.66,56.93
		C1051.6,713.12,1052.94,710.55,1052.94,710.55z"/>
	<path class="st0" d="M1548.8,349.1c0,0,130,123.24,50.09,287.32C1598.89,636.41,1700.96,461.26,1548.8,349.1z"/>
</g>
<g id="pilot_x5F_arm">
	<g>
		<path class="st7" d="M829.56,369.11l-32.54-30.25l-20.23-1.11C776.79,337.74,789.03,372.25,829.56,369.11z"/>
		<path class="st8" d="M786.89,305.46c0,0-10.42,8.85-10.1,32.28c0,0,5.2,5.16,8.82,4.54c6.68-1.15,11.86-1.03,11.42-3.42
			c-0.68-3.68,5.71-25.69,1.43-28.68C794.17,307.18,786.89,305.46,786.89,305.46z"/>
		<ellipse class="st0" cx="793.17" cy="310.31" rx="8.99" ry="7.14"/>
		<path class="st9" d="M787.7,309.74c0,0-1.93-6.55,2.7-11.18c4.62-4.62,13.87-10.41,19.27-12.72c5.4-2.31,6.55,6.55,0.77,10.02
			c-5.78,3.47-5.78,5.78-5.78,5.78s5.78,0.39,1.93,3.85s-5.4,8.09-11.18,8.09S787.7,309.74,787.7,309.74z"/>
		<path class="st10" d="M792.45,309.36c0,0,3.34-4.62,2.31-8.99c-1.03-4.37,10.02-7.71,10.02-7.71s-8.48,3.85-8.48,6.68
			S798.11,306.79,792.45,309.36z"/>
	</g>
</g>
<g id="pilot_head">
	<g>
		<path class="st11" d="M861.9,325.85c0,11.13-10.38,20.15-23.18,20.15s-21.57-10.98-21.57-22.1c0-11.13,8.76-18.2,21.57-18.2
			S861.9,314.72,861.9,325.85z"/>
		<g>
			<g>
				<path class="st10" d="M834.06,336.95c0,0,3.74,15.11,4.16,16.61c1.43,5.05,15.48,4.83,15.5,0c0.01-1.71-1.53-20.04-1.53-20.04
					L834.06,336.95z"/>
			</g>
			<g>
				<path class="st10" d="M840.21,303.54c0,0-19.5,0.29-21.65,2.05c-2.15,1.76-0.99,27.3,3.03,34.76
					c3.66,6.81,24.19,6.63,31.24,4.17c4.92-1.72,4.61-24.29,4.3-29.06C856.81,310.7,840.21,303.54,840.21,303.54z"/>
			</g>
			<path class="st9" d="M854.09,333.51c-0.94,4.72-9.39,12.97-18.91,12.03c-9.52-0.94-15.01-5.42-14.84-16.22
				c0.18-11.15,9.92-10.8,19.44-9.86C849.3,320.41,855.18,322.42,854.09,333.51z"/>
			<path class="st12" d="M855.42,308.79c0,0-2.58,10.2-1.72,13.44l2.27,4.96l3.03-14.69L855.42,308.79z"/>
		</g>
		<g>
			<g>
				<path class="st8" d="M845.31,291.97c-6.89-0.18-14.94,1.89-18.84,4.13c-9.1,5.23-13.69,14.87-12.84,27.05
					c1.17,16.86,2.36,18.64,9.63,21.58c3.28,1.33,10.79,2.85,10.53,1.61c0,0-10.96-2.9-12.29-7.36c-1.39-4.67-2.44-11.19-0.97-11.82
					c4.74-2.04,5.89-7.58,7.84-8.33c1.94-0.75,4.18,5.27,7.05,6.06c4.65,1.28,14.83-3.96,17.02-5.88c0,0,4.28,9.17,3.79,15.1
					c-0.43,5.26,0.51,2.41-8.79,7.3c-7.29,3.83,25.09,4.2,21.82-22.32C866.15,303.19,856.19,292.26,845.31,291.97z"/>
				<path class="st11" d="M821.51,327.77c4.77-1.16,5.33-7.89,7.18-8.6c1.85-0.71,3.98,5.02,6.71,5.76
					c4.42,1.22,15.7-4.47,16.57-5.97c0.87-1.5,1.56-3.64,1.15-5.26c-1.4-5.58-4.87-8.5-9.21-9.79c-3.99-1.19-9.04,4.01-13.58,4.79
					c-4.69,0.81-8.58-2.93-11.68-0.48c-2.84,2.25-4.75,5.5-5.24,10.33c-0.21,2.04-0.17,3.95,0.08,5.71c0.17,1.2,0.91,2.25,2,2.77
					C817.02,327.77,819.13,328.35,821.51,327.77z"/>
				<path class="st13" d="M821.51,327.77c4.77-1.16,5.33-7.89,7.18-8.6c1.85-0.71,3.98,5.02,6.71,5.76
					c3.43,0.94,10.75-2.28,14.84-4.63c0.92-2.48,1.16-5.09,0.42-7.75c-1.26-4.54-4.31-6.86-8.13-7.85
					c-4.55-1.19-7.83,4.05-12.81,5.07c-3.21,0.66-7.29-2.38-9.57-1.27c-3.76,1.84-5.42,5.31-6.02,11.03
					c-0.18,1.7-0.21,3.31-0.12,4.82c0.08,1.3,0.87,2.46,2.08,2.95C817.55,327.9,819.43,328.28,821.51,327.77z"/>
			</g>
		</g>
	</g>
</g>
<g id="torso">
	<path class="st0" d="M824.2,357.49c-2.11-9.06,17.62-22.01,33.83-19.42c16.21,2.59,31.72,38.19,31.72,38.19
		S826.31,366.55,824.2,357.49z"/>
	<path class="st8" d="M829.44,358.21c-0.19-9.27,20.84-18.2,37.05-15.61c16.21,2.59,31.72,38.19,31.72,38.19
		S830.14,391.87,829.44,358.21z"/>
	<path class="st7" d="M844.67,360.58c1.17-9.21,5.61-20.57,21.82-17.98c16.21,2.59,31.72,38.19,31.72,38.19
		S841.15,388.42,844.67,360.58z"/>
</g>
<g id="plane">
	<g>
		<path class="st14" d="M678.21,444.19c-20.92,0.78-126.36,30.56-181.86,39.93c-6.78,1.15-9.57,5.85-4.21,9.42
			c17.69,11.79,50.09,32.55,67.91,38.66c20.22,6.93,181.17-11.47,250.26-11.35c8.76,0.02,10.87-7.24,3.05-10.47l-129.32-65.16
			C682.25,444.48,680.2,444.12,678.21,444.19z"/>
		<path class="st15" d="M678.21,444.19c-20.92,0.78-86.49,31.43-100.62,53.26c-14.13,21.83-35.36,28.64-17.54,34.75
			c20.22,6.93,181.17-11.47,250.26-11.35c8.76,0.02,10.87-7.24,3.05-10.47l-129.32-65.16C682.25,444.48,680.2,444.12,678.21,444.19z
			"/>
		<path class="st16" d="M717.58,523.99l-36.82-24.26c-5.38-2.96-9.18-4.37-15.13-2.85l-63.64,10.03c-4.74,1.21-5.54,7.6-1.25,9.94
			l18.94,14.28"/>
		<line class="st16" x1="592.57" y1="532.56" x2="518.08" y2="482.04"/>
		<path class="st17" d="M685.27,434.75c-21.08,1.21-131.23,28.46-188.6,43.01c-7.01,1.78-10.74,9.09-6.09,14.64
			c0,0,210.2-39.87,203.02-44.89l-2.7-11.16C689.26,435.19,687.28,434.63,685.27,434.75z"/>
	</g>
	<g>
		<path class="st17" d="M1085.34,437.39c-4.59,1.84-5.27,12.3-0.87,16c11.05,9.31,4.76,6.88,22.85,21.23
			c25.22,20.02,160.37-15.45,185.46-21.3c25.09-5.85-15.47-58.92-37.12-55.3c-21.65,3.62-65.02,9.78-97.93,16.64
			C1137.73,418.84,1100.32,431.39,1085.34,437.39z"/>
		<path class="st18" d="M1083.76,442.91c-4.62,1.72-6.01,7.44-2.29,12.19c8.92,11.37,15.51,19.96,21.6,24.74
			c25.33,19.88,160.37-15.45,185.46-21.3c25.09-5.85-8.74-59.88-40.03-54.57c-25.01,4.25-57.63,9.72-90.54,16.59
			C1137.97,424.73,1098.41,437.45,1083.76,442.91z"/>
		<path class="st15" d="M1103.07,479.84c25.33,19.88,160.37-15.45,185.46-21.3c25.09-5.85-8.74-59.88-40.03-54.57
			c-8.83,1.5,0.06,18.9-43.27,47.94C1164.87,478.96,1099.13,476.75,1103.07,479.84z"/>
		<path class="st19" d="M1230.28,471.68l-17.79-23.87c-1.81-2.43-0.39-5.87,2.75-6.65l36.68-9.12c1.82-0.45,3.73,0.15,4.82,1.53
			l21.56,27.09"/>
		<path class="st19" d="M1115.49,484.38l-8.67-12.23c-2.35-3.15-0.51-7.61,3.57-8.62l33.85-8.41c2.36-0.59,4.83,0.2,6.26,1.98
			l21.02,26.41"/>
	</g>
	<g>
		<path class="st20" d="M936.27,329.2c0,0-124.43-136.87-283.42,13.83l235.03,52.54L936.27,329.2z"/>
		<path class="st21" d="M936.49,328.56c0,0-124.43-136.87-283.42,13.83"/>
		<path class="st22" d="M930.77,330.49c0,0-115.59-127.15-263.28,12.84c0,0,96.32-57.79,146.41-52.66
			C863.99,295.81,930.77,330.49,930.77,330.49z"/>
		<path class="st23" d="M804.91,277.66c-39.77,1.04-86.7,17.61-137.42,65.68l95.04-21.83L804.91,277.66z"/>
		<path class="st24" d="M1123.42,548.82c-23.12,110.45-212.44,79.17-353.16,37.25S530.15,467.68,554.5,397
			s148.21-79.13,288.93-37.22S1134.64,495.22,1123.42,548.82z"/>
		<path class="st17" d="M1120.85,545.4c-23.12,110.45-212.44,79.17-353.16,37.25c-140.72-41.92-240.12-118.4-215.76-189.08
			c24.36-70.68,148.21-79.13,288.93-37.22S1132.07,491.8,1120.85,545.4z"/>
		<path class="st24" d="M1123.42,548.82c-23.12,110.45-212.44,79.17-353.16,37.25S530.15,467.68,554.5,397
			s148.21-79.13,288.93-37.22S1134.64,495.22,1123.42,548.82z"/>
		<path class="st25" d="M929.77,317.93l-2.85,0.57c0,0-21.69,33.39-65.79,44.38c0,0,6.85,10.42,36.82,5.85
			S929.77,317.93,929.77,317.93z"/>
		<path class="st24" d="M861.28,364.88c-10.04,1.93-8.2,12.98,0.16,18.86c53.1,37.34,156.49,119.2,183.92,140.97
			c49.8,39.53,97.14,49.04,114.02,16.41c14.73-28.48,35.87-68.41,34.24-74.52l-3.36-12.64c-1.54-5.77-7.23-9.41-13.11-8.38
			l-12.96,2.26c-0.92,0.16-1.81,0.43-2.67,0.81c-4.9,2.16-22.75,10.04-34.96,15.42c-26.81,11.79-42.67,2.85-70.92-26.69
			c-28.25-29.54-125.86-119.44-125.86-119.44S903.87,356.71,861.28,364.88z"/>
		<path class="st26" d="M862.99,363.74c0,0,12.13,48.95-37.53,88.33"/>
		<path class="st27" d="M970.59,356.18c0,0,54.8,71.49-21.83,147.27"/>
		<g>
			<path class="st18" d="M1065.82,447.49c0.96,4.65,1.49,9.38,1.75,14.12c0.26,4.74,0.25,9.5-0.05,14.24
				c-0.63,9.48-2.4,18.9-5.53,27.9c-1.58,4.49-3.46,8.88-5.68,13.1c-2.31,4.17-4.85,8.22-7.78,11.98
				c-5.89,7.5-13.04,13.97-20.97,19.18l-0.06-0.08c7.59-5.67,14.55-12.18,20.24-19.71c2.9-3.72,5.41-7.72,7.7-11.84
				c2.26-4.14,4.17-8.46,5.8-12.9c3.2-8.89,5.06-18.24,5.79-27.67c0.37-4.72,0.44-9.46,0.25-14.19c-0.2-4.73-0.66-9.46-1.55-14.11
				L1065.82,447.49z"/>
		</g>
		<line class="st27" x1="1067.09" y1="478.47" x2="989.42" y2="419.32"/>
		<g>
			<path class="st18" d="M1063.12,468.68c0.18,0.66-0.15,1.27-0.83,1.27c-0.77,0-1.49-0.76-1.49-1.55c0-0.67,0.53-1.02,1.12-0.89
				C1062.46,467.62,1062.97,468.11,1063.12,468.68z"/>
			<path class="st18" d="M1063.33,451.27c0.18,0.66-0.15,1.27-0.83,1.27c-0.77,0-1.49-0.76-1.49-1.55c0-0.67,0.53-1.02,1.12-0.89
				C1062.67,450.21,1063.18,450.7,1063.33,451.27z"/>
			<path class="st18" d="M1072.53,459.57c0.18,0.66-0.15,1.27-0.83,1.27c-0.77,0-1.49-0.76-1.49-1.55c0-0.67,0.53-1.02,1.12-0.89
				C1071.87,458.51,1072.38,459,1072.53,459.57z"/>
			<path class="st18" d="M1073.18,475.05c0.18,0.66-0.15,1.27-0.83,1.27c-0.77,0-1.49-0.76-1.49-1.55c0-0.67,0.53-1.02,1.12-0.89
				C1072.51,473.99,1073.02,474.48,1073.18,475.05z"/>
			<path class="st18" d="M1072,485.54c0.18,0.66-0.15,1.27-0.83,1.27c-0.77,0-1.49-0.76-1.49-1.55c0-0.67,0.53-1.02,1.12-0.89
				C1071.34,484.48,1071.84,484.97,1072,485.54z"/>
			<path class="st18" d="M1062.79,478.48c0.18,0.66-0.15,1.27-0.83,1.27c-0.77,0-1.49-0.76-1.49-1.55c0-0.67,0.53-1.02,1.12-0.89
				C1062.13,477.41,1062.64,477.91,1062.79,478.48z"/>
			<path class="st18" d="M1069.33,499.29c0.18,0.66-0.15,1.27-0.83,1.27c-0.77,0-1.49-0.76-1.49-1.55c0-0.67,0.53-1.02,1.12-0.89
				C1068.66,498.22,1069.17,498.72,1069.33,499.29z"/>
			<path class="st18" d="M1060.12,492.23c0.18,0.66-0.15,1.27-0.83,1.27c-0.77,0-1.49-0.76-1.49-1.55c0-0.67,0.53-1.02,1.12-0.89
				C1059.46,491.16,1059.97,491.66,1060.12,492.23z"/>
			<path class="st18" d="M1061.84,519.25c0.18,0.66-0.15,1.27-0.83,1.27c-0.77,0-1.49-0.76-1.49-1.55c0-0.67,0.53-1.02,1.12-0.89
				C1061.17,518.19,1061.68,518.68,1061.84,519.25z"/>
			<path class="st18" d="M1052.63,512.19c0.18,0.66-0.15,1.27-0.83,1.27c-0.77,0-1.49-0.76-1.49-1.55c0-0.67,0.53-1.02,1.12-0.89
				C1051.97,511.12,1052.48,511.62,1052.63,512.19z"/>
			<path class="st18" d="M1052.42,533.81c0.18,0.66-0.15,1.27-0.83,1.27c-0.77,0-1.49-0.76-1.49-1.55c0-0.67,0.53-1.02,1.12-0.89
				C1051.75,532.74,1052.26,533.24,1052.42,533.81z"/>
			<path class="st18" d="M1043.21,526.74c0.18,0.66-0.15,1.27-0.83,1.27c-0.77,0-1.49-0.76-1.49-1.55c0-0.67,0.53-1.02,1.12-0.89
				C1042.55,525.68,1043.06,526.17,1043.21,526.74z"/>
			<path class="st18" d="M1039.15,546.22c0.18,0.66-0.15,1.27-0.83,1.27c-0.77,0-1.49-0.76-1.49-1.55c0-0.67,0.53-1.02,1.12-0.89
				C1038.48,545.16,1038.99,545.65,1039.15,546.22z"/>
			<path class="st18" d="M1029.94,539.16c0.18,0.66-0.15,1.27-0.83,1.27c-0.77,0-1.49-0.76-1.49-1.55c0-0.67,0.53-1.02,1.12-0.89
				C1029.28,538.09,1029.79,538.59,1029.94,539.16z"/>
			<path class="st18" d="M958.29,503.53c0.18,0.66-0.15,1.27-0.83,1.27c-0.77,0-1.49-0.76-1.49-1.55c0-0.67,0.53-1.02,1.12-0.89
				C957.63,502.47,958.14,502.96,958.29,503.53z"/>
			<path class="st18" d="M947.47,497.06c0.18,0.66-0.15,1.27-0.83,1.27c-0.77,0-1.49-0.76-1.49-1.55c0-0.67,0.53-1.02,1.12-0.89
				C946.8,496,947.31,496.49,947.47,497.06z"/>
			<path class="st18" d="M974.41,483.34c0.18,0.66-0.15,1.27-0.83,1.27c-0.77,0-1.49-0.76-1.49-1.55c0-0.67,0.53-1.02,1.12-0.89
				C973.75,482.28,974.26,482.77,974.41,483.34z"/>
			<path class="st18" d="M963.59,476.87c0.18,0.66-0.15,1.27-0.83,1.27c-0.77,0-1.49-0.76-1.49-1.55c0-0.67,0.53-1.02,1.12-0.89
				C962.92,475.81,963.43,476.3,963.59,476.87z"/>
			<path class="st18" d="M984.41,465.22c0.18,0.66-0.15,1.27-0.83,1.27c-0.77,0-1.49-0.76-1.49-1.55c0-0.67,0.53-1.02,1.12-0.89
				C983.74,464.15,984.25,464.65,984.41,465.22z"/>
			<path class="st18" d="M973.58,458.75c0.18,0.66-0.15,1.27-0.83,1.27c-0.77,0-1.49-0.76-1.49-1.55c0-0.67,0.53-1.02,1.12-0.89
				C972.92,457.68,973.43,458.18,973.58,458.75z"/>
			<path class="st18" d="M993.18,446.38c0.18,0.66-0.15,1.27-0.83,1.27c-0.77,0-1.49-0.76-1.49-1.55c0-0.67,0.53-1.02,1.12-0.89
				C992.52,445.32,993.03,445.81,993.18,446.38z"/>
			<path class="st18" d="M982.36,439.91c0.18,0.66-0.15,1.27-0.83,1.27c-0.77,0-1.49-0.76-1.49-1.55c0-0.67,0.53-1.02,1.12-0.89
				C981.69,438.85,982.2,439.34,982.36,439.91z"/>
		</g>
		<path class="st28" d="M1082.42,597.61c-6.43,30.56-81.77,33.5-166.78,21.42c-49.23-7-101.32-19.83-146.15-33.18
			c-122.24-36.41-225.7-107.47-208.13-156.82s183.03-36.31,294.58,25.54C1027.93,549.93,1089.23,565.26,1082.42,597.61z"/>
		<path class="st29" d="M1015.54,595.06c85.62,37.9-44.92,39.48-170.25,10.85c-25.71-5.87-51.07-12.7-75.03-19.83
			c-75.16-22.39-181.12-72.36-204.23-127.16c-16.26-38.53-8.37-121.09,232.95-45.92c49.49,15.42,68.75-40.15,93.14-32.89
			c58.41,17.4,97.73,41.14,83.18,68.54C954.11,488.53,923.89,554.49,1015.54,595.06z"/>
		<g>
			<ellipse class="st18" cx="870.27" cy="374.01" rx="1.43" ry="1.57"/>
			<ellipse class="st18" cx="857.71" cy="373.59" rx="1.43" ry="1.57"/>
			<ellipse class="st18" cx="848.86" cy="436.38" rx="1.43" ry="1.57"/>
			<ellipse class="st18" cx="865.2" cy="405.98" rx="1.43" ry="1.57"/>
			<ellipse class="st18" cx="853.71" cy="404.41" rx="1.43" ry="1.57"/>
			<ellipse class="st18" cx="836.3" cy="435.95" rx="1.43" ry="1.57"/>
		</g>
		<path class="st19" d="M819.75,599.91c0,0,80.39-27.31,87.9-36.53c6.28-7.71-68.09-37.45-98.74-46.97
			c-7.46-2.31-12.97-2.4-19.98,1.02l-94.75,41.1"/>
	</g>
	<g>
		<path class="st18" d="M892.12,380.11c-5.27,1.22-9.53,5.05-11.34,10.15c-2.09,5.91-2.35,7.19,1.19,12.15
			c6.42,8.99,73.21,35.96,89.9,41.1c14.29,4.4,201.12-52.65,254.72-71.92c3.42-0.86,7.1-8.4,1.92-13.2
			c-13.6-12.58-39.06-33.87-51.15-36.46C1161.16,318.46,936.49,369.88,892.12,380.11z"/>
		<path class="st17" d="M888.53,380.94c-2.66,0.61-4.86,2.43-5.98,4.91c-2.62,5.82-5.11,10.22-0.58,16.56
			c4.48,6.27,250.64-56.33,291.44-67.76c4.36-1.22,7.23-5.62,6.2-10.03c-0.32-1.37-0.99-2.42-2.25-2.69
			C1160.66,318.35,922.41,373.11,888.53,380.94z"/>
		<path class="st15" d="M962.88,374.16c-32.11,3.42-80.29,11-82.1,16.1c-2.09,5.91-2.35,7.19,1.19,12.15
			c6.42,8.99,73.21,35.96,89.9,41.1c14.29,4.4,201.12-52.65,254.72-71.92c3.42-0.86,7.1-8.4,1.92-13.2
			c-9.65-8.93-53.51,27.35-141.05,42.31c-26.68,4.56-76.36,0.64-101.89-19.12C976.72,374.73,970.76,375.14,962.88,374.16z"/>
	</g>
	<path class="st30" d="M1149.53,396.42l-28.25-17.34c-5.38-2.96-8.02-1.51-13.97,0.01l-64.81,16.52c-4.74,1.21-5.54,7.6-1.25,9.94
		l30.51,14.28"/>
	<line class="st30" x1="1041.65" y1="368.59" x2="1075.9" y2="386.57"/>
	<line class="st30" x1="1124.28" y1="347.62" x2="1179.93" y2="386.14"/>
	<line class="st30" x1="965.02" y1="387.86" x2="1026.67" y2="432.38"/>
	<path class="st18" d="M1178.9,445.12l-16.95,2.67c0,0-38.89,19.12-56.22,21.69c0,0,33.47,12.78,75.07-19.98
		C1182.79,447.93,1181.41,444.73,1178.9,445.12z"/>
</g>
<g id="wind">
	<path class="st0" d="M771.72,481.75c0,0-106.18,0.54-108.63,127.34s161.87,202.1,258.04,213.76c0,0-144.86-46.59-202.89-117.3
		S647.62,525.5,771.72,481.75z"/>
	<path class="st0" d="M808.8,678.98c0,0,35.97,110.03,279.21,151.05C1088,830.03,815.15,822.86,808.8,678.98z"/>
	<path class="st0" d="M970.84,481.9c0,0,153.36,104.59,337.04,158.31c133,38.9-108.06-59.48-125.18-72.45s2.79-46.98-35.58-62.18
		s-82.99,4.6-82.99,4.6s14.65-12.64-7.05-26.95C1035.38,468.92,984.04,470.83,970.84,481.9z"/>
</g>
<g id="extra">
	<path class="st17" d="M734.16,192.98c0,0-5.6,54.65-41.99,55.45c0,0,39.2,14.61,36.4,56.18c0,0,2.8-36.82,36.4-56.18
		C764.96,248.43,731.36,234.55,734.16,192.98z"/>
	<path class="st17" d="M765.12,326.95c0,0-3.14,30.61-23.52,31.05c0,0,21.95,8.18,20.38,31.46c0,0,1.57-20.62,20.38-31.46
		C782.36,358,763.55,350.23,765.12,326.95z"/>
	<path class="st17" d="M1494.91,650.76c0,0-2.3,22.42-17.23,22.75c0,0,16.08,5.99,14.93,23.05c0,0,1.15-15.11,14.93-23.05
		C1507.54,673.51,1493.76,667.81,1494.91,650.76z"/>
	<path class="st17" d="M1514.95,612.78c0,0-2.89,28.18-21.66,28.59c0,0,20.21,7.53,18.77,28.97c0,0,1.44-18.99,18.77-28.97
		C1530.83,641.37,1513.51,634.22,1514.95,612.78z"/>
</g>
</svg>
