<svg xmlns="http://www.w3.org/2000/svg" viewBox="0 0 960 1080"><defs><style>.cls-1{fill:#f3e7d9;}.cls-2{fill:#fffcf3;}.cls-3{fill:#4b3355;}.cls-4{fill:#665070;}.cls-5{fill:#34283a;}.cls-6{fill:#7a462f;}.cls-7{fill:#a96443;}.cls-8{fill:#f7bc4b;}.cls-9{fill:#feed7f;}.cls-10{fill:#1689cb;}.cls-11{fill:#29abe2;}.cls-12{fill:#3e4c6f;}.cls-13{fill:#121721;}.cls-14{fill:#273252;}.cls-15{fill:#1d2538;}.cls-16,.cls-17,.cls-20,.cls-21,.cls-22,.cls-23{fill:none;}.cls-16{stroke:#1d2538;}.cls-16,.cls-22{stroke-linecap:round;stroke-linejoin:round;}.cls-17,.cls-22{stroke:#3e4c6f;}.cls-17,.cls-20,.cls-21,.cls-23{stroke-miterlimit:10;}.cls-17{stroke-width:2px;}.cls-18{fill:#c94039;}.cls-19{fill:#ce9436;}.cls-20{stroke:#f5894e;}.cls-21{stroke:#feed7f;}.cls-22{stroke-width:0.75px;}.cls-23{stroke:#c94039;stroke-width:4px;}.cls-24{fill:#856792;}</style></defs><title>24_discount</title><g id="clouds1"><path class="cls-1" d="M339.34,163.9s15.47-22.1-31.65-18S262,189.13,262,189.13s-2.83-13.93-30.3-9.27-12.42,23.27-12.42,23.27-58.62,6.73-41.31,13.36,145.8-27.05,175-39.22S339.34,163.9,339.34,163.9Z"/><path class="cls-1" d="M592.74,257.92s39.2-54.57,61.78-59.52,8.31,19.5,8.31,19.5,52.5-58.18,92.9-66.79,28.48,22.55,28.48,22.55,97.32-24.92,122.11-9.63c5.12,3.16-48.53,14-141.1,40.09C689.28,225.54,592.74,257.92,592.74,257.92Z"/><path class="cls-1" d="M578.43,327.39c19.19-16.36,37.25-21.64,38.21-10.67S608,334.07,608,334.07s53.88-15.69,53.78-7.18-138.63,28.35-161.58,39.43,10.37-28.36,38-43.52C557.2,312.34,570.59,334.07,578.43,327.39Z"/></g><g id="water"><path class="cls-1" d="M543,878c-25,0-71.5-.5-95.5-1.5s-68,5-60,6,21,2,21,2-9,4,15,6S517,897,557,895,568,878,543,878Z"/><path class="cls-1" d="M455,890s-116,0-138,1-75,12-40,20c0,0-98,24-86,35s83,14,83,14-18.09,19.88,50.91,21.88S520,989,529,991s-23,7-15,15,20,12,51,10,35-3,35-3-13,6,64,12,81-17,43-20c0,0,13,4,34,1s32-3,36-9,67-5,79-10,9-19-8-27-126-33-178-45S550,883,455,890Z"/><path class="cls-2" d="M504.07,916.76c-17.7,3.79-27.18,9.48-28.45,13.91s41.73,9.48,41.73,9.48-27.34,10.59,1.74,16.28,79.18,4,79.18,4,4.58,7.59-70.81,1.9S472,948.05,472,948.05c-83.92-4.27-9.64-28.6,1.42-30.5S504.07,916.76,504.07,916.76Z"/><path class="cls-2" d="M635.73,973.44s-47.48,10-26.38,13.71,46.95-1.58,46.95-1.58-5.28,13.19,30.59,7.91,54.33-20.57,54.33-20.57S694.8,990.32,680,989.26,663.68,984,663.68,984s-11.6-1.58-29.54-2.64S635.73,973.44,635.73,973.44Z"/><path class="cls-2" d="M345.88,922.54s-47.47,8.7-34,17.41,33.23,10.28,33.23,10.28,25.32,16.62,67.25,7.12c0,0-57,1.58-59.34-9.49,0,0-31.65-3.17-27.69-11.87S345.88,922.54,345.88,922.54Z"/><path class="cls-1" d="M171,938.36s-47.47,8.71-34,17.41,33.23,10.28,33.23,10.28,25.32,16.62,67.25,7.13c0,0-57,1.58-59.34-9.5,0,0-31.65-3.16-27.69-11.87S171,938.36,171,938.36Z"/><path class="cls-1" d="M276.25,985c4.79,2.26-10.21,5.53,4.75,9.5,27.1,7.19,92.77,13.76,129,0,0,0-23.74,17.41-51.43,19s-53-9.5-53-9.5-17.41,7.12-50.64-3.16S262.8,978.71,276.25,985Z"/><path class="cls-1" d="M501,1000.87s-5.54,14.24,17.4,19,46.68,0,46.68,0-32.44,17.4-68.83,7.12c-32.39-9.16-7.12-15.83-7.12-15.83S425.79,1001.66,501,1000.87Z"/></g><g id="boat-back"><polygon class="cls-3" points="503 765 643 761 792.75 805.99 789.75 815.99 642 769 521 776 503 765"/><polygon class="cls-4" points="511.74 764.79 643.1 760.7 789.36 804.93 781.45 806.52 639.52 764 520.84 767.96 511.74 764.79"/><polygon class="cls-5" points="526.67 773 642 769 810.32 819.29 766.41 916.6 595.5 878.63 526.67 773"/><polygon class="cls-3" points="570.58 785.66 643.37 786.45 675.02 797.53 645.75 791.99 570.58 785.66"/><polygon class="cls-3" points="692.43 816.52 653.66 804.65 694.01 810.98 692.43 816.52"/></g><g id="droplets"><path class="cls-1" d="M213.75,738.19s-15-31.65-31.65-48.27-23.74-24.52-30.86-23.73-6.33,16.61-1.58,26.9,24.53,23.73,38.77,34S213.75,738.19,213.75,738.19Z"/><path class="cls-1" d="M212.16,663.81s3.17-38-7.12-46.68S191.59,624.25,194,633c0,0-7.92-11.08-21.37-41.15s-27.69-57.76-42.72-55.38,4,49.84,28.48,78.33,53,68.83,60.13,72.79S212.16,663.81,212.16,663.81Z"/><path class="cls-1" d="M298.41,761.13S287.33,720,309.48,677.26,332.43,644.82,334.8,648a11.54,11.54,0,0,1,2.38,6.33s.79-16.62,15-35.61,30.86-31.64,39.56-26.11-.79,22.16-.79,22.16l-15,20.57s12.65-12.66,20.57-8.7.79,15.82.79,15.82,23.73,9.5-3.17,28.48S298.41,761.13,298.41,761.13Z"/><path class="cls-1" d="M366.45,548.69s20.18,3.56,19-17.8-15.43-9.49-23.74,0S366.45,548.69,366.45,548.69Z"/><path class="cls-1" d="M276.25,593.79s-1.18-8.31-10.68-5.93-10.68,10.68,1.19,11.87S276.25,593.79,276.25,593.79Z"/></g><g id="left_arm" data-name="left arm"><path class="cls-6" d="M744,711.31a11.8,11.8,0,0,1,17.09-2.51c3,2.35,7.58,4.73,10.88,12.77,1.55,3.8,6.76,6.78,8.87,9.66,5.82,7.95,16.44,20.8,8.8,28.32s-25.09-15-31.52-21.63S739.35,717.71,744,711.31Z"/><path class="cls-7" d="M750.7,723.18c4.64-6.4,12.13,2.74,13.73,9.47,1.32,5.54,1.93,7.71,5.54,11.87s10.78,14.83,10.78,14.83-5-2.08-15.4-13.38C755.93,735.68,746.07,729.58,750.7,723.18Z"/></g><g id="left_thigh" data-name="left thigh"><path class="cls-8" d="M692.43,789.62s-7.91,20-13.45,35.86-9.1,22.68-9.1,22.68l37.58,9.1s12.4-25.45,19.39-38.37S736.08,794,736.47,788,707.07,782.1,692.43,789.62Z"/><path class="cls-9" d="M686.1,818.1s-1.58-8.44-7.12,7.38-9.1,22.68-9.1,22.68l15-.39s15.83-19.78,18.2-28.88,0-15.43,0-15.43Z"/></g><g id="torso"><path class="cls-8" d="M682.93,765.48c-3.95,1.59-3.56,21,3.17,27.3s4.35,15,27.69,11.87,22.29-7.12,24.26-16.62S686.89,763.9,682.93,765.48Z"/><path class="cls-10" d="M720.91,696.65c-12.26-2.38-30.59.53-32.44.79l-1.58,36s-8.7,17.8-8.7,22.94c0,0,7.51,8.31,12.66,13.06s7.91,12.66,14.24,15.82,35.6,7.52,35.6,7.52,4.56-19.31,7.91-35.87c2.68-13.19,5.41-24.41,5.94-31.78,1.19-16.61.92-19.12.92-19.12S733.18,699,720.91,696.65Z"/><path class="cls-11" d="M738.32,725.53s-48-28.35-49.85-28.09l-1.58,36s-8.7,17.8-8.7,22.94c0,0,7.51,8.31,12.66,13.06s15-2,15-2l20.57-26.9Z"/><path class="cls-6" d="M720.91,685.18l-6.06,13.45s-2.9,4.74,5,6.59,14.77-3.17,14.77-3.17l5.27-12.65Z"/><path class="cls-6" d="M718.88,697.58s-10.06-2.17-11.29-.65,2.56,13,12.14,14.75,18.8-6.17,20.51-7.82C745.64,698.66,718.88,697.58,718.88,697.58Z"/><path class="cls-12" d="M689.74,738.34l3-8.37s23.85,1.21,55.25,10.79l-1.81,9.67S724,742.42,689.74,738.34Z"/><path class="cls-12" d="M748.8,738s-29-8.88-57.3-11.94l2.78-7.59A132.13,132.13,0,0,1,718,721c14,2.69,33.27,9,33.27,9Z"/></g><g id="right_thigh" data-name="right thigh"><path class="cls-8" d="M692.69,762.71c-14.77-15.82-27.43-28-35.87-38s-15.29-15.83-22.68-14.25-11.34,18.6-5.8,31.65,51.69,47,61.19,53.28S701.78,772.45,692.69,762.71Z"/></g><g id="right_leg" data-name="right leg"><path class="cls-13" d="M614.1,799.9c-9.1-9.1-11.87-9.1-21-13.85s-17.4-7.91-23.34-1.18-2,10.28,3.56,19.38,30.73,22.55,37.06,17.8S623.2,809,614.1,799.9Z"/><path class="cls-8" d="M618.58,804.38s7.12-4.74,7.52-8.3.66-8.84.66-8.84,21.62-56.17,20-47.73,2.9-24.53-7.38-30.07-24.27,5.8-26.9,18.46-14,33.5-16.36,42.2c0,0-5.4,2-6.59,4.75s2.9,10,2.9,10l13.72,7.65C609.75,794.49,618.58,804.38,618.58,804.38Z"/><path class="cls-9" d="M637.57,733.44s12.13-18.46,1.85-24-24.27,5.8-26.9,18.46-14,33.5-16.36,42.2c0,0-5.4,2-6.59,4.75s2.9,10,2.9,10l21.63-9.5,20.83-37.45-9.23-1Z"/><path class="cls-11" d="M576.6,808.1s-12-14.06-9.5-18.56,12.45-4.6,23.21,6.14c9.89,9.88,25.44,21.91,21.77,26.29S586,817.09,576.6,808.1Z"/></g><g id="head"><path class="cls-14" d="M754.18,675.36c-9.74,21-13.26,18.46-22.45,15.09-7.7-2.82-9.68-15.07-5.22-25.75s14.26-16.94,21.9-14S760.17,662.43,754.18,675.36Z"/><path class="cls-6" d="M751.1,670.79c4-9.84,5.32-15.87-5.38-20.89-5.58-2.61-11.47-4.26-15.52-3.84-3.66.39-8,3.63-10.92,10.06A104,104,0,0,0,711.07,680c-1.13,5.61,3.42,7.42,9.23,10.11C735,697,739,694.49,744.69,684.68,750,675.45,749.43,674.83,751.1,670.79Z"/><path class="cls-7" d="M735.68,677.79c-4.22-8.7-13.13-25.68-16.09-19.25a82,82,0,0,0-6.85,21.36c-1.13,5.61,2.86,8.51,8.67,11.2,9.2,4.26,12,2.16,15.56.18C739.1,690.09,739.9,686.49,735.68,677.79Z"/><path class="cls-14" d="M727.93,644.93c-1.14.18-5,4.84-6.24,7.44-.34.72,3-3.65,4.73-4.26a12.64,12.64,0,0,0,5.47,4.4,112,112,0,0,0,13.48,4.62s-1.83,8.37-1.1,11.76a18.13,18.13,0,0,0,2.57,6l5.77-3.64c3.37-7.24,4-14.5-.31-18.07C744.33,646.7,732.14,644.26,727.93,644.93Z"/><path class="cls-15" d="M734,669.35c-.78,1.39-1.55,1.2-2.28.82s-1.17-.82-.4-2.21,2-2.25,2.77-1.86S734.79,668,734,669.35Z"/><path class="cls-16" d="M734.5,660.3s3.18,1.17,3.76,3.17"/><path class="cls-15" d="M723,664.45c-.67,1.33-1.32,1.12-2,.76s-1.17-.73-.5-2.07,1.79-2.16,2.49-1.8S723.64,663.11,723,664.45Z"/><path class="cls-16" d="M726.51,657.41a5,5,0,0,0-4.72-1.11"/><path class="cls-6" d="M752.68,679.89c-2.79,2.82-6.79,3.66-9,2,0,0,4.28-7.56,5.05-9,.48-.92,2.63-3.4,5-1.58S755.58,677,752.68,679.89Z"/><path class="cls-1" d="M749.16,682.49a2.18,2.18,0,0,1-2.83.42,1.74,1.74,0,0,1-.49-2.56,2.17,2.17,0,0,1,2.85-.44A1.72,1.72,0,0,1,749.16,682.49Z"/></g><g id="left_finger" data-name="left finger"><path class="cls-6" d="M769.59,696.81c-.55,2.31,2.8,5.34,4,5.89a2.54,2.54,0,0,0,3-1C777,700.94,770.14,694.5,769.59,696.81Z"/></g><g id="rope_bait" data-name="rope/bait"><ellipse class="cls-8" cx="750.72" cy="722.68" rx="5.8" ry="3.32" transform="translate(-288.1 804.51) rotate(-48.41)"/><path class="cls-8" d="M748.12,728s-2.37-1.89-3.74-3.11-.76-4.15,1.36-6.54,5-3.35,6.34-2.14c.56.51,3.32,3.19,3.32,3.19Z"/><path class="cls-17" d="M777,695.2s66.4-88.88,125.42-196.62"/><path class="cls-18" d="M719.65,773.26c-3.19.66-6-4.08-4.73-5.22s33.32-42.55,59.69-73.46l3.48,1.93Z"/><polygon class="cls-1" points="753.59 729.66 748.14 724.8 749.4 723.45 754.84 728.3 753.59 729.66"/><path class="cls-8" d="M336.68,448.42s-60.67-26.3-59-95.12c0,0,13.64-70.7,54.56-111.76,0,0,33.2-27.12,47.33-24.15s9.63,53.86,9,69.27,3.26,7.26-8.36,29.35-41.41,81.42-40.82,95.7S336.68,448.42,336.68,448.42Z"/><path class="cls-19" d="M336.68,448.42s-60.67-26.3-59-95.12L380.22,316c-11.61,22.08-41.41,81.42-40.82,95.7S336.68,448.42,336.68,448.42Z"/><ellipse class="cls-7" cx="371.77" cy="237.7" rx="7.57" ry="5.79" transform="translate(118.75 599.22) rotate(-87.61)"/><path class="cls-20" d="M372.87,236.11s40.77-94.51,74-121.63,45.36-33.74,67.93-5.47-28,130.68,11.19,244,102.32,24.47,129,10.14,104.71-60.95,190.77-17,62.83,135.66,53.39,153.09c-17.7,35-99.33,169.27-125.72,194.3"/><path class="cls-21" d="M372.87,236.11s40.77-94.51,74-121.63,45.36-33.74,67.93-5.47-28,130.68,11.19,244"/><line class="cls-22" x1="899.23" y1="502.9" x2="897.03" y2="501.85"/><line class="cls-22" x1="894.63" y1="511.12" x2="892.43" y2="510.08"/><line class="cls-22" x1="889.08" y1="520.69" x2="886.88" y2="519.64"/><line class="cls-22" x1="884.91" y1="528.14" x2="882.71" y2="527.09"/><line class="cls-22" x1="881.48" y1="534.23" x2="879.28" y2="533.18"/><line class="cls-22" x1="876.78" y1="542.65" x2="874.58" y2="541.6"/><line class="cls-22" x1="872.1" y1="550.27" x2="869.9" y2="549.22"/><line class="cls-22" x1="866.56" y1="559.64" x2="864.36" y2="558.59"/><line class="cls-22" x1="861.57" y1="567.85" x2="859.37" y2="566.8"/><line class="cls-22" x1="856.59" y1="575.66" x2="854.39" y2="574.61"/><line class="cls-22" x1="852.44" y1="582.61" x2="850.24" y2="581.56"/><line class="cls-22" x1="847.44" y1="590.82" x2="845.24" y2="589.77"/><line class="cls-22" x1="843.1" y1="597.57" x2="840.9" y2="596.52"/><line class="cls-22" x1="837.7" y1="606.05" x2="835.5" y2="605"/><line class="cls-22" x1="831.67" y1="615.4" x2="829.47" y2="614.35"/><line class="cls-22" x1="825.31" y1="625.53" x2="823.11" y2="624.48"/><line class="cls-22" x1="818.23" y1="636.12" x2="816.03" y2="635.07"/><line class="cls-22" x1="812.56" y1="643.9" x2="810.85" y2="642.97"/><line class="cls-22" x1="806.24" y1="653.04" x2="804.51" y2="651.88"/><line class="cls-22" x1="800.22" y1="662.09" x2="798.42" y2="660.86"/><line class="cls-22" x1="794.14" y1="670.25" x2="792.34" y2="669.02"/><line class="cls-22" x1="786.34" y1="677.49" x2="787.92" y2="679.2"/><ellipse class="cls-18" cx="306.71" cy="350.49" rx="9.1" ry="9.49"/><ellipse class="cls-18" cx="344.69" cy="313.7" rx="10.68" ry="13.85"/><line class="cls-23" x1="322.93" y1="288.78" x2="327.68" y2="381.35"/></g><g id="left_forearm" data-name="left forearm"><path class="cls-6" d="M782.43,706.14a28.32,28.32,0,0,1-7.81-6.24s-.72-3.56-2.24-2.83-2.29.64-2.65.32c-.85-.74.77-6.16,1.81-7.51l1-1.35.16-4.38,2.76-3,1.43-.19s6.39.63,7.92,3.1a128.54,128.54,0,0,1,7.62,14.59C794.58,703.69,791.3,710.35,782.43,706.14Z"/><path class="cls-7" d="M777.09,695.2l-7.16-1.56a12,12,0,0,1,1.61-3.76l1-1.35.16-4.38,2.76-3,1.43-.19s6.39.63,7.92,3.1S777.09,695.2,777.09,695.2Z"/><path class="cls-6" d="M787.11,697.44c-10,2.37-3.06,29.69-6.86,36.92s-.71,19.11,3.61,23.3S790,762,796,753.23s0-30.82-.87-39.18C794,702.71,794.11,695.78,787.11,697.44Z"/></g><g id="right_arm" data-name="right arm"><path class="cls-6" d="M690.63,750.12c2.76-7.4.2-24.6,1.91-33.67,1.49-7.87-.11-11-2.19-17.69-1.5-4.82-11.91,3.36-13.66,9.53-1.91,6.71-2.38,17.42-4,25.37-1.75,8.74-4.28,26,1.66,31C680.8,770.11,687.67,758.07,690.63,750.12Z"/><path class="cls-7" d="M683.2,743.2c-1.56-4.55-2.38-16.88-2.11-23.74s9.26-20.7,9.26-20.7c-1.5-4.82-14.54,3.29-16.12,12.26-1.21,6.87.08,14.69-1.5,22.64-1.75,8.74-4.28,26,1.66,31C680.8,770.11,688,757.18,683.2,743.2Z"/><path class="cls-6" d="M725.46,742.54c-2.17-3.17-4.75-1.58-10.28.39-9.5,3.4-26.91,1.88-31.26,4.26s-17.07,18-2.44,19.61,33.26-6.75,39.43-11.6C726.45,750.85,727.64,745.7,725.46,742.54Z"/><path class="cls-6" d="M719.86,752.28c-3.17-3.38-5.67-6-2.11-9.78s16.22-8,17.8-8.86,9.89,4.86,9.89,4.86.79,2.53,0,3.79a11.72,11.72,0,0,0-1.19,3.17,11.22,11.22,0,0,1-1.18,2.95c-.8,1.27-3.17,2.11-3.17,2.11s-1.09,2.67-2.27,2.67a15.72,15.72,0,0,1-2.58-1.06l.9-1.4-4.36-1.05-3,3.37S723,755.66,719.86,752.28Z"/><path class="cls-7" d="M731.73,739c1-2.38,2.24-4.49,3.82-5.34s9.89,4.86,9.89,4.86.79,2.53,0,3.79a11.72,11.72,0,0,0-1.19,3.17,11.22,11.22,0,0,1-1.18,2.95c-.8,1.27-3.17,2.11-3.17,2.11s-1.09,2.67-2.27,2.67c-.43,0-1.68-2.46-1.68-2.46l-4.36-1.05S730.67,741.35,731.73,739Z"/></g><g id="boat_-front" data-name="boat -front"><path class="cls-3" d="M853.44,863.2S810.32,937,795.81,952.6l-40.61,3.7,54.59-149Z"/><polygon class="cls-4" points="798.45 875.07 831.48 899.4 829.9 901.97 790.14 872.3 798.45 875.07"/><path class="cls-4" d="M778.67,926.49l19,9.5s-8.84-2.24-14.37-5.8l5.8,5.54S782.63,934,778.67,926.49Z"/><path class="cls-4" d="M514,796l24,105s94.69,44.48,104.58,47.25c24.27,5.8,99.69,14.38,99.69,14.38L793,815l-91,27L544,812Z"/><polygon class="cls-3" points="740.16 944.16 711.15 934.14 701.01 854.48 780.25 821.4 777.09 860.3 740.16 944.16"/><path class="cls-5" d="M780,813l3.32-25.34L801,762s5,31-14,86-33,104-43,120l-9.64-6.43s17.23-46,26.64-74.57C777.62,836.56,780,813,780,813Z"/><path class="cls-24" d="M744,968s13,1,19,0,20-42,34-89,23.42-97.31,22.42-114.31L801,761.92S796,813,779,867,744,968,744,968Z"/><path class="cls-24" d="M861,856.6s-31.39-53-45.37-65.93l-6.06,17.93s27.29,34.82,43.78,58.82Z"/><polygon class="cls-3" points="853.31 867.42 851.26 866.36 812.69 816.25 813.48 812.3 853.31 867.42"/><polygon class="cls-3" points="779.56 816.19 700.22 850.94 545.06 822.9 515.22 800.77 515.61 804.32 544.53 826.51 701.01 854.48 778.5 822.12 779.56 816.19"/><polygon class="cls-4" points="503 765 524 764.4 556.41 797.72 576.62 804.71 694.26 822.01 784.99 787.01 791.33 788.56 695.26 832.99 554.07 810.67 503 765"/><polygon class="cls-24" points="503 765 506 793.92 545.06 822.9 700.22 850.94 786.18 813.88 791.33 788.82 696.26 826.96 571.09 810.23 552.07 802.72 503 765"/><polygon class="cls-3" points="556.6 839.2 590.89 849.75 626.36 852.52 637.84 861.35 590.36 852.38 556.6 839.2"/><polygon class="cls-4" points="724.74 870.45 770.36 856.87 768.25 863.59 724.74 870.45"/><polygon class="cls-3" points="722.76 909.22 650.5 905.53 601.44 896.82 566.23 881 598.27 900.78 648.38 909.75 701.92 915.02 722.76 909.22"/><polygon class="cls-3" points="528.65 850.93 538.54 855.29 554.76 860.43 530.49 855.33 528.65 850.93"/><path class="cls-4" d="M736.47,921l-34.81,6.85S716.43,929.4,736.47,921Z"/><polygon class="cls-3" points="730.14 939.29 644.16 932.96 614.1 923.46 606.19 916.6 642.58 927.29 730.14 939.29"/><polygon class="cls-4" points="757.86 881.64 735.97 888.11 696.62 891.04 757.86 881.64"/><polygon class="cls-3" points="690.32 874.8 652.6 875.07 639.42 867.15 651.95 870.05 690.32 874.8"/></g><g id="water_foam" data-name="water foam"><path class="cls-2" d="M733.84,961s-22.69-17.93-40.62-19.51-7.38,9.49-7.38,9.49S670.54,940.47,661,940s-15.29-.53-13.18,7.91a88.58,88.58,0,0,0-31.65-20.57c-19-6.86-14.77,10.55-11.61,12.66s-16.35-35.87-44.83-41.68-28,8.44-28,8.44-18.46-29.53-18.46-18.46,4.75,23.21,56.44,49.59,32.7,10.54,32.7,10.54,41.67,12.66,73.32,16.36A167,167,0,0,0,733.84,961Z"/><path class="cls-2" d="M504.87,895.33c2.64-3.82-1.32-18.65-7.27-9.33S502.22,899.14,504.87,895.33Z"/><path class="cls-1" d="M542.1,877.44c-.79,2.57,3.95,8.7,7.12,2.37S542.89,874.87,542.1,877.44Z"/><path class="cls-1" d="M504.12,856.08c2.37,7.12,15,5.54,9.5-4.75S501.75,849,504.12,856.08Z"/><path class="cls-1" d="M777.09,954.58s22.42-24.46,27.29-18,0,13.06,0,13.06,25.34-32,31.19-24.5-5.85,26.92-25.34,32S777.09,954.58,777.09,954.58Z"/><path class="cls-1" d="M856.6,900c-4.74,9.49,7.13,27.3,20.18,11.87S861.35,890.49,856.6,900Z"/></g></svg>