<svg xmlns="http://www.w3.org/2000/svg" xmlns:xlink="http://www.w3.org/1999/xlink" viewBox="0 0 960 1080"><defs><style>.cls-1{fill:#f3e7d9;}.cls-2{fill:#fffcf3;}.cls-3{fill:#bb83c3;}.cls-4{fill:#856792;}.cls-5{fill:#665070;}.cls-6{fill:#33a86d;}.cls-7{fill:#288453;}.cls-8{fill:#ffacff;}.cls-10,.cls-27,.cls-31,.cls-9{fill:none;}.cls-9{stroke:#f7bc4b;}.cls-10,.cls-31,.cls-9{stroke-miterlimit:10;}.cls-10{stroke:#feed7f;}.cls-11,.cls-13{fill:#feed7f;}.cls-12{fill:#f7bc4b;}.cls-13{opacity:0.39;}.cls-14{fill:#c94039;}.cls-15{fill:#ee5d4f;}.cls-16{fill:url(#linear-gradient);}.cls-17{fill:url(#linear-gradient-2);}.cls-18{fill:url(#linear-gradient-3);}.cls-19{fill:url(#linear-gradient-4);}.cls-20{fill:#ce9436;}.cls-21{fill:#7a462f;}.cls-22{fill:#a96443;}.cls-23{fill:#1689cb;}.cls-24{fill:#29abe2;}.cls-25{fill:#273252;}.cls-26{fill:#1d2538;}.cls-27{stroke:#1d2538;stroke-linecap:round;stroke-linejoin:round;}.cls-28{fill:#cc6d3d;}.cls-29{fill:#f5894e;}.cls-30{fill:#992c29;}.cls-31{stroke:#273252;stroke-width:0.75px;}</style><linearGradient id="linear-gradient" x1="270.13" y1="997.08" x2="264.9" y2="897.67" gradientUnits="userSpaceOnUse"><stop offset="0" stop-color="#fff"/><stop offset="0.35" stop-color="#f3e7d9"/><stop offset="0.59" stop-color="#f3e7d9"/></linearGradient><linearGradient id="linear-gradient-2" x1="222.93" y1="984.89" x2="219.51" y2="919.87" xlink:href="#linear-gradient"/><linearGradient id="linear-gradient-3" x1="721.43" y1="1010.1" x2="719.06" y2="912.78" gradientUnits="userSpaceOnUse"><stop offset="0" stop-color="#fff"/><stop offset="1" stop-color="#f3e7d9"/></linearGradient><linearGradient id="linear-gradient-4" x1="772.44" y1="990.82" x2="772.83" y2="919.61" gradientUnits="userSpaceOnUse"><stop offset="0" stop-color="#fff"/><stop offset="0.33" stop-color="#f3e7d9"/></linearGradient></defs><title>27_hqproducts2</title><g id="rocks_BG" data-name="rocks BG"><path class="cls-1" d="M540,794s23,9,46,10,33-3,26-6-1-4-1-4-3,2,84,4,133-1,140,2,64,4,65-2,1-20-19-22c0,0,1-76-10-103s-18-54-36-66-23-14-23-14,6.26-57.58-36-127c-28-46-52.71-51.42-52.71-51.42S712.56,388.48,702,353c-15.11-50.77-62-63-69-72s-59-14-63,17-7,88-7,88-40-5-40,90S540,794,540,794Z"/><path class="cls-2" d="M607.5,475.5s46.12.86,56,5.13,15,33.87,15,58.87c0,0,6.48-50.92-11.79-61.23S607.5,475.5,607.5,475.5Z"/><path class="cls-2" d="M664,545s-42,4-44,16-6,109-6,109-2-12-1-30,1-72,2-79S628,541,664,545Z"/><path class="cls-2" d="M635,663s-20,4-30,13c-3.72,3.34,0,98,0,98l4,1s-1-88-1-92-3-7,10-12S635,663,635,663Z"/><path class="cls-2" d="M723.29,414.58s-11-6-33,0C690.29,414.58,712.29,410.58,723.29,414.58Z"/><path class="cls-2" d="M812,593s-21-15-36-11C776,582,796,585,812,593Z"/><path class="cls-2" d="M639,361s-4-22-9-25c-7.55-4.53-9-6-35-8,0,0,27.51-1.78,37,5C639,338,639,361,639,361Z"/><path class="cls-1" d="M339,827s-175,0-220-2-52.5,9.5-47.5-46.5,12-116,40-146c0,0,9-76,30-106s46-34,46-34,6-9,13-7c0,0-11-15-2-52s31-134,97-113c0,0,53-33,79-29s87,108,95,156-6,373.5-6,373.5Z"/><path class="cls-2" d="M281,515s17-6,25,0,10,12,21,15,18,24,19,49,0,34,0,34-4-60-10-69-20-16-27-22S299,512,281,515Z"/><path class="cls-2" d="M327,617s17-3,30,4c14.65,7.89,24,39,24,39s-7.76-39.83-20-43C334,610,327,617,327,617Z"/><path class="cls-2" d="M365,654s-4-5-12-4-16,16-18,33,1,52,5,63c0,0-1,30,0,40s5,31,5,31l2-2s-8-46-2-70c0,0-11-28-5-61S350,652,365,654Z"/><path class="cls-2" d="M318,380s-46,6-51,12-15,37-14,58c.58,12.15,3-44,20-56C280.31,388.84,318,380,318,380Z"/><path class="cls-2" d="M256,452s2-9-28.89,8.28A20.16,20.16,0,0,0,222,464c-9,10-4,42-4,42s4-34,9-40C236.23,454.92,256,452,256,452Z"/><path class="cls-2" d="M129,625s21.22-.74,35,1c7.65,4.81,20,11.12,20,23v49s-5-45-10-55S151,628,129,625Z"/></g><g id="stand"><path class="cls-3" d="M392,832V449.15s54.36-10.83,87.59-10.83S561,449.15,561,449.15V831Z"/><path class="cls-4" d="M392,832V501.09l.56-53.28,58.35-8.3-.09,66.28,74.66-48.48,35.52,57V831s-20.09,9.7-84.18,9.7S392,832,392,832Z"/><polygon class="cls-5" points="392.56 827.59 392.07 501.29 439.24 602.1 446.36 689.13 477.73 714.67 458.23 841.04 412.34 837.88 392.56 827.59"/><path class="cls-3" d="M523.9,534.05l-3.24,51.37s16,6,20,17-6,136-6,136l8,38,1.81,32.18,3.58,1.26,2.61-30.44-9-42s6-113,6-130-22-28-22-28Z"/><polygon class="cls-3" points="504.13 524.88 487.22 580.16 504.63 599.15 513.5 667.42 518.64 601.26 510.96 580.16 504.13 524.88"/><polygon class="cls-5" points="482.02 721.97 468.23 838.1 480.38 838.14 484.38 838.14 487.02 742.84 482.02 721.97"/><polygon class="cls-4" points="424.21 712.08 418.67 757.97 433 784 436 809 438 786 428.17 759.55 424.21 712.08"/><polygon class="cls-5" points="498.52 747.91 504.33 709.45 502.17 683.13 491.55 676.06 498.52 747.91"/><polygon class="cls-5" points="507.29 732.25 515.59 839.07 500.17 840.25 507.29 732.25"/><polygon class="cls-3" points="495.02 456.12 504.52 500.03 531.53 450.41 495.02 456.12"/><polygon class="cls-3" points="561 449.15 543.29 481.04 561 514.27 561 449.15"/><polygon class="cls-3" points="419.07 469.37 419.07 521.59 440.43 534.65 441.62 590.43 453.48 541.77 425.79 509.53 430.54 449.4 419.07 469.37"/><polygon class="cls-5" points="471.68 628.21 481.18 688.34 455.86 685.18 449.53 609.22 471.68 628.21"/></g><g id="greens"><path class="cls-6" d="M551.07,806.2s-1.65-15.82,9.3-15.84,5.87,15,5.87,15,17.09-.79,16.39,4-7.24,11.3-7.24,11.3,18.4-4.51,16.91,1.87-21.63,9.36-21.63,9.36,58.27,4.79,22.06,5.89-19.41,1.46-34.57,1.74-19.73-2.67-23.14-8.76S547.84,827,547.84,827s-19.24-16.7-13-25.09S551.07,806.2,551.07,806.2Z"/><path class="cls-6" d="M401.26,834.71S389.4,799.9,379.9,799.9s2.37,18.2,2.37,18.2-9.49-10.29-15.82-4.75,18.2,17.41,18.2,17.41-39.56.79-26.11,4.75S401.26,834.71,401.26,834.71Z"/><path class="cls-6" d="M389.4,837.09s6.33-27.69,18.19-33.23.79,18.19.79,18.19,28.49-1.58,13.46,9.5S399.68,838.67,389.4,837.09Z"/><path class="cls-6" d="M421,851.39a70.3,70.3,0,0,0-12.64,1.47l2.42,5.35-16.05-.42c-7.71,4.78-5.05,10.39,20.38,9.86C457.87,866.75,448,850.72,421,851.39Z"/><path class="cls-6" d="M596.58,928.76l-18.68,9.15a12.86,12.86,0,0,1-8.65,1l-21.54-5.1a12.91,12.91,0,0,0-6.56.15c-18.27,5.3-29.91,13.29-29.91,22.23,0,16,37,28.88,82.68,28.88s82.68-12.93,82.68-28.88c0-14.92-32.39-27.19-74-28.71A12.85,12.85,0,0,0,596.58,928.76Z"/><path class="cls-7" d="M545.66,959.33,544.49,933c-20.18,5.27-33.25,13.68-33.25,23.15,0,16,37,28.88,82.68,28.88s82.68-12.93,82.68-28.88c0,0-15,19.39-58.55,24.14Z"/><path class="cls-7" d="M453.06,843.55c-23.11.94-16.48,11.12,6.6,9.9C486.55,852,476.17,842.6,453.06,843.55Z"/><path class="cls-6" d="M474.57,835.89c-23.11.94-16.48,11.12,6.61,9.9C508.06,844.38,497.68,834.94,474.57,835.89Z"/><path class="cls-6" d="M519.67,843c-23.11.94-16.48,11.12,6.6,9.9C553.16,851.5,542.78,842.06,519.67,843Z"/><path class="cls-6" d="M631.51,876.12l30.62,2.13a3.13,3.13,0,0,0,1-2.13c0-5.24-18.06-9.49-40.35-9.49s-40.35,4.25-40.35,9.49,18.07,9.5,40.35,9.5c4.12,0,8.09-.15,11.84-.42Z"/><path class="cls-7" d="M558.71,838.67s-15,.79-10.28-9.49,9.49,5.53,9.49,5.53,4.75-12.66,7.12-12.66.8,8.71.8,8.71,7.91-1.58,7.91,4S558.71,838.67,558.71,838.67Z"/><path class="cls-6" d="M398.1,764.3c4.36,2.07,11.12,14.22,14.24-.79C415.4,748.81,398.1,752.43,398.1,764.3Z"/><path class="cls-7" d="M398.1,734.23c-14.24-1.58-15,11.87-7.91,13.45S412.34,735.81,398.1,734.23Z"/><path class="cls-6" d="M440.81,773.58c-8.23,4.11-4.7,15.27,4.69,8.81S449,769.47,440.81,773.58Z"/><path class="cls-6" d="M407.59,731.07c-9.49-4-11.86,11.07-2.37,13.45S417.09,735,407.59,731.07Z"/><path class="cls-6" d="M385.44,722.72c-9.49,5.94,0,7.92,10.29,3.47S394.93,716.78,385.44,722.72Z"/><path class="cls-6" d="M446.86,825.81a3.42,3.42,0,0,0-3.55-4.39c-6.24.39-13.56,10.13-7.23,13.29S446.16,827.79,446.86,825.81Z"/><path class="cls-6" d="M438.45,800.69c-9.49-2.37-16.61,10.29-.79,14.24S448,803.07,438.45,800.69Z"/><path class="cls-6" d="M444,792.78c-5.54,4.75,3.16,13.45,11.08,6.33S449.53,788,444,792.78Z"/><path class="cls-7" d="M360.6,941.32l-6.41,7.33s-10.39-3-18-5c-6.63,1.49-11.94,3.74-14.71,6.86-14.44,16.24,65,23.46,81.2,7.22C412.44,947.9,386.17,941.39,360.6,941.32Z"/><path class="cls-6" d="M406.8,920.56l5.21-5.82c-12.82-.87-27.3.69-31.74,5.68-9.32,10.49,42,15.16,52.45,4.67,1.39-1.39,1.65-2.67,1-3.83Z"/><path class="cls-6" d="M133,847l23.71-1.85c-.93-6.32-34.61-8.47-41-1.27-4.15,4.67,7.48,7.83,19.46,8Z"/><path class="cls-6" d="M147.79,832c-1,1.08-1.08,2.07-.54,3l10.32-.64,2.12,5.18c10.3,1.32,23.77.38,28.1-4C195.79,827.54,154.9,824,147.79,832Z"/><path class="cls-8" d="M623.9,919.69s3.45,35.43-21.12,36.6-26.4-37.22-26.4-37.22l14.53,6.45,8-17.74L612,926.61Z"/><path class="cls-6" d="M853.4,816.24c-4.46,5,9.19,8.29,22,8.09l-.48-6.68,13.57,4.88a12.63,12.63,0,0,0,5.06-2.72C901.6,811.78,860.54,808.21,853.4,816.24Z"/><path class="cls-6" d="M842.68,808.08l8.58-2c-7-3.34-27.36-3.76-31.82,1.25-5.6,6.3,23.17,9.29,32,4Z"/><path class="cls-6" d="M634.14,800.69,650.41,802c5.31-6.17-26.28-8.83-31.84-2.58-3.53,4,7.36,6.56,17.52,6.37Z"/></g><g id="saprkles_2" data-name="saprkles 2"><line class="cls-9" x1="400" y1="274" x2="398" y2="415"/><line class="cls-10" x1="399.5" y1="146" x2="397.5" y2="244.87"/><line class="cls-9" x1="552.5" y1="317.5" x2="552.5" y2="431.5"/><polygon class="cls-11" points="525.2 409.83 525.2 342.42 518.36 355.24 518.36 422.89 525.2 409.83"/><line class="cls-9" x1="548.03" y1="134.49" x2="548.03" y2="211.64"/><line class="cls-9" x1="499.5" y1="249.5" x2="499.5" y2="190.5"/><line class="cls-9" x1="476.95" y1="171.29" x2="476.95" y2="80.13"/><polygon class="cls-11" points="437.66 229.44 437.66 108.44 431.73 122.63 431.73 236.56 437.66 229.44"/><line class="cls-9" x1="445.74" y1="343.37" x2="445.74" y2="417.69"/><line class="cls-10" x1="418.45" y1="217.57" x2="418.45" y2="291.88"/></g><g id="sparkle"><polygon class="cls-11" points="358.64 207.38 353.4 220.54 358.64 233.1 363.29 220.54 358.64 207.38"/><polygon class="cls-12" points="370.24 341.36 365 354.52 370.24 367.08 374.89 354.52 370.24 341.36"/><polygon class="cls-11" points="473.76 198.29 468.52 211.44 473.76 224 478.41 211.44 473.76 198.29"/><polygon class="cls-12" points="601.93 293.23 596.69 306.38 601.93 318.94 606.58 306.38 601.93 293.23"/><polygon class="cls-11" points="510.72 119.56 502.54 132.71 510.72 145.28 517.97 132.71 510.72 119.56"/><polygon class="cls-11" points="568.83 228.65 561.29 247.57 568.83 265.64 575.52 247.57 568.83 228.65"/><polygon class="cls-11" points="413.48 76.44 406.74 93.35 413.48 109.5 419.46 93.35 413.48 76.44"/></g><g id="glow"><circle class="cls-13" cx="474.85" cy="303.02" r="100.48"/></g><g id="gem"><path class="cls-14" d="M477.88,269.79,427.37,311.2l.79,3.95,49.72,33.76S478.14,269.79,477.88,269.79Z"/><polygon class="cls-15" points="477.88 269.79 456.12 314.36 456.38 317 477.88 348.91 477.88 269.79"/><polygon class="cls-15" points="432.91 317.53 461.13 317.79 435.55 319.11 432.91 317.53"/><path class="cls-14" d="M478.13,269.79l50.5,41.41-.79,3.95-49.71,33.76S477.86,269.79,478.13,269.79Z"/><polygon class="cls-15" points="478.13 269.79 499.89 314.36 499.62 317 478.13 348.91 478.13 269.79"/><polygon class="cls-15" points="523.1 317.53 494.88 317.79 520.46 319.11 523.1 317.53"/><polygon class="cls-15" points="427.37 311.2 478.13 269.79 435.55 319.31 428.17 315.15 427.37 311.2"/><polygon class="cls-15" points="478.13 269.79 528.63 311.2 527.84 315.15 523.1 317.53 478.13 269.79"/></g><g id="legs_under_water" data-name="legs under water"><path class="cls-16" d="M285,921.22l-5.15,75.69-23.34,2c-9.89-24.53-7.7-76.94-7.7-76.94Z"/><path class="cls-17" d="M238.27,935.46,233.53,985l-23.74.8c-9.89-24.53-5.54-49.85-5.54-49.85Z"/><path class="cls-18" d="M703.24,919.37v6.33s-3.16,4.75-3.16,6.33,3.16,6.86,3.16,6.86L708,997.44l28.48-2.11s1.58-52.75,2.11-60.66a135.4,135.4,0,0,0,0-15.82S710.1,923.07,703.24,919.37Z"/><path class="cls-19" d="M753.35,918.32s-.53,15.82,1.06,18.46,9,58.55,9,58.55H790.8s0-59.08.53-64.88l1-11.6S759.68,920.43,753.35,918.32Z"/></g><g id="waves"><path class="cls-1" d="M386.63,859.3s-12.64,3.5-33.51,4.25S351.73,871,374,871.79c0,0-20.57,5.84.77,8.83S452.52,877,452.52,877s25.36,17.34,70.19,13.83c30.11-2.35,43.25-9,43.25-9s-12.53,14.48-50.1,14.48a168.61,168.61,0,0,1-67.52-14.8s-71.56,12.75-96.61,10.5,1.39-18,1.39-18-30.62-8-8.35-11.73A230.74,230.74,0,0,1,386.63,859.3Z"/><path class="cls-1" d="M630.16,824.63s10,14.46-11.8,17.26-51.65.91-51.65.91-6.48,15.9-37.53,15.91-46.45-5-46.45-5,10.11,13.51,58.58,12.88,33.33-17.31,33.33-17.31S662.05,848.9,630.16,824.63Z"/><path class="cls-1" d="M819.34,835.08s0,3.47,13.85,4.33S854,834.22,854,834.22s9.53,13.85,45.9,9.52,7.79-21.64,7.79-21.64,45,19.91-.87,28.57S854,842.88,854,842.88,836.66,857.6,819.34,835.08Z"/><path class="cls-1" d="M681.35,983.07s-30.86,14.24-68.83,13C612.52,996.12,667.11,1006.8,681.35,983.07Z"/><path class="cls-1" d="M403.79,970s-19.33,15.82-40.43,8.79c0,0-21.38,7.91-40.43-6.15,0,0,7,14.94,40.43,11.42C363.36,984.07,399.4,995.5,403.79,970Z"/><path class="cls-1" d="M146,977.4S231.42,973,231.42,979s-23.34,13.45-23.34,17,26.37,6.59,26.37,14.5-29.93,10.69-30.72,4.75c-.27-2,16.82-4.48,17.8-5.54,1.88-2-9.1-4.35-9.1-4.35s-43.43-5.75-34.55-8.57c8.7-2.77,33.36-12.13,27-15.3C199.56,978.81,146,977.4,146,977.4Z"/><path class="cls-1" d="M73.7,847.37s0,9.77,30.07,7.12c0,0-11,10,6.33,12.66s52.22-4.74,52.22-4.74S140.42,876,108,872.07s-15.5-12-15.5-12S57,859.28,73.7,847.37Z"/><path class="cls-1" d="M693.22,917.26c.83-.08-8.44,1.06-6.07,4.49s33.76,5,44.84,3.16c0,0-15.83,4.49-32.7,2.9S668.69,919.64,693.22,917.26Z"/><path class="cls-1" d="M795.68,907.9s13.06,4.35,17,5.94-10.28,4.74-10.28,4.74,7.45,4.62,22.15-3.16C831.29,911.86,795.68,907.9,795.68,907.9Z"/><path class="cls-2" d="M821.4,930.45c-.93-.4-26.11,11.08-80.66,6.59C740.74,937,806.63,952.6,821.4,930.45Z"/><path class="cls-2" d="M685.31,947.65s54.07,7.52,105.23,5.75C790.54,953.4,716,961.31,685.31,947.65Z"/><path class="cls-1" d="M728.82,934.41s-57,1.58-63.29-6.33C665.53,928.08,689.26,945.48,728.82,934.41Z"/><path class="cls-1" d="M134.36,962.1s-14.24,5.79,5.67,7.38c9.89.79,27.3,1.19,27.3,1.19s-30.42,3.31-43.12-.4C114.71,967.51,120.91,964,134.36,962.1Z"/><path class="cls-2" d="M247.64,951s-3.26,1.26.59,3c2.68,1.19,15.6,1.63,28.29,1.78C265.5,957.29,213.55,961.56,247.64,951Z"/><path class="cls-1" d="M300,990.06s-30.3,5.3-43.17-.75c0,0,32.28,2.08,39.95-1s1.14-5.39,1.14-5.39S325.41,984.48,300,990.06Z"/><path class="cls-2" d="M287.3,932.41a39.31,39.31,0,0,1-15.68,4.1c-9.45.58-17.8.44-17.8.44s9.71,6,37,1.69S287.3,932.41,287.3,932.41Z"/><path class="cls-2" d="M292,959.4s14,6-20.77,8.11c-35,2.17-76.75,0-76.75,0s26.11,6.33,69.63,4S303.09,959.59,292,959.4Z"/><path class="cls-1" d="M289.7,917s19.78-.26,22.68,1.58-4.48,4.22-4.48,4.22,22.47-1,11.87-4.75C310.8,914.89,289.7,917,289.7,917Z"/><path class="cls-1" d="M181.7,922.14s-60.13,1.59-49.45-3.56a45.47,45.47,0,0,1,21-4.35s-17.41,3.17-9.89,5.14S181.7,922.14,181.7,922.14Z"/></g><g id="M_legs" data-name="M legs"><path class="cls-12" d="M711,748.47c-3.79,9.55-10.7,33.7-4.75,45.5s62.83,41.15,81.37,8.57c7.8-13.71.79-47.82-5.95-57.37S714.81,738.92,711,748.47Z"/><polygon class="cls-20" points="787.37 757.18 790.54 772.6 781.04 765.88 741.09 771.81 706.93 763.24 747.81 760.74 787.37 757.18"/><path class="cls-12" d="M703.9,782.1c-.79,9-.92,4.88-1.45,41.27-.46,31.76-.79,90.47-.79,90.47s5,.79,17.14,1.84a56.61,56.61,0,0,0,20.84-1.84s1.05-38.77.79-65.68c-.11-11.08,11.6-27.42,10.55-48S704.69,773.13,703.9,782.1Z"/><path class="cls-11" d="M702.71,812.56l-.26,10.81c-.46,31.76-.79,90.47-.79,90.47l8.18.79,5.8-45.89Z"/><path class="cls-12" d="M743.59,825.48s6.33,59.61,6.86,69.1a135.12,135.12,0,0,0,2.64,19l15.29.53,23.74-.26s-3.16-44.31-4.75-58.55,11.48-61.32-.39-72S741.48,790.14,743.59,825.48Z"/><polygon class="cls-11" points="751.77 824.43 754.41 802.01 744.65 832.34 751.24 902.16 753.15 913.57 758.89 914.1 749.4 845.53 751.77 824.43"/><path class="cls-20" d="M754.14,802.41S772,797.13,783,795.55C783,795.55,756.78,797.13,754.14,802.41Z"/></g><g id="Layer_25" data-name="Layer 25"><path class="cls-21" d="M771.29,646.67c1.58-10.55,10-19,18.46-5.27s5.44,19.15,8.3,24.59c2.19,4.15,4.55,14.49,5.35,22.35,1.27,12.64,6,24.79,2.7,31.12-5.28,10-18.46-.53-24.26-19.51C776.39,682.11,769.7,657.22,771.29,646.67Z"/><path class="cls-21" d="M785.53,708.38s-20,7.39-21.1,20,26.9,1.05,35.34-2.11S813,703.11,785.53,708.38Z"/></g><g id="M_torso" data-name="M torso"><polygon class="cls-22" points="733.55 611.05 736.38 637.83 767.45 639.79 763.64 610.46 733.55 611.05"/><polygon class="cls-21" points="737.42 611.6 739.58 638.29 767.45 639.79 764.46 610.58 737.42 611.6"/><path class="cls-23" d="M704.3,647.2c10.55-12.4,22.15-17.94,45.36-18.46s30.59,3.42,33.76,4.74,12.66,10,6.33,67c-3.66,32.92-2.38,56.71-2.38,56.71l-47.21,7.12-33.23-1.06S693.75,659.59,704.3,647.2Z"/><path class="cls-24" d="M704.3,647.2c10.55-12.4,22.15-17.94,45.36-18.46l-25.58,11.34L735.55,722l-11.47,23.34L715,757.57l3.16,6.33-11.21-.66S693.75,659.59,704.3,647.2Z"/><ellipse class="cls-21" cx="716.36" cy="674.3" rx="15.23" ry="31.05"/></g><g id="M_left_arm" data-name="M left arm"><path class="cls-21" d="M727.24,660.91c.53-5-4.75-20.31-13.45-18.46s-15.56,12-15.82,19.39,5.1,20.23,3.16,41c-1.84,19.78-1.45,25.84,2.51,29.8s18.72,5,22.41-7.91S726.71,665.92,727.24,660.91Z"/><path class="cls-22" d="M704.69,669.75c.53-5,17.8-29.15,9.1-27.3s-15.56,12-15.82,19.39,5.1,20.23,3.16,41c-1.84,19.78-1.45,25.84,2.51,29.8S711.81,705,711.81,705,704.16,674.76,704.69,669.75Z"/></g><g id="left_hand" data-name="left hand"><path class="cls-22" d="M681.16,789.44s3.37,9.84,5,14.38-3.66,12.44-8.83-3C672.25,785.77,681.16,789.44,681.16,789.44Z"/><path class="cls-21" d="M686.49,782.1s-4,10.68-5.53,15,0,12.27,0,15.43,2.77,8.7-.8,8.7a7.54,7.54,0,0,1-5.53-2.37l-5.15-.79-2.37-5.94s-3.16-.39-3.56-3.16-3.56-5.93-2.77-12.66,8.7-18.2,13.45-20.57S686.49,782.1,686.49,782.1Z"/></g><g id="M_left_foirearm" data-name="M left foirearm"><path class="cls-21" d="M707.46,719.2a21.18,21.18,0,0,0-8.31,4.35c-4.35,3.56-16.61,36.4-24.13,51.82-4.9,10.06,4.35,17.41,15.43,5.94s32-42.73,34-51.83S717.75,715.64,707.46,719.2Z"/><path class="cls-22" d="M709.57,718.54a29.84,29.84,0,0,0-10.42,5c-4.35,3.56-16.61,36.4-24.13,51.82-4.9,10.06,21.36-41.14,21.36-41.14Z"/></g><g id="M_head" data-name="M head"><path class="cls-22" d="M766.15,563.56s-35-16.21-42.61,2.73c-6.91,17.29-6.1,38.24-5.27,44.29.9,6.51,7.66,7.12,14,7.65,6.11.52,30.66,1.64,33.35-8.2S776.91,571.76,766.15,563.56Z"/><path class="cls-21" d="M767.55,563.32s-31.48-12.5-40.7,2.6-5.7,36.42-4.91,42.19c.85,6.2,9.56,8.43,15.59,8.94,5.82.48,24.86,4.81,27.43-4.56S777.79,571.13,767.55,563.32Z"/><path class="cls-25" d="M724.38,562.43s2.47,2,13.94,3.42l6,24.36s-2.09,6.27-1.69,9.41,7.52,20.15,7.52,20.15,18.28,2.61,20.57-4.22,7.25-36.95,5-48.3-39.67-10.45-43.63-10.45C724.78,556.8,724.38,562.43,724.38,562.43Z"/><path class="cls-21" d="M736.69,587.35s4.24-12,10.58-9,.43,21.5-7.61,20.64S736.69,587.35,736.69,587.35Z"/><ellipse class="cls-1" cx="739.66" cy="597.89" rx="2.33" ry="2.37"/></g><g id="M_eyes" data-name="M eyes"><path class="cls-26" d="M724.4,579.56c-.61,1.67-1.77,2.75-2.58,2.44s-1-1.89-.4-3.56,1.78-2.81,2.61-2.5S725,577.88,724.4,579.56Z"/><line class="cls-27" x1="724.1" y1="570.32" x2="727.94" y2="572.85"/></g><g id="S_torso" data-name="S torso"><path class="cls-26" d="M244.87,868.74l-4.22,43.78-23.74,1.58S222.71,869.26,244.87,868.74Z"/><path class="cls-26" d="M247.64,877.18l5.8,27.42-1.06,13.19H285l1.58-24.26s.92-19.91.79-27.56S247.64,877.18,247.64,877.18Z"/><path class="cls-12" d="M265.7,719.73c11.87,6.85,14.77,20.7,15.3,24.39s-.79,16.48-14.24,33.23c-9.75,12.14-47.08,19-40.75-41.93C228,716,253.84,712.87,265.7,719.73Z"/><path class="cls-12" d="M262.8,773.4c4.75,11.07,24.53,60.52,26.9,74s6.6,39.56,6.6,39.56-46.16,4-76.22-2.37-32.84-10.29-32.84-10.29,22.16-53.4,30.86-83.07S258.05,762.32,262.8,773.4Z"/><path class="cls-20" d="M258.05,780.12c2.32,5.4,15.57,50.9,15.57,50.9l-5.28,3.43s-.1,14.63.53,18.2l3.62,35.27s-22.35,3-52.41-3.36-32.84-10.29-32.84-10.29,22.16-53.4,30.86-83.07S253.31,769,258.05,780.12Z"/></g><g id="S_right_hand" data-name="S right hand"><path class="cls-28" d="M315.56,845l3.07,5.57s.58.57,1.16,4.42,4,2.69,3.65-2.12a5.87,5.87,0,0,1,1.73,2.5c.19,1.15,2.11,4.61,2.88-.77S320.94,841.74,315.56,845Z"/><path class="cls-28" d="M306.05,843.68a38.82,38.82,0,0,1,3.57,4.81c.59,1.32,2.68,4.77,4.22,3.24.65-.66-.14-3-.66-5.41l-1.59-7.39S305.26,839.2,306.05,843.68Z"/><path class="cls-29" d="M300,842.23s2.37,6.73,8.44,7,6.92-1.24,8.7-.79a18.68,18.68,0,0,1,11.34,8s2.24,1.45,1.85-.79a49.49,49.49,0,0,1-.53-5.41l-1.91-4.68s-9.89-8.9-14-9C307.5,836.36,300.65,837.09,300,842.23Z"/></g><g id="S_right_forearm" data-name="S right forearm"><path class="cls-29" d="M302.69,845.48c-2.74-1.57-25-35-32-46s-7.14-16.41-3.14-20.41,13.64-5.53,17.93,2.63c12.07,22.95,21.37,42.2,23.21,52.49C309.93,841.08,309.69,849.48,302.69,845.48Z"/><path class="cls-28" d="M296.3,836.56s-18.61-26.08-25.61-37.08-7.14-16.41-3.14-20.41c1.19.66,14.64,24,14.64,24Z"/></g><g id="S_right_arm" data-name="S right arm"><path class="cls-29" d="M279.94,759c5,29.54,3.76,31.34-3.95,35.34s-14.77.53-15.87-34.65C259.71,746.67,277.14,742.53,279.94,759Z"/><path class="cls-28" d="M273.88,759.29s2.7,21.1,3,32.7c.13,5.67-3.33,4.38-5.54,4.35-1.16,0-10.11-1.2-11.19-36.63C259.72,746.67,271.08,742.79,273.88,759.29Z"/><path class="cls-15" d="M267.11,715.71c6-1,9.48,2.09,11,15a265.43,265.43,0,0,1,2,28l-20,3s-2-16-2-26S261.11,716.71,267.11,715.71Z"/><path class="cls-14" d="M267.11,715.71c6-1,3.87,22.74,3.87,22.74l2.9,21.36-13.77,1.9s-2-16-2-26S261.11,716.71,267.11,715.71Z"/></g><g id="S_cape" data-name="S cape"><path class="cls-24" d="M249.88,713.4c17.93-2.11,25.85,5.27,25.85,5.27,1.59,2.12-7.3,8-11.35,17.14-3.06,7-1.14,17.4-2.37,20.31-3.75,8.9-.45,28.19.53,41.14,4.22,55.92-6.07,72.27-6.86,86.51s4.85,73.49-22.15,81.49c0,0-75.88-2.68-100.88-10.68,0,0,32.83-34.42,32.83-61.32s24.65-43.07,31.65-83.07c2.84-16.23,10.29-62.9,9.5-73.59S232,715.51,249.88,713.4Z"/><path class="cls-23" d="M249.88,713.4c17.93-2.11,25.85,5.27,25.85,5.27,1.59,2.12-7.3,8-11.35,17.14-3.06,7-35.6,49.06-35.6,49.06l-30.86,88.61-32.44,19.78c0-26.9,24.65-43.07,31.65-83.07,2.84-16.23,10.29-62.9,9.5-73.59S232,715.51,249.88,713.4Z"/><path class="cls-24" d="M254.07,709.76s10.28,6,11.3,12-29.87,39.94-35,43.36-34.87-22.83-40-28,5.06-11.21,10.2-18S226.32,703.78,254.07,709.76Z"/><path class="cls-23" d="M256.11,710.09l-29.87,26.07s-26.66,1.57-27.62-.9,10-17.76,10-17.76S228.36,704.1,256.11,710.09Z"/><path class="cls-30" d="M251.48,714.23s-35.56,0-40.08,3.76-9.36,13.57-11,16.27,16.95,3.3,21.83,2.94S251.48,714.23,251.48,714.23Z"/></g><g id="S_head" data-name="S head"><path class="cls-29" d="M235.64,664c2-6,17-10.65,27.95-1.24,9.5,8.17,13.23,29,9.23,38s-16.69,9.12-27.69,7.12S233.64,670,235.64,664Z"/><path class="cls-28" d="M233,664c2-6,17-10.65,28-1.24,9.49,8.17,13.23,29,9.23,38s-16.7,9.12-27.7,7.12S231,670,233,664Z"/><path class="cls-12" d="M246,655.33s5-.13,7.11,3.82,5.48,18.86-4.29,28.12C248.78,687.27,252.22,665.17,246,655.33Z"/><path class="cls-25" d="M239,653a53.14,53.14,0,0,0-19,2c-10,3-21,15-17,23s8,9,8,9-7-4-11,6,9,14,9,14-4,8,6,12,24-3,24-3,27.77,2.79,25.38-14.6S247,689.53,247,689.53s5.4-23.87,2.64-29.94S239,653,239,653Z"/><path class="cls-26" d="M236.36,653.53a53.14,53.14,0,0,0-19,2c-10,3-21,15-17,23s8,9,8,9-7-4-11,6,9,14,9,14-4,8,6,12,24-3,24-3,27.77,2.79,25.39-14.61-17.41-11.87-17.41-11.87,5.41-23.86,2.64-29.93S236.36,653.53,236.36,653.53Z"/><path class="cls-28" d="M253,681s-3-6-8-2-1,12,6,12S253,681,253,681Z"/></g><g id="bangs"><path class="cls-25" d="M244.74,663S255,655.42,254.62,651s-9.67-2.71-10.4-.85c0,0,11.05-11.78,3.6-14.7s-12.35,12.35-13.4,20.53S244.74,663,244.74,663Z"/><path class="cls-26" d="M241.57,663s10.29-7.61,9.89-12.06-9.68-2.71-10.41-.85c0,0,11.06-11.78,3.61-14.7s-12.35,12.35-13.4,20.53S241.57,663,241.57,663Z"/></g><g id="S_eyes" data-name="S eyes"><ellipse class="cls-25" cx="265.7" cy="671.63" rx="1.25" ry="2.88" transform="translate(-172.94 97.81) rotate(-15.81)"/><path class="cls-31" d="M262.46,665.55a2.22,2.22,0,0,0-2,2"/></g></svg>