<svg xmlns="http://www.w3.org/2000/svg" viewBox="0 0 960 1080"><defs><style>.cls-1{fill:#f3e7d9;}.cls-2{fill:#f5eade;}.cls-3{fill:#856792;}.cls-4{fill:#f5894e;}.cls-5{fill:#f7bc4b;}.cls-6{fill:#ce9436;}.cls-7{fill:#665070;}.cls-8{fill:#121721;}.cls-9{fill:#a96443;}.cls-10{fill:#7a462f;}.cls-11{fill:#1689cb;}.cls-12{fill:#29abe2;}.cls-13{fill:#3e4c6f;}.cls-14{fill:#48598b;}.cls-15{fill:#1d2538;}.cls-16{fill:#273252;}.cls-17,.cls-20,.cls-22{fill:none;}.cls-17{stroke:#273252;}.cls-17,.cls-22{stroke-linecap:round;stroke-linejoin:round;}.cls-18{fill:#cc6d3d;}.cls-19{fill:#feed7f;}.cls-20{stroke:#992c29;stroke-miterlimit:10;stroke-width:0.75px;}.cls-21{fill:#34283a;}.cls-22{stroke:#34283a;}</style></defs><title>31_plan</title><g id="shadow"><path class="cls-1" d="M235.11,632.6C184.35,626.36,52.34,508,52.34,508l97.32,26.56L161.53,512s337.45,54,307,64c-15.63,5.12-155.08,30-155.08,30S259.82,635.63,235.11,632.6Z"/><path class="cls-1" d="M540.07,660.33c-8.89.95-12.22-11.31-4.07-15,97.52-44,283.55-95.47,304-95.47,26.11,0,20.17,34.42,20.17,34.42s22.55-11.87,48.66-13.06-26.11,47.47-51,70S809.13,693.48,796.08,697s-68.84-59.34-68.84-59.34l-57,8.77Z"/></g><g id="sand"><path class="cls-1" d="M255.26,823.8s-10.13-56.39-53.32-54.66-49.28,65.07-49.28,65.07S198.56,872.38,255.26,823.8Z"/><path class="cls-1" d="M673.76,780.64c-3.49-7.64,30.71-27.08,48-30.34s14.52,8.51,17.7,20c1.37,5,2.27,9.22-1.57,11C725.35,787.19,681.78,790.94,673.76,780.64Z"/><path class="cls-1" d="M520.23,778.58s9.18-34.61,39.35-38.94,44.61,44.71,24.93,46.15S537.28,794.44,520.23,778.58Z"/><path class="cls-1" d="M592,777.14c-7.85,0-13.46,14.42,9,10.09S599.89,777.14,592,777.14Z"/><path class="cls-1" d="M579,973.39s23.14-52.06,54.39-58,40.5,16.36,47.44,29.74c3.74,7.22,12.73,28.26,0,28.26Z"/><path class="cls-1" d="M588.26,970.42S545.44,971.9,542,986.78s59,20.82,71.75,14.87-2.32-16.36-2.32-16.36S655.37,974.88,588.26,970.42Z"/><path class="cls-1" d="M697,980.83c-4.63,0-23.14,16.36,12.73,13.38s25.46-8.92,12.73-11.89S701.66,980.83,697,980.83Z"/><path class="cls-1" d="M690.09,1009.09c-5.79,0-27.77-4.46-28.93,4.46s23.14,7.44,34.72,6S695.88,1009.09,690.09,1009.09Z"/><path class="cls-1" d="M623,1007.6s-45.13,1.49-26.61,11.9S643.8,1016.53,623,1007.6Z"/><path class="cls-1" d="M528.08,778.58s-24.68-1.44-18,5.77S548.28,791.56,528.08,778.58Z"/><path class="cls-1" d="M621.33,794s29.21-8,29.21-3.34-8.21,3-8.21,3,43.83,5,24.65,11.08S583,807.4,621.33,794Z"/><path class="cls-1" d="M135.11,823.8c-20.17,2.25-17.55,19.09,10.8,19.09S166.16,820.33,135.11,823.8Z"/><path class="cls-1" d="M187.76,832.48s-36.45,10.41-8.1,15.61,41.85,0,41.85,0-47.25,10.41,18.9,12.15,62.1-34.7,13.5-34.7S187.76,832.48,187.76,832.48Z"/><path class="cls-2" d="M514.39,895.8c-.21-.15-.75-.37-.72-.17l.84.54C514.47,896.06,514.43,895.92,514.39,895.8Z"/><path class="cls-2" d="M512.3,895.86a5.6,5.6,0,0,0,1.83,1.32c-.75-.63-.38-.47-1.29-1.17,0-.18.39-.06.71.13-.2-.16.3-.11-.22-.46-.78-.17-.9,0-.46.51A3.05,3.05,0,0,1,512.3,895.86Z"/><path class="cls-2" d="M502.23,902.93l.11.08S502.26,902.93,502.23,902.93Z"/><path class="cls-2" d="M495,903.43a.26.26,0,0,0,.1-.21A.28.28,0,0,0,495,903.43Z"/><path class="cls-2" d="M494,902.22l.05.07C494,902.2,494,902.14,494,902.22Z"/><path class="cls-2" d="M502.23,902.93l-.29-.22C502,903,502.12,902.9,502.23,902.93Z"/><path class="cls-2" d="M513.33,898.73a.72.72,0,0,0-.14-.25,1,1,0,0,1,0,.16Z"/><path class="cls-2" d="M504.65,900.77l.05,0-.19-.36Z"/><path class="cls-2" d="M506.44,899.21a7.48,7.48,0,0,0,.71.95,1.56,1.56,0,0,1-.3-.52C506.75,899.52,506.61,899.38,506.44,899.21Z"/><path class="cls-2" d="M510.17,897.28l-.05-.13S510.15,897.23,510.17,897.28Z"/><path class="cls-2" d="M503.11,901.46l-.15-.26Z"/><path class="cls-2" d="M432.62,899.19l.14,0C432.68,899.15,432.62,899.16,432.62,899.19Z"/><path class="cls-2" d="M436.13,895l0,0h.48Z"/><path class="cls-2" d="M492.17,900.76h0C492.25,900.69,492.22,900.7,492.17,900.76Z"/><path class="cls-2" d="M470,892.79c.34.74-.44,1,.06,1.81C470,894.27,470.38,893.26,470,892.79Z"/><path class="cls-2" d="M513.2,898.74a.36.36,0,0,1-.07.1C513.19,898.81,513.21,898.78,513.2,898.74Z"/><path class="cls-2" d="M470,894.6h0l.05.08Z"/><path class="cls-2" d="M487.55,899.37a2.54,2.54,0,0,0-.13.34A1.61,1.61,0,0,0,487.55,899.37Z"/><path class="cls-2" d="M490.49,902l-.05-.14A.21.21,0,0,0,490.49,902Z"/><path class="cls-2" d="M485.15,899.32c0-.08,0-.19-.1-.13l0,.1C485.1,899.2,485.16,899.18,485.15,899.32Z"/><path class="cls-2" d="M483.2,898.11l-.06.17h.09Z"/><path class="cls-2" d="M438.45,906.67a4,4,0,0,1,.3-.71C438.46,906.48,438,906.38,438.45,906.67Z"/><path class="cls-2" d="M512.94,898.47c.17.13.24.21.26.27s0-.07,0-.1A1,1,0,0,0,512.94,898.47Z"/><path class="cls-2" d="M481.58,904.94l-.26-.31A.66.66,0,0,0,481.58,904.94Z"/><path class="cls-2" d="M457.93,905.79l0,.14S458,905.89,457.93,905.79Z"/><path class="cls-2" d="M480.31,904.15a1.72,1.72,0,0,0,.14-.6,1.2,1.2,0,0,0-.15.16Z"/><path class="cls-2" d="M438.75,906h0Z"/><path class="cls-2" d="M434.87,905.15c.32.42,1-.54,1.51-.88.63.18-.41.74-.67,1.28.49.08,1.39-.47,1.54-.26-.1.15-.11.24-.31.37.85-.41.95.68,1.93,0a1.57,1.57,0,0,1-.12.26,10.68,10.68,0,0,1,.81-1.3c.16.09.64-.39.31.26-.08-.08-.24.16-.41.32l.33-.16c-.4,1-.42.16-.84.79.54,0,1.36-.6,1.47-.2-.42.93-.79,0-.87,1l-.23-.57c-.5,1.56-.22-.25-.8,1.4.5.61,1-.07,1.45.51.37-.44.31-.78.67-1.23,1.18-.61-.26,2.64.88,1.61.4-.58.82-1.79,1.06-1l-.47,1c.6.3.76-1.51,1.18-.63-.2.42-.54.28-.49.43.21,1,.44-.58.73-.52l-.13,1a3.5,3.5,0,0,0,1.09-.34,5.08,5.08,0,0,1,1.06-.47,1.48,1.48,0,0,0-.06.93,1.57,1.57,0,0,1,1.37,0,6.62,6.62,0,0,1,1.36.72l.26-.9c.07,0,.17.39.1.57.35.31,0-.56.1-.92.17-.07.28.5.19.77.53-.76,1.36-1.82,2.12-1l-.07.27c.55.28.14-1.85.72-1.16l0,.18a4.05,4.05,0,0,0,1.46-.3,1.46,1.46,0,0,1,1.53.3c-.34-1.23,1.16.15.49-1.51.86.57.85.92,1.84,1.1.23,0-.21-1.12-.09-1.41l.44.81-.16-1,.7.88.09-.32c-.11,0-.38-.27-.5-.51.11-.54,1.1.12,1.36.52l.32-1.12a1.41,1.41,0,0,1,.15.77c-.11-1.05.59.78.49-.18a2.74,2.74,0,0,1-.36-.64.61.61,0,0,0,1-.28l.3.57c.59-.2.91-1,1.43-1.32-.36-.11-.93-1.06-.83-1.25l.61.76c-.24-.57-.37-.19-.58-.94.26,0,.75.83.82,1.17l.05-.45a6.44,6.44,0,0,1,.4.72c-.24-.57,1,.53.51-.43l.17.23c.5-.31.56-.76.93-1-.44-.73-.18-.66-.41-1.32.44.06,1.11.41,1.41.19.05-.5-.26-.67-.38-1.17.38.67.7.42.76,1a2.23,2.23,0,0,0,.75-1.2c-.17-.27-.3-.36-.36-.62s.36.2.48.55V900c0-.33.22-.4.43-.35a2.36,2.36,0,0,1,.71.47c.49.39.85.71.91-.1v.08c.11-.3.22-.6.35-.9.26.09,0,.59.21,1,.15-.67.39-.69.6-.6s.42.23.62-.21c.25,1.14.51,1,.83.92s.67-.34.82.39l0-.53c.16-.52.11.31.18.43,0-.41-.08-.48,0-.77a1.32,1.32,0,0,1,1.5.47c.43.5.77,1,1.16,1.48.28.27,1.24-2.48,1.23-1.11l-.53.85c1.25-.75,1.51.77,2.77.33-.16.18-.31.43-.38.39-.2.71.59.37.9-.12.09.13-.25.47-.32.78s.9-.53.62.14a.44.44,0,0,1-.23.19c.29-.23.46.39.8-.38.09.53.79.06.78.64.66-.69.3.71,1.05-.37-.75,1.14,0,1.29.54.88-.28.3,0,.47-.42.9.25.14.6.06.92-.56-.38,1.66,1.58-.59.79,1.36a11.83,11.83,0,0,1,2.92-.19c-.62,1.21-.83-.28-1.45,1,.94-.12,1.84-1,2.39-.4.1.25-.34.49-.49.67.91-.18,1.37.7,2.28.24a.75.75,0,0,1-.26.3c.14,0,.24.29.42-.3l-.18.12c.09-.92,1.09-1.6,1.23-2.05-.74,1.63.5.61-.48,2.65a1.38,1.38,0,0,0,.41-.74c.09.15.07.39-.19.8.58-.19.57-.87,1-.75a5.27,5.27,0,0,1-.32.71c.37-.51.71-1,1-.69-.06.17-.07.41-.18.38.66.08,1.34-1.34,1.91-.67-.38,1.25.17.46.07,1.57l.42-.27-.09-.57c.32.08.67-.74.92-.35l-.28.45.62-.18-.31-.45c.36-.56.07-1.41.45-1.08-.09.11.29,0,.43.7h0c.17-.35.32-.72.54-.43.06.36-.06,1.24,0,1.48.16-.91.76-.28.92-1.29a3.8,3.8,0,0,0,0,1l.1-.77a1.2,1.2,0,0,1,.18.82c.45.12-.21-1.41.34-.83,0,.07,0,.18-.09.3.56.28,1-.51,1.48-.24.29,1.09-.39.35-.11,1.26.73-.33,1.26-1.57,2-1.45l-.15-.09c-.28-1.57.67.63.83-.19a2,2,0,0,0,.1.7c.53.09.86-.61,1.32-1.36l.06.42c.38.24.75-.08,1.11,0-.08-.4.1-.41-.24-.91.9.9,1.18.37,1.38-.14s.35-1,1.19-.44c-.08.06,0,.44.06.39l.38-.7c-.42-.55-.31-.3-.72-.68-.15-.39-.17-.76,0-.84,0,.54.62.92.95,1.16-.14-.16-.23-.38-.36-.55,1,.82-.75-1.17.11-.75l.19.31c0-.26-.13-.74.07-.77.55.58.09.41.47.94.2-.21-.52-1.52.16-1,.06.24-.07.34,0,.59.79.57.68.36.93.35h0l.65,0-.26-.12c-1.12-1.8.27-.77-.34-2.07.58,1.23.46.59,1.07,1.27.26.1.59.18.73.4-.34-.68.7.14.15-.85.22.19.19-.16.68.39,0-.38-.41-.3-.66-.57-.44-1,1.64,0,1-1.38-.08-.78-.81-1.46-.93-2.13a1.62,1.62,0,0,1,.78.74c.51,0,.57-.18.44-.57a1.73,1.73,0,0,0,.7.39c.06-.22-.8-.72-.3-.7a8.48,8.48,0,0,1,.87.83c-.09-.37-.41-.87-.5-1.22.47.22.57.54.8.8a1.51,1.51,0,0,0-.64-1.37h-.34c0-.1.62.31.71.45.41.55-.42.16-.68,0l-.07-.25c-1.54-.75-.14.72-.42,1l-1-.82.66.88c-.31-.13-.91-.49-1-.73-.64-.17.24.43-.44.19a.35.35,0,0,1-.17-.13l.16.4c-.18-.19-.72-.5-.5-.5-.8-.11.35,1.1-.49.63l0-.08c0,.7.68.61,1.23,1.65-.64-.41-1.28-.82-1.91-1.24l.66.64c-.06,0-.2.06-.45-.2.32.58.32.24.67.73-.81-.36-.26.85-1.35-.11.42.56.57.17.71.73-1.18-1-.06.45-.76.11-.51-.64,0-.49-.72-.84.83,1.1-.56.11-.53.44.73.82,0,.65-.08,1.14-.22-.3-.89,0-1.38-.18l-.1-.15c.6.92.19.94.11,1.27a2.94,2.94,0,0,1-.52-1.11l-.18.13a1,1,0,0,1,.14.7l-.4-.72c-.2.2,0,1.16-.6.85.34.69,1.35,1.7,1.19,2.37a3.69,3.69,0,0,1-.55-1.17c0,.06,0,.36-.11.24l-.18-.69c-.31-.19.19.55,0,.57-.28-.53-.29-.32-.49-.75,0-.07.22.16.16-.07a1.39,1.39,0,0,1-.78-.61c.17.29.36.71.29.83-.24.18-.4-.59-.68-.78.12.4-.23.08.13.88-.08,0-.27-.34-.39-.54,0,.41-.61.36-.1,1.17l.06,0a.09.09,0,0,1,0,.05h0c-.08.5-.38.51-.7.42s-.65-.27-.85,0l-.08-.29c-.2.41-.59.4-.67,1.06-.09,0-.33-.49-.36-.85-.18.26-.15.59-.57.17.13-.55-.16-.44.16-.41-.34-.21-.46-.67-.65.19,0-.77-.34-.91-.45-.66l.27.5a.35.35,0,0,1-.43,0l0-1c-.35-.6-.53-.07-.76.36s-.45.75-.69-.25c-.14.7.33.47.21,1.29-.29-.11-.57-1.53-.65-1.55-.34-.57-.37,1.44-.76,1,0,.36.05,1.31-.3,1.63-.3-.14-.25-1.5-.06-1.78.07,0,.1.09.09.21a.66.66,0,0,0,.13-.67l-.05.36c-.12-.37-.49-.35-.35-.93a.6.6,0,0,0,0,.77c-.3-.52-.54-.06-.85-.46,0,.21,0,.63,0,.62-.47-.52-.33.63-.73.73-.11-.57.29-1.27-.14-.87a1.75,1.75,0,0,1,.26-1.21c-.44.64-.48-.55-.6-.71l.21-.25c-.13.15-.2.12-.27.1l-.08.72c-.06-.15-.14-.17-.07-.46a9.76,9.76,0,0,1-.55,1.74c0-.38-.5.28-.3-.65.32.41.21-.92.57-1-.09.1-.16.07-.22-.07a.55.55,0,0,1,.1-.23c-.12-.91-.45,1-.84.86.21-.49.22-1,.12-.91.15.06-.19.87-.46,1.21-.12-.48-.37.19-.5.1l.1.24c-.23.48-.34.37-.58.46.12-.39.26-.21.26-.4-.54.8-.12-1.06-.62-.58,0-.39.37-.94.36-1.21-.57.5,0-.81-.56-.42a1.57,1.57,0,0,1-.62,1.08l.72-.23-.76.8c.16.08.53-.26.57-.11a1.32,1.32,0,0,0-.46.89c.21-1.08-.71.37-.68-.41l.76-1.6c0-.86-1.05.49-1.34-.16v.36c-.39.59-.35-.08-.65.09a3.73,3.73,0,0,0,.42-1.11c-.2.4-.33-.24-1,.77l.17-.81c-.23-.5-1.31,1.2-1.6.79.45-.48.49-.94,1-1.19-.13-.07-.19-.24-.4.11.12-.36-.77.46-.6-.09-.19.18-.53.7-.66.57a1.56,1.56,0,0,1,.16-.25c-.15.25-.44.2-.66.83.58-1.81-1.2-.59-.72-2.16a3.68,3.68,0,0,1-1.15-.2c.11-.14.16-.25.18-.17-.09-.7-1.11,1.32-1.21.53.27-1,.48-.31.54-.7.94-1.71-.66-.08-.4-1.23l.13-.06c.09-.71-.93.32-1.24,0a1.21,1.21,0,0,0,.14-.26,2.79,2.79,0,0,1-1.86.86c.44-.63.34-.28.6-1-.22,0-.49,1.14-.9,1.18a5.62,5.62,0,0,1,.27-1.65l.35.11c.27-1.06-.46-.16-.56-.4l.2-.42c-.6-.08-1,1-1.55.73l-.07.35c-.67,1,0-.71-.62,0l.27-1.16a8.45,8.45,0,0,1-1.47,1,5,5,0,0,1,1.42-1.51.81.81,0,0,0-1,.4c.11-.09.3-.34.34-.14-.51.83-.93,1.17-1.33,1.09.53-2.24-1-.76-1.08-2.58a1,1,0,0,1-1.26.08,2.18,2.18,0,0,0-1.36-.41c.38,1.77-.29.07-.16,1.9-.2.13-.28.1-.31,0q-.34-.52-.72-1.05c-.21-.52.17-.42.12-.83-.52-.11-.28-.76-.68-1.22.14.65-.08.94-.4.75.17.26.34.5.51.78-.55,1.06-.83-1.43-1.4-.35l.13-.61c-.32.39-1.43.25-1.37,1.8-.12-.18-.34-.64-.22-.82-.45,0-.82.54-1.14,1s-.6.81-1.08.51l-.12-.43c-.1.18.08.87-.28.54-.07-.18-.13-.44-.2-.43,0,.17-.05.88-.34.74l-.06-.53c-1-.15-.57,1.64-.93,2.22a2,2,0,0,0-1.77-1.23l-.08-.17c-.88.34-.67,1.73-1,2.58-1.19-.93-1.66.4-2.67.11a1.93,1.93,0,0,1,.52,1.05c-.29-.13.12,1-.53,0l.06,0c-.75-.92-.85-.49-1.08-.38l.81,1.36c-.9-.8-1.15-.38-1.36,0s-.4.81-1,0c.06.42-.11.49-.07.91l-.37-.77a1.06,1.06,0,0,0-1,.35l-.15-.59c-.25,0,.62,2.38.37,2.53l-.52-1.16c-.47.22-1.21-.74-1.36.49a1.79,1.79,0,0,1-.06-.61c-.22,0-1-.62-.55,1-.23-1.11-.49,0-.7.5l-.08-.83c-.06,1.09,0,1.38-.33,1.73-.09-.09-.14-.65,0-.46-.3-.39-.12.81-.49.39l.07-.54c-.27,0-.22.24-.33.87-.16.34-.55-.19-.61-.94,0,.46-.15,1.09-.32.88a1.16,1.16,0,0,1,.06-.55c-.44-.53-.68.94-1,.12a2,2,0,0,0,0-.5c.33,0,.61.1.58.16a6,6,0,0,1,0-2c-.18.56-.61,1.8-.86,1.42,0-.07,0-.14,0-.26l0-.09c-.05-.08-.11,0-.17.12-.07-.13-.11-.23-.18-.24,0-.63-.24-.36-.35-.43-.11.84-.26.67-.21,1.39,0-.07,0-.1.13-.11a.14.14,0,0,0,.07-.08l0,.07.34,0c-.15.42-.33.78-.41.28-.14.52-.3,1.06-.39,1.3a18.89,18.89,0,0,1-.12-2.6c-.49.42-.86.1-1.64,1.5-.18.15,0-.47.08-.72s.18-.08.29-.28c-.35.31-.66,0-1.17.91,0-.6.58-.85.16-.87l.19-.28c.11-1-.46-.39-1.07-.08s-1.36.57-.88-.59a1.19,1.19,0,0,1-.2.36A.88.88,0,0,0,440,901a6.33,6.33,0,0,0-.62-.48,1.15,1.15,0,0,1-.51-.6,1,1,0,0,1,.2-1c.17-.39-.48-.11-1.06-.07l.81-.41c-.36,0-.71.07-1.07.09s0-.47.39-.79.72-.62-.05-.71l-.57.22c.05-.22-.49-.58.2-.67-.12,0-.64,0-.34-.09l.46-.09c-.3-.11-.58-.24-.88-.37.29-.43,1.87-.2,1.91-.69a4.51,4.51,0,0,0-1.72-.34,1.22,1.22,0,0,1-.76.23l-.26-.2c-.7,0-1.4-.08-2.06-.06a2.79,2.79,0,0,0-1.72.61c.3.16.6.29.89.42l-.65.22-.09-.41c-.61.29,0,.4.37.51a1.66,1.66,0,0,0-.72.29c.47.1.93.19,1.39.26-.53.15-1.1,0-1.35.33.64.1,1.17-.4,1.63-.13-.58.31-1.1.36-.52.5a1.12,1.12,0,0,1-.76,0c.48.15.3.58,1.06.52-.7.41.4.68-.88,1a2.5,2.5,0,0,1,1.24.27c-1.64.14.18.79-1.44,1.3,1.42-.24,1.05.8,2,.93-.11,0-.34.08-.3,0,0,.33-.29.61-.42.92,1.05-.54,1.52-.27,2.25-.47-.77.93-1.28.56-2.14,1.24.79-.52,1.16,0,1.75-.51a3.56,3.56,0,0,1-.83,1.09c1.21-.84.38.07,1.23-.3-.3.79-1,1-.35,1a.76.76,0,0,1-.5.43A1.14,1.14,0,0,1,434.87,905.15Zm10.7,2.45h0l-.2,0Zm.79,0a.87.87,0,0,0-.34,0c0-.29,0-.59.11-.57C446.08,907.2,446.25,907.38,446.36,907.63Zm-.94-5.9c.1-.12.11,0,.1.22a.54.54,0,0,0-.16.09l0,.1C445.37,902,445.39,901.84,445.42,901.73Z"/><path class="cls-2" d="M445.13,902.8s0,.05,0,.05,0,.14,0,.2l.07-.26Z"/><path class="cls-2" d="M502.36,903h0a.26.26,0,0,1,.07.1Z"/><polygon class="cls-2" points="457.38 906.58 457.27 906.39 457.3 906.59 457.38 906.58"/><path class="cls-2" d="M507.09,903.75a.59.59,0,0,0,.17.15A1.47,1.47,0,0,0,507.09,903.75Z"/><path class="cls-2" d="M508.64,902.83l.39.07A1,1,0,0,0,508.64,902.83Z"/><path class="cls-2" d="M510,902.21c-.09-.12-.16-.2-.23-.28h0Z"/><path class="cls-2" d="M488.72,907.38s0,0-.07,0S488.58,907.47,488.72,907.38Z"/><path class="cls-2" d="M495.57,906.66a2.26,2.26,0,0,1-.22.39C495.46,907.12,495.55,907.14,495.57,906.66Z"/><path class="cls-2" d="M481.61,905v0l0,0Z"/><path class="cls-2" d="M495.05,907c.11.17.21.14.3,0C495.26,907,495.15,906.89,495.05,907Z"/><path class="cls-2" d="M514.08,897.71l.07-.05a.35.35,0,0,1-.11-.07Z"/><path class="cls-2" d="M514,897.59l0-.12S514,897.53,514,897.59Z"/><path class="cls-2" d="M513.89,897.23l.1.24C514,897.42,514.08,897.38,513.89,897.23Z"/><path class="cls-2" d="M512.72,899.05l.24.19A2.49,2.49,0,0,0,512.72,899.05Z"/><path class="cls-2" d="M512.46,899.55c.13-.06.72.12.68-.15l-.18-.16C513.27,899.59,512.12,899.14,512.46,899.55Z"/><path class="cls-2" d="M508.18,898.76l.45-.12c-.29-.17-.67-.4-.61-.58C507,897.76,508.63,898.47,508.18,898.76Z"/><path class="cls-2" d="M507,899.27c.05-.25-.32-.34-.44-.48C506.66,899.09,506.69,899.17,507,899.27Z"/><path class="cls-2" d="M499.6,903.16l-.13-.76C499.34,902.53,499.52,902.69,499.6,903.16Z"/><polygon class="cls-2" points="498.4 907.35 498.64 907.82 498.65 907.11 498.4 907.35"/><polygon class="cls-2" points="496.98 901.96 497.04 901.85 496.81 902.14 496.98 901.96"/><path class="cls-2" d="M483.94,897.7l-.45.83C483.68,898.45,484.26,897.56,483.94,897.7Z"/><path class="cls-2" d="M476.92,895.1c.08-.47,0-.85-.31-.44C476.76,894.77,476.8,895.18,476.92,895.1Z"/><polygon class="cls-2" points="455.17 899.1 455.11 898.76 455.05 899.11 455.17 899.1"/><path class="cls-2" d="M520.25,915.18c-.23-.14-.79-.32-.75-.09l.88.48C520.33,915.45,520.29,915.31,520.25,915.18Z"/><path class="cls-2" d="M518.1,915.56a4.58,4.58,0,0,0,1.91,1.2c-.78-.58-.4-.47-1.35-1.12,0-.19.41-.13.73,0-.21-.15.31-.16-.24-.48-.79-.08-.92.13-.45.65A1.75,1.75,0,0,1,518.1,915.56Z"/><path class="cls-2" d="M507.05,925.44l.14.07A.23.23,0,0,0,507.05,925.44Z"/><path class="cls-2" d="M498.46,926.45c.07,0,.11-.12.12-.21C498.51,926.31,498.46,926.36,498.46,926.45Z"/><path class="cls-2" d="M497.16,925.2a.29.29,0,0,0,.07.08C497.21,925.19,497.19,925.13,497.16,925.2Z"/><path class="cls-2" d="M507.05,925.44l-.34-.18C506.83,925.56,506.92,925.43,507.05,925.44Z"/><path class="cls-2" d="M519.22,918.64a.57.57,0,0,0-.15-.25,1.11,1.11,0,0,1,0,.17Z"/><path class="cls-2" d="M509.84,922.72l.05-.05a2.9,2.9,0,0,0-.21-.34Z"/><path class="cls-2" d="M511.84,920.61c-.07,0,.54.61.79.88-.23-.27-.32-.41-.33-.5A4.42,4.42,0,0,0,511.84,920.61Z"/><path class="cls-2" d="M515.88,917.6l0-.13A.89.89,0,0,1,515.88,917.6Z"/><path class="cls-2" d="M508.07,923.76a2.88,2.88,0,0,0-.18-.25A1.44,1.44,0,0,0,508.07,923.76Z"/><path class="cls-2" d="M426.62,919l.15,0C426.68,919,426.62,919,426.62,919Z"/><path class="cls-2" d="M430.33,914.52l.05.05.47,0Z"/><path class="cls-2" d="M495,923.59v0C495.1,923.54,495.06,923.54,495,923.59Z"/><path class="cls-2" d="M468.89,912.76c.42.73-.51,1,.11,1.8C468.91,914.24,469.4,913.22,468.89,912.76Z"/><path class="cls-2" d="M519.08,918.67a.26.26,0,0,1-.06.13C519.08,918.76,519.1,918.72,519.08,918.67Z"/><path class="cls-2" d="M469,914.56h0l.06.07Z"/><path class="cls-2" d="M489.51,921.47a2.11,2.11,0,0,0-.14.35A2,2,0,0,0,489.51,921.47Z"/><path class="cls-2" d="M493,924.69l-.06-.15A.21.21,0,0,0,493,924.69Z"/><path class="cls-2" d="M486.74,921c0-.09,0-.2-.11-.16a.22.22,0,0,0,0,.1C486.69,920.89,486.76,920.87,486.74,921Z"/><path class="cls-2" d="M484.49,919.41l-.06.17h.1Z"/><path class="cls-2" d="M432,928.25a4.16,4.16,0,0,1,.39-.67C432,928.06,431.44,927.85,432,928.25Z"/><path class="cls-2" d="M518.81,918.42c.18.11.26.19.27.25a.37.37,0,0,0,0-.11A.81.81,0,0,0,518.81,918.42Z"/><path class="cls-2" d="M482.8,926.38l-.3-.36A.87.87,0,0,0,482.8,926.38Z"/><path class="cls-2" d="M454.85,928.08l0,.14C454.86,928.22,454.88,928.17,454.85,928.08Z"/><path class="cls-2" d="M481.35,925.34a1.76,1.76,0,0,0,.14-.62l-.17.15Z"/><path class="cls-2" d="M432.37,927.58h0Z"/><path class="cls-2" d="M428.37,925.82c.29.51,1.06-.36,1.65-.61.6.36-.51.71-.85,1.23.46.2,1.51-.19,1.66.07-.13.13-.14.22-.37.31,1-.25.87,1,2.05.51a1.17,1.17,0,0,1-.14.25,8.94,8.94,0,0,1,1-1.16c.18.13.76-.27.34.33-.08-.1-.28.11-.48.24l.38-.09c-.52.93-.48.06-1,.63.6.08,1.52-.24,1.62.19-.56.89-.86-.27-1,.77l-.2-.68c-.69,1.53-.21-.33-1,1.27.46.8,1,.19,1.56.87.46-.38.41-.73.86-1.12.72-.15.56.5.44,1.13s-.22,1.2.46.75c.5-.53,1.07-1.68,1.31-.85l-.61,1c.69.4,1-1.38,1.44-.37-.27.38-.67.14-.61.32.2,1,.55-.47.9-.39l-.21,1a19.85,19.85,0,0,0,2.63-.56c-.08.3-.27.61-.11.93a2.24,2.24,0,0,1,1.65.07,6.86,6.86,0,0,1,.83.38l.8.4.34-.9c.09,0,.19.39.1.56.41.31,0-.56.15-.91.21-.08.33.49.2.76a4.42,4.42,0,0,1,1.21-1.07,1,1,0,0,1,1.35.06l-.09.28c.64.24.23-1.88.9-1.17l-.06.17c1.25,0,2.21-1.08,3.52-.25-.36-1.23,1.33,0,.63-1.59,1,.48.94.85,2.07.9.27-.05-.21-1.14,0-1.45l.48.79c0-.34-.1-.69-.16-1l.77.82.11-.36c-.12,0-.42-.22-.55-.45.14-.59,1.25,0,1.53.34a11.74,11.74,0,0,0,.4-1.23,1.34,1.34,0,0,1,.16.8c-.1-1.09.64.73.55-.27-.18-.13-.29-.47-.39-.62a.81.81,0,0,0,1.18-.46l.32.56c.68-.31,1.05-1.19,1.67-1.66-.4-.06-1-1-.91-1.19l.67.71c-.26-.57-.42-.14-.63-.91.3-.09.83.75.9,1.11l.07-.49a7.44,7.44,0,0,1,.43.7c-.25-.57,1.08.4.6-.56l.19.22c.61-.45.66-.9,1.11-1.3-.48-.69-.19-.69-.44-1.34.52,0,1.28.26,1.65-.08.07-.55-.3-.66-.43-1.17.43.64.81.33.88.93a2.81,2.81,0,0,0,.9-1.4c-.21-.25-.36-.33-.44-.58s.43.15.58.49v.09c.12-.68.8-.43,1.37-.09s1,.65,1.1-.22v.09a7.27,7.27,0,0,1,.39-1c.31.07,0,.59.28,1,.17-.69.46-.7.71-.66s.5.21.74-.24c.31,1.11.63,1.05,1,.88s.8-.33,1,.4l0-.53c.19-.51.14.31.23.44,0-.41-.11-.48,0-.77a1.19,1.19,0,0,1,1,0,3,3,0,0,1,.86.53c.26.27.5.57.73.85l.34.39a5,5,0,0,0,.35.41c.35.32,1.4-2.39,1.43-1l-.6.81c1.45-.6,1.8,1,3.25.79-.18.16-.35.4-.43.34-.21.72.68.49,1,0,.11.16-.27.47-.35.77-.05.49,1-.4.71.26,0,.11-.18.15-.25.17.33-.19.54.49.9-.27.12.57.91.2.91.8.73-.61.36.81,1.19-.21-.84,1.08,0,1.36.62,1-.31.28,0,.5-.46.89.29.19.69.16,1-.45-.42,1.7,1.79-.36.92,1.56a15.26,15.26,0,0,1,3.32.25c-.69,1.16-1-.42-1.65.83,1.07,0,2.09-.77,2.74-.08.12.27-.38.46-.56.63a2.44,2.44,0,0,1,1.31.39,1.7,1.7,0,0,0,1.34.14.66.66,0,0,1-.3.27c.16,0,.28.33.49-.25l-.21.1c.1-.92,1.25-1.51,1.43-1.94-.86,1.57.58.68-.56,2.64a1.14,1.14,0,0,0,.48-.71c.11.16.09.4-.22.8.68-.15.67-.84,1.17-.68-.08.29-.22.37-.37.69.43-.48.83-1,1.19-.6-.07.17-.08.41-.21.36.78.15,1.58-1.25,2.26-.55-.44,1.24.21.47.1,1.59l.5-.26-.11-.57c.39.11.81-.73,1.1-.33l-.33.44.74-.17-.37-.44c.42-.56.07-1.42.53-1.08-.1.11.35,0,.52.7h0c.2-.35.39-.71.65-.42.07.36-.06,1.23,0,1.48.19-.92.92-.31,1.11-1.31a3,3,0,0,0,0,.94l.12-.77c.19.23.22.35.22.82.55.1-.26-1.41.41-.84-.05.07,0,.18-.11.3.67.29,1.16-.55,1.77-.32.36,1.08-.46.37-.12,1.27a4.37,4.37,0,0,0,1.18-1,1.93,1.93,0,0,1,1.15-.67l-.18-.07c-.35-1.56.8.56,1-.29a1.69,1.69,0,0,0,.13.7c.63.06,1-.73,1.52-1.57l.08.42c.45.19.88-.19,1.3-.18-.1-.41.11-.44-.28-.91,1,.75,1.35.17,1.57-.4s.36-1.17,1.33-.7c-.09.08,0,.46.07.4l.43-.81c-.49-.5-.35-.26-.82-.58-.18-.38-.21-.76-.06-.88,0,.57.71.86,1.09,1-.16-.14-.27-.36-.42-.51,1.13.67-.85-1.1.1-.85l.22.29c0-.28-.16-.76.07-.84.62.52.1.43.54.92.21-.26-.6-1.52.17-1.15.06.25-.08.39,0,.64.89.45.76.25,1,.19h0L515,924l-.28-.07c-1.26-1.72.28-.88-.39-2.18.64,1.23.51.56,1.17,1.17.29.06.65.07.81.29-.4-.68.73,0,.12-1,.25.17.2-.2.75.29,0-.42-.46-.24-.73-.49-.47-1,1.74-.3,1-1.72-.09-.84-.9-1.48-1-2.21.5.07.83.68.83.68.53,0,.61-.3.45-.73a1.52,1.52,0,0,0,.75.31c0-.26-.86-.66-.33-.73a6.67,6.67,0,0,1,.92.78c-.1-.4-.44-.9-.54-1.29.49.16.61.52.85.77a1.57,1.57,0,0,0-.7-1.45l-.35.06c0-.12.65.25.75.39.43.55-.44.26-.71.14l-.07-.28c-1.62-.57-.14.86-.44,1.2l-1-.75.71.87c-.33-.08-1-.37-1-.64-.67,0,.25.44-.46.31a.28.28,0,0,1-.19-.12l.18.43c-.2-.18-.78-.42-.54-.47-.86,0,.39,1.18-.52.82l0-.07c0,.79.74.55,1.33,1.59-.7-.32-1.38-.65-2.06-1l.71.58c-.07,0-.2.11-.49-.12.36.58.35.19.75.67-.88-.22-.29,1-1.48.16.47.53.62.08.78.67-1.3-.9-.06.51-.82.29-.55-.59,0-.54-.79-.76.92,1-.62.24-.59.59.8.73,0,.73-.07,1.28-.25-.27-1,.13-1.56.1l-.11-.15c.68.88.24,1,.14,1.36a2.46,2.46,0,0,1-.6-1.07l-.21.16a.84.84,0,0,1,.16.72l-.45-.69c-.25.24,0,1.24-.68,1,.4.65,1.56,1.54,1.38,2.26a3.26,3.26,0,0,1-.64-1.13c0,.07,0,.37-.12.27l-.22-.69c-.35-.13.23.55,0,.59-.32-.5-.34-.28-.57-.69,0-.07.26.12.18-.1a1.34,1.34,0,0,1-.9-.5c.19.27.42.67.34.81-.29.23-.47-.54-.8-.69.14.4-.26.14.17.92-.1.06-.32-.3-.46-.5,0,.42-.72.46-.11,1.22l.07,0s0,0,0,.05h0c-.09.53-.46.57-.82.54s-.78-.19-1,.1l-.1-.28c-.24.43-.7.45-.79,1.15-.1,0-.39-.45-.43-.8-.22.26-.18.6-.69.2.17-.56-.19-.43.2-.43-.41-.18-.56-.63-.78.24,0-.77-.42-.89-.54-.64l.32.49a.53.53,0,0,1-.51.09l-.05-1c-.41-.55-.64,0-.9.39s-.54.77-.83-.23c-.17.71.39.46.26,1.29-.36-.12-.7-1.5-.79-1.53-.42-.58-.44,1.43-.92,1,0,.35.07,1.31-.34,1.62-.36-.15-.31-1.51-.08-1.78.08,0,.11.08.1.2a.58.58,0,0,0,.16-.66l-.07.36c-.14-.37-.58-.36-.42-.94a.53.53,0,0,0,0,.77c-.37-.52-.65-.06-1-.49,0,.21,0,.63,0,.62-.56-.55-.38.62-.86.69-.15-.57.34-1.26-.18-.88-.19-.41.14-.93.3-1.2-.52.62-.58-.59-.73-.77l.25-.22a.27.27,0,0,1-.32.07l-.08.72c-.08-.15-.17-.18-.09-.47-.24.42-.23,1.17-.64,1.71-.05-.39-.6.23-.37-.68.39.44.24-.92.67-1q-.15.14-.27-.09a.42.42,0,0,1,.13-.23c-.17-.93-.54,1-1,.79.24-.48.24-1,.13-.92.17.09-.21.87-.53,1.18-.15-.51-.44.16-.59.05l.11.25c-.26.47-.39.34-.68.41.15-.39.31-.19.31-.39-.62.75-.16-1.08-.74-.68,0-.4.41-.91.39-1.2-.65.44,0-.84-.66-.51-.23.68-.12.54-.71,1l.85-.13-.88.72c.19.11.61-.19.67,0-.45.43-.36.28-.53.86.22-1.1-.82.28-.8-.52l.86-1.56c0-.9-1.22.34-1.58-.38l0,.37c-.45.56-.41-.13-.75,0a3.5,3.5,0,0,0,.46-1.1c-.23.38-.39-.31-1.1.64l.18-.82c-.28-.57-1.48,1.05-1.82.57.51-.44.55-.92,1.11-1.09-.15-.1-.22-.29-.46,0,.13-.36-.87.36-.68-.2-.22.17-.6.66-.74.5a1.15,1.15,0,0,1,.17-.24c-.17.24-.49.14-.73.77.62-1.82-1.38-.83-.87-2.41a5,5,0,0,1-1.31-.4c.13-.13.18-.24.2-.15-.12-.75-1.24,1.21-1.37.37.29-1,.55-.25.6-.66,1-1.66-.75-.19-.47-1.36l.15,0c.08-.73-1.06.2-1.42-.2a.86.86,0,0,0,.16-.25,3,3,0,0,1-2.13.63c.49-.6.39-.24.68-1-.25,0-.55,1.12-1,1.1a4.83,4.83,0,0,1,.29-1.66,2.86,2.86,0,0,1,.41.15c.3-1.06-.54-.22-.66-.48l.23-.41c-.7-.16-1.19.92-1.8.55l-.06.36c-.78.92-.07-.73-.74,0l.29-1.15a8.85,8.85,0,0,1-1.71.87,4.84,4.84,0,0,1,1.64-1.4,1,1,0,0,0-1.2.31c.14-.08.35-.32.4-.11a3.06,3.06,0,0,1-.82.83.88.88,0,0,1-.74.18c.58-2.21-1.18-.86-1.34-2.64a1.42,1.42,0,0,1-1.52,0c-.25-.11-.51-.24-.78-.33a2.08,2.08,0,0,0-.86,0c.49,1.75-.34.07-.16,1.89-.24.14-.33.12-.36,0-.28-.35-.58-.69-.9-1-.26-.52.21-.43.14-.83-.63-.09-.36-.76-.85-1.17.18.64-.07,1-.46.8.22.24.42.49.63.73-.64,1.12-1-1.36-1.69-.24l.14-.62c-.37.39-1.66.45-1.56,2-.14-.18-.41-.62-.27-.81-.55.07-1,.63-1.3,1.15s-.69.91-1.25.68l-.14-.43c-.12.19.11.89-.3.6-.08-.16-.15-.42-.24-.4,0,.18,0,.92-.36.82l-.08-.54c-.56,0-.73.44-.79,1a3.83,3.83,0,0,1-.23,1.49,2,2,0,0,0-2-1l-.1-.15c-.92.48-.77,1.92-1.14,2.88a1.37,1.37,0,0,0-1.57,0,2.37,2.37,0,0,1-1.44.52,1.61,1.61,0,0,1,.56,1c-.32-.09.11,1.05-.59.06l.07,0c-.82-.87-.95-.39-1.22-.23l.88,1.32c-1-.68-1.3-.25-1.56.21s-.49,1-1.19.14c0,.42-.16.53-.13,1l-.4-.75a1.64,1.64,0,0,0-1.22.49l-.15-.6c-.3.07.62,2.4.32,2.58l-.57-1.13c-.26.14-.64,0-1-.07s-.56,0-.68.68c0-.18-.12-.54-.05-.61-.27.08-1.16-.61-.71,1.07-.24-1.1-.59,0-.86.56l-.07-.84c-.11,1.1-.09,1.43-.46,1.73-.11-.1-.15-.66,0-.45-.35-.42-.17.8-.6.38l.1-.54c-.32-.05-.28.24-.43.87-.2.35-.65-.17-.7-.92,0,.47-.22,1.09-.41.85a1.08,1.08,0,0,1,.09-.55c-.49-.61-.85.91-1.16.07a1.74,1.74,0,0,0,0-.5c.4.05.73.12.7.17,0-.77-.26-.92,0-2-.25.57-.81,1.79-1.09,1.42a2.1,2.1,0,0,1,0-.27l0-.08c-.06-.08-.13,0-.2.1-.07-.15-.11-.26-.19-.29.08-.63-.25-.41-.38-.47-.17.82-.34.65-.32,1.37,0-.07,0-.1.16-.11s.06,0,.09-.07l0,.07a2,2,0,0,1,.39,0c-.19.39-.4.71-.48.21-.2.51-.42,1-.54,1.28a16.23,16.23,0,0,1,0-2.6c-.54.27-1-.07-2,1.23-.22.11.07-.49.15-.73s.2,0,.34-.22c-.41.23-.71-.26-1.38.63,0-.6.72-.75.22-.84l.25-.25c.05-.46-.05-.61-.27-.63a3.91,3.91,0,0,0-1,.24c-.75.25-1.49.18-1-.92a.86.86,0,0,1-.22.34,1.85,1.85,0,0,0-.32-1c-.17-.27-.47-.46-.67-.73a2.52,2.52,0,0,1-.51-.86,1.53,1.53,0,0,1,.24-1.14c.18-.43-.49-.25-1.07-.32l.84-.33-1.11-.09c-.45-.18,0-.57.44-.92s.73-.66,0-.89l-.58.19c.07-.27-.48-.77.22-.81-.11,0-.64,0-.34-.15l.47-.06-.86-.55c.3-.51,1.87-.07,1.93-.72a3.51,3.51,0,0,0-1.71-.56c0,.08-.29.25-.77.26l-.24-.25c-1.39-.08-2.84-.41-3.8.46.28.19.58.35.87.51l-.67.2-.06-.45c-.63.29-.05.43.34.59a1.61,1.61,0,0,0-.73.27c.46.14.92.28,1.38.4-.54.12-1.1-.13-1.37.25.64.18,1.2-.35,1.64,0-.61.31-1.12.31-.55.53a1,1,0,0,1-.76,0c.47.21.29.67,1,.69-.75.38.36.81-.94,1,.33,0,1.11.25,1.21.46-1.65-.06.14.89-1.52,1.23.73,0,1,.22,1.13.52s.32.65.79.79c-.11,0-.35,0-.3,0,0,.35-.36.6-.53.92,1.1-.4,1.56,0,2.34-.1-.85.86-1.36.37-2.29.93.86-.41,1.19.28,1.83-.21a3.11,3.11,0,0,1-1,1c1.32-.65.36.16,1.3-.06-.38.77-1.12.82-.45,1C429.08,926,428.37,925.82,428.37,925.82Zm11.83,4.74v0l-.24,0Zm.94.06a1.2,1.2,0,0,0-.4-.06c0-.29.06-.59.15-.57C440.82,930.18,441,930.36,441.14,930.62Zm-.86-6c.12-.1.12.07.1.25a.42.42,0,0,0-.18.06l0,.1C440.21,924.88,440.25,924.74,440.28,924.63Z"/><path class="cls-2" d="M439.88,925.67s0,.05-.05.05a1,1,0,0,0,0,.2l.09-.25Z"/><path class="cls-2" d="M507.21,925.52h0l.08.09Z"/><polygon class="cls-2" points="454.2 928.99 454.09 928.8 454.11 929 454.2 928.99"/><path class="cls-2" d="M512.63,925.4a.8.8,0,0,0,.19.13A1.22,1.22,0,0,0,512.63,925.4Z"/><path class="cls-2" d="M514.32,924.09h.42A1.32,1.32,0,0,0,514.32,924.09Z"/><path class="cls-2" d="M515.74,923.15l-.26-.26h0Z"/><path class="cls-2" d="M491,930h-.08C490.71,930.05,490.83,930,491,930Z"/><path class="cls-2" d="M499.13,929.7a1.68,1.68,0,0,1-.26.38C499,930.15,499.11,930.18,499.13,929.7Z"/><path class="cls-2" d="M482.84,926.43v0l0,0Z"/><path class="cls-2" d="M498.51,930.05c.13.17.25.14.36,0C498.76,930,498.63,929.93,498.51,930.05Z"/><path class="cls-2" d="M520,917.36l.07-.05-.12-.07Z"/><path class="cls-2" d="M519.93,917.24l0-.12S519.85,917.19,519.93,917.24Z"/><path class="cls-2" d="M519.77,916.86l.11.26C519.91,917.06,520,917,519.77,916.86Z"/><path class="cls-2" d="M518.6,919.11l.25.18A1.25,1.25,0,0,0,518.6,919.11Z"/><path class="cls-2" d="M518.33,919.72c.14-.1.77,0,.72-.29l-.2-.14C519.19,919.61,518,919.33,518.33,919.72Z"/><path class="cls-2" d="M513.76,919.71l.49-.23c-.32-.13-.73-.3-.67-.52C512.44,918.85,514.25,919.3,513.76,919.71Z"/><path class="cls-2" d="M512.46,920.56c0-.29-.36-.31-.49-.44C512.09,920.43,512.12,920.51,512.46,920.56Z"/><path class="cls-2" d="M504,926l-.17-.75C503.63,925.43,503.85,925.58,504,926Z"/><path class="cls-2" d="M502.54,930.34l.29.44v-.72A2.56,2.56,0,0,1,502.54,930.34Z"/><polygon class="cls-2" points="500.8 924.98 500.86 924.87 500.59 925.16 500.8 924.98"/><path class="cls-2" d="M485.33,919.1l-.5.8C485.05,919.85,485.69,919,485.33,919.1Z"/><path class="cls-2" d="M477.24,915.34c.09-.48-.05-.86-.38-.48C477,915,477.1,915.4,477.24,915.34Z"/><polygon class="cls-2" points="451.94 921.42 451.88 921.07 451.8 921.46 451.94 921.42"/><path class="cls-1" d="M416.3,698s2-3.28,4.22.4.87,3,.87,3a3.12,3.12,0,0,1,4.1-1.36c2.92,1.12,1.55,3.26,1.55,3.26a7.75,7.75,0,0,1,5.18.76c2.94,1.42,9.58,6.23.69,4.56C424.44,707,416.3,698,416.3,698Z"/><path class="cls-1" d="M435.62,707s2.17,2.17-1.45,2.79a37.91,37.91,0,0,1-4.33.62s-4.21,3.56-7.1,3.56S411.9,719,411.9,719a18,18,0,0,1-3.85,1.4c-1.69.31-7.23,3.09-8.67,1.55s.24-4,2.16-4h1.93s1.2-1.39,5.54-2.63,8.67-2.32,8.67-2.32.72-4.64,3.13-4.64a25.79,25.79,0,0,1,6.38,1.39s2.65-4.64,5.54-4S435.62,707,435.62,707Z"/><path class="cls-1" d="M426.23,694.58s-.73-3.71,1.44-3.09a3.42,3.42,0,0,1,2.41,2.78s3.85-2.47,4.34,0-.25,3.1-.25,3.1,6.75-1.24,6.27,1.86-1.21,3.4-1.21,3.4,7.47-1.24,7.71.93-1.93,3.4-7.23.31S426.23,694.58,426.23,694.58Z"/><path class="cls-1" d="M444.29,706.34s-.48-5.88,3.85-5.26,1.69,2.48,1.69,2.48.48-4,3.37-3.72,2.89-2.47,5.78-1.54,2.65.62,2.65.62,4.33-4,7.46-3.72,1.69,1.55,1.69,1.55,14.57-4,16.86-3.25S445,706,444.29,706.34Z"/><path class="cls-1" d="M451.75,711.3s-3.37-4.34.24-4.65a2.64,2.64,0,0,1,3.14,3.1s3.61-3.72,5.53-3.41a8.78,8.78,0,0,0,3.5-.15s.6-4.49,3-3.56a33,33,0,0,1,3.25,1.39,6.83,6.83,0,0,1,3.73-2.78c2.41-.62,1.44.62,1.44.62s11-3.87,13.85-4.49.48,1.24-6.14,3.71C478.32,702.94,453.68,711.61,451.75,711.3Z"/><path class="cls-3" d="M805.35,837.67c-10.35,0-19,21.35-3.5,21.06C823.82,858.32,815.7,837.67,805.35,837.67Z"/><path class="cls-3" d="M787.31,850.9s-3.09-5-10.8-5-14.06,13.49-2.31,14.87C782.68,861.8,791.93,861.8,787.31,850.9Z"/><polygon class="cls-4" points="208.59 790 197.5 670.35 200.05 669.95 211.15 789.6 208.59 790"/><path class="cls-5" d="M197.5,670.35s22.83-4.86,28.63-3.14c8.93,2.66-.4,6.65,10.52,8.23S272.4,685,272.4,685s-21.75,19.22-31.85,20.8-6.61-4.89-18.23-3.07c-16.19,2.54-22.16,4.13-22.16,4.13Z"/><path class="cls-6" d="M228.4,668l2.34,35.21,2.73,1.77-2.84-32S230.75,668,228.4,668Z"/><polygon class="cls-4" points="545.01 754.94 550.92 673.78 552.65 673.99 546.75 755.14 545.01 754.94"/><path class="cls-3" d="M550.92,673.78s15.63,1,19.28,3.16c5.61,3.39-1,4.33,6,7.37s22.59,12.85,22.59,12.85-16.51,8.73-23.36,7.93-3.84-4.44-11.72-5.36c-11-1.28-15.11-1.32-15.11-1.32Z"/><path class="cls-7" d="M571.62,677.85l-2.35,23.71,1.61,1.67,1.66-21.7S573.17,678.33,571.62,677.85Z"/><path class="cls-1" d="M445,715.94s1.81-3.71-4.69-3.71-10.48,5.1-10.48,5.1a6.61,6.61,0,0,0-5.42-1.85c-3.25.46-2.17,6.5-2.17,6.5s-5.41-2.79-8.67-2.33-1.8,4.65-1.8,4.65-1.81-3.25-4.34-2.32-4.33,2.78-2.89,5.1c0,0-9,3.25,0,3.72S419.36,728,414.67,728"/><path class="cls-1" d="M442.6,716.87s-1.2-7.43,1.45-7.12,2.41,4,2.41,4a6,6,0,0,1,4.57-.31c2.17.93,1,3.72,1,3.72l4,3.25,4-.62s3.13-1.24,4.34.62,3.61,7.27,3.61,7.27,4.09-2.78,5.3-.93S477,734.2,477,734.2Z"/><path class="cls-1" d="M391.07,716.25c-4.1,0-11.56,4.33-2.41,6.81S395.16,716.25,391.07,716.25Z"/><path class="cls-1" d="M381.8,722.59c-3.13-1.54-6.51,2.64-3.13,3.25S384.93,724.14,381.8,722.59Z"/><path class="cls-1" d="M415.15,698s-1.45,3.13,2.89,2.2,2.17-3.25,2.17-3.25a16.29,16.29,0,0,0-3.59-1.21,12.32,12.32,0,0,0-6.89.29C404.67,697.83,415.15,698,415.15,698Z"/><path class="cls-1" d="M348.32,817.62s-6.14-4.64-6.5-7.43,5.78,1.86,5.78,1.86,10.12,3.25,6.5,7.43S348.32,817.62,348.32,817.62Z"/><path class="cls-1" d="M412.85,737.07s0-6.31-4.91-4.37-3.39,7.28-3.39,7.28a19.87,19.87,0,0,0-9.07.49c-4.15,1.45-1.51,3.88-1.51,3.88s-7.55,0-12.08,2.42.76,3.89.76,3.89-3-.49-9.44,1.94-3.77,5.34-3.77,5.34a9.36,9.36,0,0,0-8.31.48,5,5,0,0,0-2.27,6.79,22.83,22.83,0,0,0-7.55,2.43c-3.39,1.94.76,3.88.76,3.88s-9.44.49-12.84,4.86,5.67,1.45,5.67,1.45-8.69,1.46-10.58,3.88a4.06,4.06,0,0,0,0,4.86s-1.13-1-3.39,2.91a5.56,5.56,0,0,0,.75,6.79s-3.77,2.91-2.26,5.34,3.77.48,3.77.48-1.51,5.83,2.27,8.74,2.64-.49,2.64-.49,2.64,5.83,6,7.28-.38-3.4-.38-3.4-1.88-5.33-4.91-6.79-1.51,0-1.51,0,1.89-6.79-.75-10.67L334,792.87s-1.51-2.42,3.39-5.33,1.51-4.86,1.51-4.86,7.56-2.91,13.22-5.82S356.6,771,356.6,771s10.19-2.43,10.19-4.86a3.85,3.85,0,0,0-1.89-3.39s11-3.4,13.22-5.82.38-2,.38-2a26.66,26.66,0,0,1,13.59-6.3c7.93-1,35.11-17.47,27.93-13.59S412.85,737.07,412.85,737.07Z"/><path class="cls-1" d="M328.28,815.2s9.82,2.91,15.48,8.24,6,6.31,6,6.31,4.16-2.91,9.06,2.91,5.29,6.8,5.29,6.8,3.78-6.31,7.17-3.88a15.59,15.59,0,0,1,4.91,6.3s4.15-3.88,7.93-1.94a18.15,18.15,0,0,1,5.66,4.37s.76-2.91,4.53-1.46,9.44,9.71,9.44,8.25,10.57-4.85,18.5-2.91,10.57,7.28,10.57,7.28,6-4.85,10.57-3.4,8.69,10.68,8.69,10.68-.38-4.37,6.41-5.82,9.06,3.88,9.06,3.88A50.48,50.48,0,0,1,478,857.74c5.66-1,12.08,3.88,12.08,3.88s-1.64-1.62,4-2.59,6.29,2.75,6.29,2.75,11.83-1.46,17.87-1.46-3.15-4.36,5.16-3.88,13.59,1,13.59,1,10.07-7.44,21-7.44,4.53,7.12,4.53,7.12,7.17-7.28,15.1-7.77,2.51,2.59,2.51,2.59,13.09-5.17,18.13-5.82,6.41,3.88,13.59,1.94,10.44-1.13,10.44-1.13,1.64-1.27,8.06-1.27a31.6,31.6,0,0,1,12.52,3.1s-5.44-8,6.26-5.58,14.69,7.31,14.69,7.31,2.64-4.37,8.31-1.94,3.4,5.33,3.4,5.33,3-.48,8.68,3.4,4.15,6.31,4.15,6.31a69.74,69.74,0,0,1,8.68,1c6.42,1,10.58,8.9,10.58,8.9s.37-3.4,8.68-3.4a19.85,19.85,0,0,1,13.21,4.85s-2.26-3.4,4.91-7.28,3.33.94,3.33.94,4.42-1.14,8.19,3.71,5.06,4.64,5.06,4.64l-13.18-2s-7.55,7.28-11.33,6.31-7.55-5.34-7.55-5.34a144.82,144.82,0,0,1-15.86-1A36,36,0,0,1,690,870.35s-5.18-4.29-7.17-6.31c-9-9.12-12.86-7.27-12.86-7.27,3.38-6.19-6.26.46-7.7-.62a26.08,26.08,0,0,0-11.53-4.88s-9.06,5.82-14.35,4.36a36.22,36.22,0,0,1-9.06-3.88L622,854.18l-10.2-1.46s-10.95,2.1-14,1.13l-4.53-1.45s-4.15,7.44-10.95,7.44-9.06-1.46-9.06-1.46-12.46,7.77-20,4.37-8.3-5.82-8.3-5.82-15.48,11.64-21.14,10.67a35.94,35.94,0,0,1-8.69-2.42s-4.9,5.33-10.19,4.36-12.08-5.82-21.9-.48-23.4-1.94-23.4-1.94-9.07,6.31-16.62,1-.37-4.86-.37-4.86-15.1.49-17.37-7.27c0,0-14.35,2.91-19.25,1.45s-6.8-2.91-6.8-2.91-14.72-2.43-21.52-5.82-9.06-7.28-9.06-7.28-3.78,5.82-7.17,2.91a30.31,30.31,0,0,1-5.67-6.79s-7.55,1-13.21-3.89-2.26-6.3-2.26-6.3Z"/><path class="cls-1" d="M394,735.61s-6-5.33-9.81,0,.75,2.92.75,2.92-10.57,1-15.1,5.33-2.64,6.31-2.64,6.31-13.59-1.45-15.48,3.4-.38,5.34-.38,5.34-4.9-.49-7.55,2.42a4.36,4.36,0,0,0-1.11,1.91,2.31,2.31,0,0,0,1.11,2.46l4.91-2.91s7.17-3.88,7.55-6.31c0,0,13.59-3.88,17.37-7.28l3.77-3.4S392.84,743.38,394,735.61Z"/><path class="cls-1" d="M339.23,763.27l4.53,2.43s-4.91,8.73-7.93,8.25c0,0-6,8.73-7.55,7.76l-1.51-1s4.16,4.37,0,7.77-2.26,12.13-2.26,12.13,8.68,13.1,2.64,11.16-3.77-7.28-3.77-7.28-5.29,4.85-4.16-2.43,2.65-16,2.65-16-.76-7.76,4.15-10.68l4.91-2.91Z"/><path class="cls-1" d="M343.76,814.22s4.53-5.33,7.55-2.42,3.78,7.76,3.78,7.76,1.13-5.82,5.28-2.42a31.48,31.48,0,0,1,6.8,8.25s-3.4-5.83,4.15-3.4,7.93,7.28,7.93,7.28,9.06,2.42,15.1,2.42,2.65,3.4,2.65,3.4,12.45-4.37,19.25-2.43,5.66,6.31,5.66,6.31,14-3.88,12.46,1.46-10.19,7.28-15.1,3.39l-4.91-3.88s-17,1.94-21.9-1l-4.9-2.91s-11.71-5.82-13.22-7.76c0,0-8.68.48-12.08-.49a6.21,6.21,0,0,1-4.15-4.37S347.16,820.53,343.76,814.22Z"/><path class="cls-1" d="M434.37,840.43s6.6-3,10.95,1c2.64,2.42.75,3.4.75,3.4s11.33-5.83,16.62-4.86,0,6.8,0,6.8,9.43-5.83,12.83-4.86,7.18,5.83,7.18,5.83,5.28-6.8,9.81-3.89-8.68,11.65-16.23,6.31-1.51-.48-1.51-.48-17.75,2.42-20.39-2.43c0,0-10.95,2.43-15.48.49S425.31,842.37,434.37,840.43Z"/><path class="cls-1" d="M490.62,846.09s-2.64,3.09,3.78,3.44a15.6,15.6,0,0,0,10.19-2.75s2.27,4.46,10.2,3.43,8.68-4.12,8.68-4.12a34.39,34.39,0,0,0,14,.34,62.52,62.52,0,0,0,12.08-3.09s3.77-5.15,8.3-2.06,3-1.72,6.8,1,10.19.34,10.19.34,7.18-4.12,8.69-1.37,9.06.69,9.06.69a11.73,11.73,0,0,1,7.17-.35c4.15,1,10.19-2.4,10.19-2.4s0,2.06,3.4,2.4,8.69-5.15,8.69-5.15-1.89-.34,5.66,1.72,12.46-1.72,12.46-1.72-2.65,2.4,4.9,2.4,7.93-2.4,7.93-2.4,0,2.06,8.31,4.12c0,0,1.51-3.78,6-1.72a27.8,27.8,0,0,1,7.55,5.16s0,2.4,5.29,3.43,1.88-2.74,1.88-2.74,7.18,7.21,11.33,8.24-1.89-3.78-.76-3.43,8.31,5.15,13.22,5.49,2.26-2.4,2.26-2.4-.75,3.09,5.67,4.81,7.55-1.72,7.55-1.72,7.92,7.32,12.07,5.6-.76-3.78-.76-3.78,9.63.91,9.63-1.84-4-1.6-10-2.63-6.8,3.09-6.8,3.09-6.79-9.37-13.58-10.06-9.06,3.78-9.06,3.78-5.29-5.84-9.44-6.18-4.53,1.71-4.53,1.71-4.91-9.27-7.93-9.62-4.15,3.09-4.15,3.09-10.57-3.77-14.73-4.12-3.39,1.38-3.39,1.38-11.71-6.19-21.15-7.22-7.92,4.47-7.92,4.47-11.33-1.72-13.22-.69-.38,4.12-.38,4.12-20.76-2.06-23.78-2.4-2.27,3.78-2.27,3.78-8.68-5.5-16.61-5.16-4.9,6.19-4.9,6.19A18.26,18.26,0,0,0,557.07,832c-7.55-1.37-7.55,4.81-7.55,4.81s-7.93-7.21-11.33-1,0,6.53,0,6.53-1.51-1.37-12.08-2.06-17,2.4-13.21,3.09-4.53-4.81-9.06-4.81-6.8,4.12-6.8,4.12S484.21,842.31,490.62,846.09Z"/><path class="cls-1" d="M757,883.18s2.66-11.24,8-3,1.77,4.93,1.77,4.93,0-6.58,8-4.11,18.31,6,18.31,6-3.25-6.85,9.15-6,15.06,2.74,15.06,2.74,3.25-4.66,8.56-3.84,13.29-1.64,13.29-1.64,4.43-8.78,11.52-8.78-5.91,7.13-5.91,7.13,4.43,5.21-6.2,5.21-13,2.19-13,2.19,9.74,3.84-1.48,5.49c-19.66,2.88-22.73-2.2-22.73-2.2s-2.37,5.49-13,3.84A79.94,79.94,0,0,0,771.21,890S736.66,884.83,757,883.18Z"/><path class="cls-1" d="M741.7,852.75c-.85,1.7-2,4.8,5.17,2.17,3.38-1.24,4.7-7,4.7-7s-3.89.38,2.53-2.67,3.73-6.49,3.73-6.49,3,2.29,8.45.38a13.81,13.81,0,0,0,7.45-5.73s-1,4.2,5.41,1.15a54,54,0,0,0,10.15-6.11,73,73,0,0,1,9.47,1.14c3,.77,12.18-4.2,12.18-4.2s-4.4,2.29,3.39,4.58,9.81-3,9.81-3-2.37,4.2,3.72,6.49,7.78-2.29,7.78-2.29,3.38,7.64,11.16,8.4,10,3.6,10,3.6-8.31,1-3.24,4,1.79,9.58,1.79,9.58l1.45,6.19,3.85-2.47s3.06-16.36,1.37-19.41-5.75-6.88-7.78-8.78-5.42-.39-4.74,1.52c0,0-6.61-8.38-11-8a16.88,16.88,0,0,0-7.27,2.28s-1.69-5.73-6.43-5.73-4.39,2.67-4.39,2.67-5.76-6.11-9.82-5.34a8.59,8.59,0,0,0-5.75,3.81s-8.79-1.14-12.52-1.14-8.45,5.73-8.45,5.73-.34-2.68-6.43-2.68-7.11,7.26-7.11,7.26-6.42.38-12.85,1.14-4.74,8.4-4.74,8.4-6.51-2.34-8.12.77.08,6.82.08,6.82A8.57,8.57,0,0,0,741.7,852.75Z"/><path class="cls-1" d="M738.08,843.46c-2.64-.62-9.87.62-3.13,3.72S740.73,844.08,738.08,843.46Z"/><path class="cls-1" d="M750.61,858c-3.62-1.55-7.83,4.93.24,5.26C758.31,863.58,754.22,859.56,750.61,858Z"/></g><g id="M_legs" data-name="M legs"><path class="cls-8" d="M316.85,530.26s-1.69,22,13.5,30.39,11,12.66,22.79,15.19,25.32-4.22,24.48-11.82S365,548.83,365,548.83s5.06-15.19-3.38-24.47S326.13,506.63,316.85,530.26Z"/><path class="cls-8" d="M228,578.48s-13.51,24.48-7.6,35.45S250.52,625.15,264,601.2c7.37-13.1,14.35-22.79,7.6-34.6S228,578.48,228,578.48Z"/><path class="cls-5" d="M262.32,448.5S330,431.82,373.55,433.67s74.15.93,94.54,19.47,23.18,36.15,5.57,54.69S380.93,546.08,367,547s-22.25.92-29.66-.93S327.2,520.8,327.2,520.8,330.91,519,294.76,505,227.1,473.53,262.32,448.5Z"/><path class="cls-6" d="M262.32,448.5S330,431.82,373.55,433.67s74.15.93,94.54,19.47c0,0-59.43-18.54-97,12.57-19.7,16.3-35,28.52-35,28.52L327.2,520.8S330.91,519,294.76,505,227.1,473.53,262.32,448.5Z"/><path class="cls-5" d="M205.24,437.54s-22.79,29.54-27.85,59.08,1.69,37.13,1.69,37.13-5.91,38,47.26,35.45,50.64-24.48,54-38.83,16-48.95-4.22-75.11S238.16,406.31,205.24,437.54Z"/><path class="cls-6" d="M205.24,437.54s-20.54,23.35-25.6,52.89-.56,43.32-.56,43.32-5.91,38,47.26,35.45,50.64-24.48,54-38.83,16-48.95-4.22-75.11S238.16,406.31,205.24,437.54Z"/><path class="cls-5" d="M193.43,555.69c-.36,9,0,18.57,24.47,27s31.23-2.53,42.2-4.22,22.79-27,26.16-32.91,8.44-22.79,4.22-38-32.07-27-54-16.88S194.27,534.31,193.43,555.69Z"/><path class="cls-6" d="M199.9,511.24s-19,10.82,5.25,36.14c0,0-9.76-25.45,22.32-51.33C227.47,496.05,212.84,482.55,199.9,511.24Z"/><path class="cls-6" d="M264.6,565.82c-1.11,4.72,7.23-27.62,6.19-45,0,0,7.88,8.44,4.5,23.07l5.06-6.19S279.79,563.57,264.6,565.82Z"/><path class="cls-6" d="M424.22,463.12s-42.11-10.38-60.59-1.95-5.52,1.95-5.52,1.95l42.78,7.78s-27.23,2.59-35,14.25S424.22,463.12,424.22,463.12Z"/></g><g id="M_left_arm" data-name="M left arm"><path class="cls-9" d="M366.49,295.63s12.36-7.73,25.5,3.86,16.22,26.53,17.77,37.35S429.08,369,434.48,383s14.69,37.86,2.32,47.13-36.31,10.05-47.9-23.95-16.23-36.32-23.19-49.46S334.81,303.36,366.49,295.63Z"/><path class="cls-10" d="M366.49,295.63s12.36-7.73,25.5,3.86-3.35,36.32-3.35,36.32l15.45,34.51s-2.46,33.33,0,39.67c5.41,13.91,45.08,10.82,32.71,20.09s-36.31,10.05-47.9-23.95-16.23-36.32-23.19-49.46S334.81,303.36,366.49,295.63Z"/></g><g id="M_left_arm-2" data-name="M left arm"><path class="cls-9" d="M409.76,402.26c-9.79.52-4.83,5.65-27.3,23.18-10.16,7.93-23.86,20.44-26.46,25.83-4,8.28,6.08,16.2,10.45,18.7,7.21,4.12,11.89-3.83,38.16-17.74s44-25.76,35.54-39.66S419.55,401.75,409.76,402.26Z"/><path class="cls-10" d="M409.76,402.26c-9.79.52-4.83,5.65-27.3,23.18-10.16,7.93-26.06,22.72-28.67,28.11C352,457.27,355,464,355,464l53.75-54.56,17.51-7.21Z"/></g><g id="M_left_hand" data-name="M left hand"><path class="cls-10" d="M351.64,456.9c-3.87-4.43-17.43,11.83-19.32,18.14-1.32,4.4-1.82,13-1.7,14.94.26,4,4.38,5.35,9.31-3.64,1-1.87,1.56-4.45,2.33-7.32C344.37,471.14,354.76,460.48,351.64,456.9Z"/><path class="cls-9" d="M350,456.47s-6.83,5.94-12.42,18.1c-1.08,2.34-4.21,11.65-4.36,17.66a81,81,0,0,0,1.64,16c.73,4.3,3.66,3.85,5.78,2.35.89-.63-.52-13.71-.52-13.71l3.14-7.61a42.28,42.28,0,0,0,0,10.95c.9,7.42,2.51,19.2,5,19.93,1.69.22,4.44.17,4.49-3s-1-11.63-1-11.63.67,8.55,2.81,12.34c.73,1.31,4.45,2.5,6.75,1.34s-.29-6.12-.58-10c-.29-3.67-.74-5.76-.73-6.63,0-1.62,4.53,9.18,4.53,9.18s3.28,4.12,6.57,3.06.1-8.57-.69-12.66-.44-17.95-.44-17.95a67.43,67.43,0,0,1,7-11c4.42-5.45,1.43-14,1.43-14C376.07,451.69,368.28,446.25,350,456.47Z"/><path class="cls-10" d="M349.86,454.74s-14.86,13.1-15.08,23.53c0,2.58-2.47,8.9-2.62,14.91s1.94,14.08,2.72,18.72c.72,4.3,4.39,3.87,6.52,2.37.89-.62-1.06-15-1.06-15l2.88-10s-1.3,11.3-1,14.2c.79,3.43,3.57,15.95,6.09,16.68,1.69.22,4.44.17,4.49-3s-1-11.63-1-11.63.67,8.55,2.81,12.34c.73,1.31,4.45,2.5,6.75,1.34s-.29-6.12-.58-10c-.29-3.67-.74-5.76-.73-6.63,0-1.62,3.81,9.6,3.81,9.6s4,3.7,7.29,2.64-8.29-14.55-8.29-14.55l-7.16-27.84L362,460.33s7.56-9,7-10.32C367.12,445.82,364.87,439.94,349.86,454.74Z"/></g><g id="M_torso" data-name="M torso"><path class="cls-11" d="M307.76,274.38s-22.73,2.07-52.87,16S215,313.05,216.12,318.85s7,74.91.08,91.14.38,35,.38,35,66.07,17.9,88.09,21.38,51.39-26.08,51.39-26.08.38-2.13-2.52-2.9a5.84,5.84,0,0,0-3.67.39s1.81-.58,3.87-3.67-.13-13.85-.13-13.85,13.26-30,19.06-42.75,12.37-52.76,10.79-44.85,7.77-28.68,2-36.79S326.31,276.7,307.76,274.38Z"/><path class="cls-12" d="M278.79,397.24l-7,34.77-17.77-10.82,10,22s19.61,13.91,36.71,16.61,41.94-13.62,41.94-13.62-11.42,1.64-17.22,2.8,14.24-7.26,15.84-9.66-.52-8.69-.52-8.69,10.3-23.29,14.8-33.19,10.06-26.89,10.06-26.89,9.14-36.58,4.64-42.88S278.79,397.24,278.79,397.24Z"/><path class="cls-10" d="M296.17,274.38s-7.26,2.3-7.26,25.48,28,28.63,38.77,29.27,20.75-8.34,24.13-16.5C365.71,279,344.85,273.22,296.17,274.38Z"/><path class="cls-13" d="M366.85,384.91S322.68,404,258.73,389.38l2.94-17.58s35.69,17.47,111.35-2.3Z"/><path class="cls-14" d="M359.92,387.43c-15.5,4.73-42,10-76.93,6.08l16.8-14.7c16.48.6,38.43-.92,66.07-7.52Z"/><path class="cls-13" d="M374.38,361.87s-54.15,17.72-110.72,1.48l3.41-18.9s52.47,13.42,111.25-.55Z"/><path class="cls-14" d="M367.41,363.81a222.61,222.61,0,0,1-57.33,6.34l25.31-20.23a242.47,242.47,0,0,0,35.22-4.33Z"/></g><g id="M_right_arm" data-name="M right arm"><path class="cls-10" d="M257.79,317.78c13.65,27.69,1.55,69.09-21.63,77.27s-25-39.1-21.9-64.54S244.14,290.09,257.79,317.78Z"/><path class="cls-9" d="M256,314.17s-11.74-17.85-29.62-7.21c-20.35,12.11-23.7,32.71-29.11,46.62s-24.09,36.58-28.59,57.18C164.49,430,155.9,440,178,449.4c20.77,8.85,44.81-23.18,47.13-31.68A85.27,85.27,0,0,1,246,379.85C259.85,365.17,266,328.86,256,314.17Z"/><path class="cls-10" d="M256,314.17s-11.74-17.85-29.62-7.21c-20.35,12.11-23.7,32.71-29.11,46.62s-24.09,36.58-28.59,57.18C164.49,430,155.9,440,178,449.4c20.77,8.85,25.5-26.27,27.81-34.77.87-3.18-6.95-30.14-4.63-39.41s22-40.57,22-40.57Z"/></g><g id="M_right_forearm" data-name="M right forearm"><path class="cls-9" d="M183.68,417.75c14.13-1.48,19.86-1.7,45.1,13.45s56.41,34.56,62.18,40.33-2.17,20.2-19.47,18c-31.31-3.91-59.86-19.47-73.57-23.8s-38.46-14.42-33.41-32.45S169.55,419.22,183.68,417.75Z"/><path class="cls-10" d="M181.33,414.56c2.28-1,29.07,39.47,29.07,39.47l33,29.62s-31.74-13.56-45.45-17.89-38.46-14.42-33.41-32.45S167.21,416,181.33,414.56Z"/></g><g id="M_left_hand-2" data-name="M left hand"><path class="cls-9" d="M266.51,486.67c2.11,4.44,2.9,8.32,10,16.64S285.8,518,285.8,518s-.27,3.9-.84,10.54c-.42,4.81.26,6.55,3.42,7.38s5.12-7.27,5.12-7.27-2.65,9.12,2.8,9.38c3,.14,4.49-12.5,4.49-12.5l.67,6.67s-1.08,4.83,2.71,5.12S310.92,520,310.92,520s-1.52,4.79,2,5.65,4.22-12.18,4.22-12.18L317,501.37s-4.59-14.42-7.75-20.25-26.38-14.15-33.51-15S264.4,482.23,266.51,486.67Z"/><path class="cls-10" d="M316.74,503.2A56.15,56.15,0,0,1,305,507.68a21.14,21.14,0,0,0-9,4.48L304,515l7.92-4.44"/></g><g id="M_Head" data-name="M Head"><path class="cls-15" d="M382.27,225.48c-4.74,34.82-20.19,59.39-46.11,59.39s-46.94-24.13-46.94-53.9c0-13.84,5.19-26.81,10.81-34.45,7.61-10.33,19.07-13.14,32.93-12.44C374.63,186.19,386.25,196.36,382.27,225.48Z"/><path class="cls-10" d="M303.9,239.93S298.18,229,288.29,229s-8.84,28.09,1,35.37S302.86,261.78,303.9,239.93Z"/><path class="cls-10" d="M341.37,191.7s-37.26,2.42-43.65,34.39c-7,34.77-7.73,63.36,12.36,72.63s44.82,7.73,52.54,4.64,12.37-17,16.23-44.82C383.44,225.5,383.49,194,341.37,191.7Z"/><path class="cls-9" d="M342.52,228.79s-31.72,1.59-37.16,22.62c-5.92,22.88-6.57,41.68,10.52,47.78s38.14,5.09,44.72,3.05,10.52-11.18,13.81-29.48C378.31,251,378.35,230.32,342.52,228.79Z"/><path class="cls-16" d="M320.9,212.18a102.14,102.14,0,0,0,23.56,5.41c12.37,1.16,29.75-3.87,29.75-3.87,4.64,3.48,6.7,24.47,6.7,24.47s2.58-14,2.58-24.47-1.55-21.63-36.71-25.5c-17.67-1.94-43.27-2.31-48.29,20.87a199,199,0,0,0-3.09,25.37,24.11,24.11,0,0,0,2.7,12.1,65.38,65.38,0,0,0,9.66-9.66C312,231.5,320.9,212.18,320.9,212.18Z"/><path class="cls-15" d="M303.42,211.51c6.85-12.14,32.47-18,44.83-16.88s25.85,5.27,35.24,19.09c0-10.43-1.55-21.63-36.71-25.5-17.67-1.94-43.27-2.31-48.29,20.87a199,199,0,0,0-3.09,25.37,24.11,24.11,0,0,0,2.7,12.1S296.56,223.64,303.42,211.51Z"/><path class="cls-17" d="M334.33,241.44a67.1,67.1,0,0,0-9.7.78"/><ellipse class="cls-16" cx="328.37" cy="254.42" rx="6.41" ry="3.95" transform="translate(39.73 553.15) rotate(-83.75)"/><path class="cls-17" d="M358.25,242.33a67.8,67.8,0,0,1,9.59,1.65"/><ellipse class="cls-16" cx="362.8" cy="255.98" rx="6.41" ry="3.95" transform="translate(89.09 605.59) rotate(-87.15)"/></g><g id="K_legs" data-name="K legs"><path class="cls-8" d="M780.25,638.49s1.59,16.36,4,21.1c1,2,1.3,7.82,2.64,10.82,2,4.57,5,11,10,10.81l6.59-.36c5.67-.25,8.46-2.5,9.5-8.08,1.09-5.9,2.45-15.51,4.48-22.42,4-13.45-8.7-36.39-17.41-34S782.63,617.13,780.25,638.49Z"/><path class="cls-8" d="M707.46,563.33s7.12,2.37,7.91,7.12-4,15.82-4.74,21.36-23,31.65-32.44,34-15-1.59-22.16-8.71,0-15,5.54-20.57S682.14,569.66,707.46,563.33Z"/><path class="cls-16" d="M688.47,490.54S610.14,500,586.41,511.11s-30.86,38-33.23,50.64,18.19,21.36,23.73,28.48S600.65,595,600.65,595s58.55-7.91,70.42-8.71c10.38-.69,26.9,5.54,34.81-7.12,1.19-1.68,9.49-22.15,9.49-22.15s15.43,2.37,26.9-3.16S703.51,489.75,688.47,490.54Z"/><path class="cls-15" d="M690.05,490.54S611.73,500,588,511.11s-32.84,50.64-32.84,50.64l58.16-32,60.53,3.56,26.5,21.37c19,4,42.83,2.19,43.12,1.58C755.33,530.89,705.09,489.75,690.05,490.54Z"/><path class="cls-16" d="M733.57,551.46l10.29,8.7s14.84,61.66,20.57,71.21c9.49,15.83,30.06,19.78,41.14,14.25S819,633,819,633s11.87-12.66,17.41-21.37S845.92,580,845.92,580,845.13,547.51,842,538s-14.24-41.14-30.07-36.39S727.24,524.56,733.57,551.46Z"/><path class="cls-15" d="M733.57,551.46l10.29,8.7L804.78,576l23.74,28.22L819,633s11.87-12.66,17.41-21.37S845.92,580,845.92,580,845.13,547.51,842,538s-14.24-41.14-30.07-36.39S727.24,524.56,733.57,551.46Z"/><path class="cls-15" d="M711.42,556.21s-53.8-1.58-74.38,7.12a35.06,35.06,0,0,0-16.61,14.24S643.37,557,711.42,556.21Z"/><path class="cls-15" d="M624.38,574.41a21.56,21.56,0,0,1,3.17-22.16A37,37,0,0,1,624.38,574.41Z"/><path class="cls-15" d="M624.38,574.41s-9.49-4.75-13.45-8.71C610.93,565.7,612.52,579.15,624.38,574.41Z"/><path class="cls-16" d="M815.86,635.86S831,619,832.74,614c7.64-22.55,6.06-34.42,6.06-34.42s-2.37,9-7.12,23.6c-.66,2-1.84-9.36-1.84-9.36S823.77,622.14,815.86,635.86Z"/></g><g id="K_right_arm" data-name="K right arm"><path class="cls-4" d="M663.15,379.77s-16.35,1.05-21.62,7.91-17.94,24.79-24.27,34.81S586.14,456.78,585.09,470s15.29,35.34,34.28,19c9.34-8,17.48-20.8,28.49-32.71,11.37-12.3,25-20.64,28.48-32.17C683.2,401.4,673.18,379.77,663.15,379.77Z"/><path class="cls-18" d="M665.13,376.6s-16.35,1.06-21.62,7.92-17.94,24.79-24.27,34.81-31.12,34.29-32.17,47.47,15.29,35.34,34.28,19c9.34-8,17.48-20.8,28.49-32.7,11.37-12.31,25-20.65,28.48-32.18C685.18,398.23,675.15,376.6,665.13,376.6Z"/><path class="cls-4" d="M665.13,376.6s-16.35,1.06-21.62,7.92-17.94,24.79-24.27,34.81-31.12,34.29-32.17,47.47-6.2,14,12.79-2.37c3.95,3.16,19.78-.79,19.78-.79,4.74-6.33,19.85-50.19,23.34-61.72C649.84,379.24,675.15,376.6,665.13,376.6Z"/></g><g id="K_torso" data-name="K torso"><path class="cls-19" d="M786.7,372.61c-7.63-11.89-49.54-14.36-78.09-9.32-12.07,2.13-22.7,3.41-31.54,5.33-12.05,2.61-27.67,6.91-27.67,6.91a11.9,11.9,0,0,0-1.47,7.71c4.12,20.2,17.6,52.71,17.6,52.71l14.24,43.51s-5.06,39.18-2,43.87c1.84,2.88,14.79,11.31,32.91,15.47,20.13,4.62,108.61-18.24,108.61-18.24s1.5-45.71-.51-57.73C816.05,446.78,800.9,394.74,786.7,372.61Z"/><path class="cls-5" d="M750.19,521.4c-10.79,7.89-70.42,3.16-70.42,3.16,1.85,2.88,15,30.07,110.77,26.9,13-.43,47.47-29.27,47.47-29.27L815.86,400.34s1.58-16.61-30.07-34c-12.47-6.86-48.63-8.07-77.18-3-12.07,2.13-22.7,3.41-31.54,5.33-12.05,2.61-27.67,6.91-27.67,6.91a16.86,16.86,0,0,0-1.28,11.36c2.2,8.31-.75,23.41,21.36,52.22l16-13.54,54.72,9.73s10.73,13.5,14.72,14.89l-3.11-8.82L778.67,485l-30.86,26.11-13.45,4Z"/><path class="cls-18" d="M738.76,360.77a2.81,2.81,0,0,1,2.77,3c-.64,9.48-4.74,39.52-31.42,42.66-26.4,3.1-30.67-38.27-30.67-38.27a371,371,0,0,1,37.07-6.21A171,171,0,0,1,738.76,360.77Z"/><path class="cls-4" d="M710.11,406.4c-26.4,3.1-30.65-38.28-30.65-38.28l5.85-1.24Z"/><path class="cls-4" d="M809.28,403.28c3.62,19.21,6.8,36.83-12.77,41.9-10.62,2.75-22.38-5.82-27.32-23.85-5.33-19.43.42-43.85,12.12-49.47C793.21,366.14,805.38,382.54,809.28,403.28Z"/><path class="cls-20" d="M686.1,367.58a18.37,18.37,0,0,0-1.22,8.16c1.67,17.81,8.42,61.93,28.18,68.5,7.35,2.44,24.05-35.23,24.69-63.39.14-6.18.78-16.64-6-20.13"/><ellipse class="cls-12" cx="715.15" cy="449.78" rx="4.18" ry="8.21" transform="translate(-22.65 38.2) rotate(-3.01)"/><path class="cls-18" d="M688.62,343.22s10.22,33.61,11.35,36.95c3.82,11.22,35.47,9.05,34.95-1.84-.18-3.84-5.83-45-5.83-45Z"/></g><g id="K_right_forearm" data-name="K right forearm"><polygon class="cls-10" points="524.47 574.54 450.94 685.44 457.36 689.36 540.03 570.06 524.47 574.54"/><path class="cls-4" d="M543.59,556.92s-13.25-2-6-19.17c5.44-12.82,11.7-22.61,24.24-39.79s19.6-33.51,33.25-35.91,35.7,11.8,14.55,39.83a240.4,240.4,0,0,1-55.32,52.58C545.07,560.57,543.59,556.92,543.59,556.92Z"/><path class="cls-18" d="M568.38,532.48l23.38-29.3,14.49-36c8.31-2.61,24.56,6.69,3.41,34.72a240.4,240.4,0,0,1-55.32,52.58C545.07,560.57,568.38,532.48,568.38,532.48Z"/><path class="cls-4" d="M545.26,538.8c9.5,2.38,6.63,12.22,7.71,19.93s-3.73,14.28-9.08,23.88-6.61,10.75-14.36,16.75c-5.76,4.45-10.57-.49-6.23-7,1-1.53,5.64-5.66,6.61-7.32,3.18-5.38,3.27-7.34,3.27-7.34l-9.94,5.7s-5.82,2.78-9.35,15.06-13.77,14.22-14.24,10.84,5.1-14.72,5.1-14.72-2.83-7.86-4.07-11.22c-.91-2.46-.55-10,.52-12.48,2.53-5.76,13.36-17.11,23.39-23.92S535.77,536.43,545.26,538.8Z"/></g><g id="K_left_arm" data-name="K left arm"><path class="cls-4" d="M767,394.87c4.3-20,17.55-29,29.44-20.17s19.58,18.31,25,47.86,16.64,45,18.26,65.72-6,30.41-25.27,23.88S787,487.28,783.11,457.72,761.51,420.26,767,394.87Z"/><path class="cls-18" d="M767,394.87c4.3-20,17.55-29,29.44-20.17s19.58,18.31,25,47.86,16.64,45,18.26,65.72-6,30.41-25.27,23.88c-7.75-2.62,2.67-28.41.7-46.94-2.94-27.58-15.83-50.64-15.83-50.64Z"/></g><g id="K_left_forearm" data-name="K left forearm"><path class="cls-18" d="M834.32,486c-7.55-5-19.32-5.62-39.58,5.73s-43.8,45.3-51.89,55.18-16.48,27.35,7.34,22.77,81.47-47.94,85.88-52.83S841.87,490.94,834.32,486Z"/><path class="cls-4" d="M812.69,493.7c1.58-7.91,2.31-13.34-18-2s-43.8,45.3-51.89,55.18,24.74-3.08,24.74-3.08l20.57-16.88S811.11,501.62,812.69,493.7Z"/><path class="cls-18" d="M740.69,551.73c-3.67.28-22.42,21.62-23.21,25.84s-1.58,21.1-1.58,21.1,4.89,22.6,10.31,21.38c1.33-.3,2.32-4.1.64-7.67s-.14-10.81-.14-10.81l1.59,9.23s5.41,10.94,6.19,11.71c1.55,1.56,4.39,2.64,5.2,1.56s-2.43-10.63-2.43-10.63,5.24,9.9,7.83,9.69,2.57-1.62,2.57-3-1.35-10.57-1.35-10.57,3.33,9.52,5.28,8.53,3.93-3.25,1.76-7.71-4.14-17.47-4.14-17.47,8.5-8.12,10.08-28.16C759.79,558.45,744.37,551.44,740.69,551.73Z"/></g><g id="K_head" data-name="K head"><path class="cls-15" d="M742.73,321.35c-6.4,46.88-48.56,12.84-48.56,12.84-8.58-3.86-49.25,5.56-49.91-22.88-2.15-13.44,4.7-41.64,42.76-45.43C731.74,261.43,746.64,292.69,742.73,321.35Z"/><path class="cls-13" d="M701.66,274.27c-35.62,2.2-22.12,9.48-19.52,22.16,3.05,14.84,8.57,24.9,15.39,28,0,0,24.83,9.18,36.55-3.63a29.85,29.85,0,0,0,.62-12.55,7,7,0,0,1,3.84,4.56c.07-.21.15-.4.21-.62C745.1,290.16,734.27,272.26,701.66,274.27Z"/><path class="cls-18" d="M675.29,294.32s-22.58,3-25.66,7.3,2.51,53.64,11.49,68.61c8.85,14.76,51.86,8.68,62.17-.48,4.74-4.22,6.93-19.11,7.13-34.06.2-16-5.31-14.39-10.28-18.33C694.12,296.77,675.29,294.32,675.29,294.32Z"/><path class="cls-4" d="M727,339.67c1.43,9.72,1.49,23-6.84,30.08-7.87,6.68-23.83,7.47-33,7.1-18.64-.76-28.66-13.37-31.84-33.5-2.1-13.27,18-26.62,37.68-30.08C712.11,309.9,723.46,317.91,727,339.67Z"/><path class="cls-21" d="M696.7,339c.38,3.73-1.2,5.3-3,5.23s-3.25-1.76-3.63-5.49.81-6.69,2.66-6.62S696.33,335.27,696.7,339Z"/><path class="cls-21" d="M668,342.25c.38,3.73-1.19,5.29-3,5.22s-3.25-1.75-3.63-5.48.82-6.7,2.66-6.63S667.64,338.52,668,342.25Z"/><path class="cls-22" d="M688.52,326.34a22.19,22.19,0,0,1,9,2"/><path class="cls-22" d="M665.17,328.67a23.49,23.49,0,0,0-7.41,4.19"/><ellipse class="cls-4" cx="729.4" cy="330.39" rx="15.63" ry="8.7" transform="translate(185.02 917.61) rotate(-71.54)"/><path class="cls-15" d="M704.82,308.74s-9.83,8.15-63.28,8.95c-14.19.22,6.69-34.56,31.65-29C696.15,293.8,704.82,308.74,704.82,308.74Z"/><path class="cls-13" d="M673.29,288.35c-18.62,4.27-36.84,26.38-25.51,27.29a151.46,151.46,0,0,0,16.84-.43,90.25,90.25,0,0,0,18.48-10.08c-.15,4.6-3.76,7.5-8.42,9.33,9.58-.82,19.71-2,27.14-3.38,9.65-1.81,10.64-5.38,10.64-5.38S693.21,283.77,673.29,288.35Z"/><path class="cls-13" d="M717.76,307.14s-.6,16.32,1.65,21l4.82,6.81-.14-23.28Z"/></g></svg>