<svg xmlns="http://www.w3.org/2000/svg" viewBox="0 0 960 1080"><defs><style>.cls-1{fill:#f3e7d9;}.cls-2{fill:#856792;}.cls-3{fill:#33a86d;}.cls-4{fill:#288453;}.cls-5{fill:#665070;}.cls-6{fill:#ce9436;}.cls-7{fill:#f5894e;}.cls-8{fill:#cc6d3d;}.cls-9{fill:#273252;}.cls-10{fill:#1d2538;}.cls-11{fill:#992c29;}.cls-12{fill:#ee5d4f;}.cls-13{fill:#c94039;}.cls-14{fill:#feed7f;}.cls-15{fill:#f7bc4b;}.cls-16{fill:#48598b;}.cls-17{fill:none;stroke:#273252;stroke-linecap:round;stroke-linejoin:round;stroke-width:0.5px;}.cls-18{fill:#212b46;}.cls-19{fill:#121721;}.cls-20{fill:#a96443;}.cls-21{fill:#7a462f;}.cls-22{fill:#29abe2;}.cls-23{fill:#1689cb;}.cls-24{fill:#4b3355;}.cls-25{fill:#34283a;}</style></defs><title>30_chattingwithapps</title><g id="cloud"><path class="cls-1" d="M97,720.78c4.75-3.56,108-48.66,108-48.66S175.37,692.3,199.11,684s235-109.19,245.67-117.5-17.8-4.74-58.15,15.43L346.27,602.1s-34.41-17.8-60.52-9.5-33.23,23.74-33.23,23.74,0-14.24-19-13.05c0,0-11.87-16.62-40.35,0s-26.11,67.64-26.11,67.64-27.3,9.5-49.85,22.55S97,720.78,97,720.78Z"/><path class="cls-1" d="M256.08,490.54c4.88.26,147.16-67.65,168.52-76s36.8-17.8,110.38-51S683.33,290,701.13,281.66,826.93,212.82,853,197.4s1.19-42.73-16.61-46.29S802,167.73,802,167.73,754.54,22.93,577.7,95.33,466.14,324.38,466.14,324.38s-42.72-26.11-85.45,7.13-34.42,67.64-5.93,79.51c0,0-49.85,0-81.89,22.55s-23.74,34.42-4.75,36.79C288.12,470.36,233.53,489.35,256.08,490.54Z"/></g><g id="ground"><path class="cls-2" d="M382.91,956.4s-58.17.47-134,7.68S74.53,982.27,132.65,990.85s89.52,5.22,179.46,5.22,342,11.61,270.72-19.54c0,0,82.57-5.21,113.63-8.33s18.37-20.1,18.37-20.1,54.62-2.66,64.66-8.66S726.42,926,726.42,926s111.28-3.47,134.93-8-35.49-3.73-111.16-2.73-253,1.7-281.39,11.44c-25.89,8.88,32.43,12.75,30.57,10,0,0-111.62,7.64-121.61,11.17S382.91,956.4,382.91,956.4Z"/><path class="cls-2" d="M689.29,985c-21.26-4.29-126.2,4.36-60.92,10.16S710.56,989.33,689.29,985Z"/><path class="cls-2" d="M821.91,964.82c-28.51,1.24-72.76,8.54-39.67,12.4,38.25,4.45,97.94-1.24,84.31-7.44S850.43,963.58,821.91,964.82Z"/><path class="cls-3" d="M587.17,919.58s-13.41-9.65-1.64-22.73,18.64-1.47,12.76,10.3S587.17,919.58,587.17,919.58Z"/><path class="cls-3" d="M586.19,918.76s18.31-24.2,24.85-19.62-3.27,9.16-3.27,9.16,20.93-5.24,11.12,2S586.19,918.76,586.19,918.76Z"/><path class="cls-4" d="M547.9,915.73s-1-14.67,7.86-15.2,16.76,4.72,9.43,11.53S551.56,922,547.9,915.73Z"/><path class="cls-3" d="M551.05,913.93c7.71-1.6,11.11-22.89.13-21.27S543.34,915.54,551.05,913.93Z"/><path class="cls-5" d="M478.8,941.92c25.49.87,102.68-.8,104.44,5.15s-102.86,6.33-102.86,6.33,67.34,21.36,5.54,21.36S266.39,978.15,247,971.59,385.44,957,385.44,957,345.09,946.67,389,944.3,453.31,941.05,478.8,941.92Z"/><path class="cls-4" d="M398.35,937.57s3-19.53-14-28.8-21.44.2-14.82,8.9S398.35,937.57,398.35,937.57Z"/><path class="cls-4" d="M399.43,937.14s24.11-16.9,22.94-34.18S399,912.1,396.61,920.41,399.43,937.14,399.43,937.14Z"/><path class="cls-4" d="M362.17,936.86c-3.95-1,.09-5.93,12.36-10.21s26.18,11.45,26.18,11.45S366.13,937.85,362.17,936.86Z"/><path class="cls-3" d="M397.81,936.9s14.09-29.2,28-28.82c15.85.44-5.7,19.81-5.7,19.81s15-9.65,21.17-7.72-7.66,10.28-7.66,10.28,16,2.23,14.6,4.49S397.81,936.9,397.81,936.9Z"/><path class="cls-5" d="M499.37,935.59s51.71,7.09,48.77,7.7c-13.95,2.88-47.2,10.81,32.2,10.37,95.47-.53,44.84-11.08,44.84-11.08s98.5-1.05,62.9-11.73Z"/><path class="cls-5" d="M632.3,919.37c-35.61,0-18.2-2.7,32.83-4.35,73.58-2.37,148.22,1.45,118,1.45S667.9,919.37,632.3,919.37Z"/></g><g id="S_skirt" data-name="S skirt"><path class="cls-6" d="M627.81,452.82s-10.28,33.8,9.23,48.65S641,455.05,627.81,452.82Z"/></g><g id="S_right_leg" data-name="S right leg"><path class="cls-7" d="M558.69,497.09s14.39-25.93,18.59-36.3,14.43-28,23.61-30.83,17.2,6.54,7.66,22.41c-11.35,18.89-26.8,39.55-36.3,47.57,0,0-.42,3.22-2.39,4.38C559.82,510.23,552.45,508,558.69,497.09Z"/><path class="cls-8" d="M579.81,485.79c1.32-4,5.57-10.2,9.76-20.57s2.14-32.42,11.32-35.26,17.2,6.54,7.66,22.41c-11.35,18.89-26.8,39.55-36.3,47.57C572.25,499.94,578.49,489.75,579.81,485.79Z"/><path class="cls-9" d="M577.05,460c5.66-12.7,12.23-28.34,21.16-31.1s21.21,6.66,11.93,22.09c-2.3,3.82-9.13,14-11.67,18Z"/><path class="cls-10" d="M589.57,465s2.64-9-1.05-27.17c3.52-6,5.12-7.49,9.69-8.9,8.93-2.76,21.21,6.66,11.93,22.09-2.3,3.82-9.13,14-11.67,18Z"/><path class="cls-11" d="M572.36,501.31c.36,1,1.41,7.54.9,10.09s-.41,7.87-8.93,5.52c-7-1.92-14.6,0-18.72-.88-9.13-1.9-11.43-1.78-15.41-6.33s4.24-1.5,17.32-4.92S571.56,499.12,572.36,501.31Z"/><path class="cls-7" d="M559.25,498.77c7.29-4,13.57-.58,12.74,2.21-1.15,3.82-2.1,3-10.51,4.2a88.34,88.34,0,0,1-14.34.49C540.94,505.6,545.05,506.63,559.25,498.77Z"/><path class="cls-9" d="M647.09,446.37s-37.68-17.65-44.09-17.9-16.77,2.64-8.19,16.56c6.1,9.9,32.62,23.94,43.82,28.37s16.62-.42,17.52-10.1S647.09,446.37,647.09,446.37Z"/><path class="cls-10" d="M647.09,446.37s-37.68-17.65-44.09-17.9-16.77,2.64-8.19,16.56c6.1,9.9,32.62,23.94,43.82,28.37s16.62-.42,17.52-10.1S647.09,446.37,647.09,446.37Z"/></g><g id="red_chat_box" data-name="red chat box"><path class="cls-4" d="M751,656.54c-5.68,2.53-3.16,20.84,6.32,12S756.69,654,751,656.54Z"/><path class="cls-12" d="M496,587.33S547.11,601,557.66,601,735.15,595,735.15,595s22.16-32.44-48.26-28.49S496,587.33,496,587.33Z"/><path class="cls-12" d="M735.51,507.73c1.18-4.26,2.75-8.29,6.9-6.77C760.3,507.51,808,525.35,808,525.35s12.33,3.93,13.45,23.74c2,35.21-1.59,92-36.4,105.49-23.21,9-104.51,4.22-93.89,6.33,0,0,41.67-13.71,41.67-73C732.78,542.65,732.46,518.75,735.51,507.73Z"/><path class="cls-13" d="M738.32,500C721,498.22,599.86,510.32,565,514.27s-65.67,5.54-77.53,12.66c-14.88,8.93-15.83,31.12-11.08,43.78s18.46,19,29.54,17.94C521,587.22,709,580,712.21,580s15,15.82,5.54,35.6c-8.16,17-17.49,34.59-31.51,41.71A2,2,0,0,0,687,661c8.14.33,21.79-1.22,37.83-11.43C751,633,758.1,620.3,760.47,582.32,761.26,516.38,761,502.41,738.32,500Z"/><circle class="cls-12" cx="673.18" cy="539.2" r="15.43"/><circle class="cls-11" cx="676.6" cy="539.2" r="12.13"/><circle class="cls-12" cx="606.32" cy="549.48" r="14.77"/><circle class="cls-11" cx="609.6" cy="549.48" r="11.62"/><circle class="cls-12" cx="529.97" cy="547.9" r="13.98"/><circle class="cls-11" cx="533.08" cy="547.9" r="11"/><polygon class="cls-12" points="694.8 504.78 694.27 516.38 709.04 538.01 706.93 564.38 709.57 581.79 705.35 582.32 703.77 564.91 705.88 539.07 690.05 515.86 694.8 504.78"/><polygon class="cls-12" points="545.53 586.01 541.31 575.46 557.13 563.33 563.26 576.78 576.65 584.43 545.53 586.01"/><polygon class="cls-13" points="547.85 586.5 543.79 576.35 557.53 565.01 562.47 577.27 575.59 585.19 547.85 586.5"/><polygon class="cls-12" points="700.08 526.67 713 511.11 715.11 506.1 714.05 511.9 701.13 527.99 700.08 526.67"/><polygon class="cls-13" points="786.19 529.31 790.54 563.33 799.24 564.52 813.88 594.58 819.02 598.14 819.42 595.37 814.27 591.42 800.43 561.75 792.12 560.56 786.19 529.31"/><polygon class="cls-12" points="750.19 615.55 738.32 602.89 727.77 611.07 728.82 621.35 741.48 623.46 750.19 615.55"/><polygon class="cls-13" points="749.09 614.66 738.71 606.45 729.66 610.77 730.57 619.69 741.55 621.52 749.09 614.66"/><path class="cls-3" d="M753.35,670.14c-4,.79-3.16,17.41,6.33,15S757.31,669.35,753.35,670.14Z"/><path class="cls-3" d="M756.52,693.88c4.74-5.54,11.07,1.58,4,7.12S751.77,699.42,756.52,693.88Z"/><path class="cls-3" d="M753.4,623.21c-3.3-.92-9,2.65-4.23,5.82S756.7,624.14,753.4,623.21Z"/><path class="cls-4" d="M751.21,613.85c-4-3.14-10.92,1.2-5.08,4.69S755.16,617,751.21,613.85Z"/><path class="cls-3" d="M739.9,604.6c-3.55,6.72,6.53,6.4,8.51.86S742.27,600.12,739.9,604.6Z"/></g><g id="leaves"><path class="cls-4" d="M792.12,616s-4.75-9.9-10.68-3.17,2.37,9.89,2.37,9.89S793.31,625,792.12,616Z"/><path class="cls-4" d="M788.56,623.46c-2.77.2-8.31,12.66,1.58,11.47S791.33,623.26,788.56,623.46Z"/><path class="cls-4" d="M798.45,638.89s-7.52-1.19-8.7,7.12,9.92,7.78,11.47,4C805,640.78,798.71,638.36,798.45,638.89Z"/><path class="cls-4" d="M783,651.15c5.14-1.18,6.33,10.29-.39,8.71S777.88,652.34,783,651.15Z"/><path class="cls-4" d="M781.24,659.86c-2,.26-5.73,6.33-1.25,8.17,3.59,1.48,4-2.3,4.28-3.82S783.29,659.59,781.24,659.86Z"/><path class="cls-4" d="M779.46,677.26c0,4,8.7,4.36,5.94-1.18S779.46,673.31,779.46,677.26Z"/><path class="cls-3" d="M700.6,568.08c-3.42,2-2.63,9.49,4.22,7.38S704,566.1,700.6,568.08Z"/><path class="cls-3" d="M793,631.12c-5,2.66-2.67,8.66,3,8.66S798,628.46,793,631.12Z"/><path class="cls-4" d="M788.16,541.57c-1.18-2.77-8.3,1.19-3.95,4.75S789.35,544.34,788.16,541.57Z"/><path class="cls-4" d="M707.46,557.4s-6.33-2.77-5.54,3.56S708.65,563.73,707.46,557.4Z"/><path class="cls-3" d="M536.69,554.1c-2.77-.79-4.48,4.22-1.58,5.54S539.46,554.89,536.69,554.1Z"/><path class="cls-3" d="M532.87,563.86c2.57.67,4.35-3.43.13-3.83S529.84,563.07,532.87,563.86Z"/><path class="cls-4" d="M535.24,566.89c2.57.67,4.11-4.22-.13-4.22C532.34,562.67,532.21,566.1,535.24,566.89Z"/><path class="cls-4" d="M790.13,556.5c-3.85-.77-1.15-12.35,4.25-8.87S794,557.27,790.13,556.5Z"/><path class="cls-3" d="M802.41,567.55s-10.55,2.64-3.7,7.91S806.1,570.71,802.41,567.55Z"/><path class="cls-4" d="M802.18,575.72c-5,8,5.36,11.29,5,3.16C806.86,572.75,802.18,575.72,802.18,575.72Z"/><path class="cls-3" d="M702.71,522.71s-5.27-6.85,1.59-6.85S706.93,523.77,702.71,522.71Z"/><path class="cls-3" d="M704.82,535.37s-5.27-6.85,1.59-6.85S709,536.43,704.82,535.37Z"/></g><g id="S_right_arm" data-name="S right arm"><path class="cls-8" d="M665.73,427.65c-3-3.37-33-12.28-36.2-12.28s-7.61,4-3.56,8.71,30,20.38,36.79,17S668.76,431,665.73,427.65Z"/><path class="cls-8" d="M630.32,424.87s-8.9,2.77-13.65,2-12.86-7.92-12.86-7.92-4.35-7.12-6.72-10.68c-1.45-2.17,14.83,2,14.83,2l8.9-1.38a8.33,8.33,0,0,1-5.73-5c-2-4.35.59-7.12,3.56-3.56,2.69,3.23,5.14,3.76,7.91,5S638.63,419.73,630.32,424.87Z"/></g><g id="S"><path class="cls-10" d="M635.63,479.93c-15.09,6.37-26.42,12.34-28,17.66-2.06,7.21,12.29,20.79,24.7,17.33,13.63-3.81,38.26-10.83,39.21-14.1C678.53,477.09,659.7,469.78,635.63,479.93Z"/><path class="cls-14" d="M666.52,384.71s-10.75,11.86-12.78,24.09,6.29,22.67,15,30.31c4.33,3.82,5.26,17,14.08,24.19s14.83,4.86,22.58,4c14.26-1.53,2.11-42.73-.53-52.75-2.2-8.39-15.43-23.61-21.54-26.66S673.14,381.66,666.52,384.71Z"/><path class="cls-15" d="M668.89,384.32l1.78,48.06,17,7.13,2.9,14.63s9.88,11,17.28,13.45c14.24,4.75,2-43.38-.66-53.4-2.21-8.39-15.43-23.61-21.55-26.67S675.51,381.26,668.89,384.32Z"/><path class="cls-14" d="M713.5,468.91c2,15.3.25,31.13-8.61,31.91-26.9,2.38-33.3,2.91-47.47,6.73,0,0-5.74-20.77-13.45-26.9-4.13-3.28-4.82-17-14.05-40.22,0,0,34,7.38,39.83,11.08,0,0,12.51-1.59,22.28-3.7S711.54,453.62,713.5,468.91Z"/><path class="cls-15" d="M715.37,470c-.53,15.41-2.41,30.47-11.27,31.25-26.9,2.37-32.51,2.51-46.68,6.33,0,0-5.74-20.77-13.45-26.9-4.13-3.28-8.51-28.09-8.51-28.09l25.72,14.64,34-5.15s-10.37-14.24-3-15.82,15.16,2.42,20.84,10.48C714.83,459.32,715.57,464.23,715.37,470Z"/></g><g id="S_head" data-name="S head"><path class="cls-9" d="M624.29,348.12s-9.92-1.4-8.41-7.32c2.37-9.29,16.61-5.54,16.61-5.54s-3.3-10.19,4.9-10.81c13.59-1,19.41,10.26,19.41,10.26s6.32-9,18.62-1.62,6.14,19.85,6.14,19.85,8.62,1.86,9.88,9.22c4.26,24.87-18.1,26.29-33,25.13,0,0-6.09,10-15.77,1.94S620.38,353.27,624.29,348.12Z"/><path class="cls-16" d="M623.3,347.82s-9.85-1.95-6.33-6c3.69-4.22,17.5-2.83,17.5-2.83s-5.48-10.85,2.06-11.44,18.94,11,18.94,11,6-3.68,14.63,4.55c9.53,9.09,2.58,17.39,2.58,17.39s17.77,11.36-2.41,29.16c0,0-17.6,10.09-27.09,6.92s-5.75-13-5.75-13C630.22,371.74,619.54,357,623.3,347.82Z"/><path class="cls-7" d="M636.89,376.35l21.32,21a20,20,0,0,0,9.41-11.16c2.23-5.84-.07-7.67-.07-7.67L647,363.23S635.49,367.63,636.89,376.35Z"/><path class="cls-8" d="M636.89,376.35l6.51,5.14,6-6L667.37,387c2.94-5.78.21-8.4.21-8.4L647,363.23S635.49,367.63,636.89,376.35Z"/><path class="cls-7" d="M630.08,344.29s-9.68,3.75-9.16,15.92c.37,8.57,4.55,21.15,11.56,25.37s17.48,2.12,24.74-4.82c7.49-7.17,7.74-11,1.17-26.16C652.21,340.34,635.7,340.24,630.08,344.29Z"/><path class="cls-8" d="M631.65,344.17s-9.1,6.7-8.95,14.9l.37,4.2s11.31,2.42,19.55,8.71c4.48,3.42,1.29,15.33,1.29,15.33,5.3.08,11.94-5.21,11.94-5.21,7.33-6,10.15-12.28,2.41-28.43C651.84,340.28,637,340.3,631.65,344.17Z"/><path class="cls-15" d="M622.9,351.05s14.57-13.09,36.31,9.63c0,0,1.75-12.88-12.16-17.94C630.52,336.72,622.9,351.05,622.9,351.05Z"/><ellipse class="cls-8" cx="661.18" cy="359" rx="5.97" ry="6.8" transform="translate(-89.36 306.75) rotate(-24.52)"/><ellipse class="cls-9" cx="629.3" cy="364.05" rx="1.49" ry="2.79" transform="translate(-97.39 342.17) rotate(-28.32)"/><path class="cls-17" d="M626.38,357.29a3.19,3.19,0,0,1,3.25.19"/><path class="cls-16" d="M658.13,367.06s-9.18,8.05-2.66,16.12c8.26,10.21,25-2.66,19-13.19S658.13,367.06,658.13,367.06Z"/><path class="cls-13" d="M643.89,349.27c-.49,1.38,5,5.51,6.82,2.51,1.66-2.82,3.08-6.24.83-6.62S644.37,347.89,643.89,349.27Z"/><path class="cls-15" d="M645.42,351s3.64,2.14,4.5,1.3-1.31-1.22-3.63-2.69S643.92,350,645.42,351Z"/><path class="cls-13" d="M653.65,339.81c1.31-.65,6.09,4.33,3.33,6.45-2.59,2-5.81,3.84-6.47,1.65S652.34,340.46,653.65,339.81Z"/><path class="cls-13" d="M654.11,344.7s.34,8-1.67,13.75a28.08,28.08,0,0,1-3.54,7l-.45-1.65-2.37.51s4.76-6.18,6.34-19.08Z"/><path class="cls-13" d="M654.21,347.68s2,7.35,1.17,13.18a26.49,26.49,0,0,1-2.15,7.38l-.81-1.43-2.32,1s3.57-6.87,2.51-19.23Z"/></g><g id="S_left_leg" data-name="S left leg"><polyline class="cls-7" points="629.65 542.82 629.48 544.88 624.01 605.21 610.71 603.53 605.33 538.43"/><path class="cls-8" d="M629.65,542.82l-.17,2.06L624,605.21l-13.3-1.68-1.52-17.42s14.21-1.89,12.67-43.93"/><path class="cls-18" d="M604.17,506.94l1.47,33.72,24,2.16c4.91-24.67,5.24-31.39,1.76-38C624.93,492.52,605.33,490.89,604.17,506.94Z"/><path class="cls-10" d="M604.17,506.94s19.05,23.44,17.71,35.13l7.77.75c4.91-24.67,5.24-31.39,1.76-38C624.93,492.52,603.81,486.19,604.17,506.94Z"/></g><g id="S_left_foot" data-name="S left foot"><path class="cls-11" d="M625.34,601.15c.63.89,3.51,7.33,3.7,10.08s1.74,8.16-7.62,8.1c-7.68-.05-11.16,4.17-15.62,4.43-9.86.56-16,1.14-21.29-2.41s3.93-2.7,16.37-9.8S623.91,599.13,625.34,601.15Z"/><path class="cls-8" d="M611.22,602.16c6.35-6.14,12.23-4.57,13.17-.29.54,2.47-7.13,6.88-9,8.15-4.9,3.36-10.42,7.19-16.81,5.66S598.86,614.11,611.22,602.16Z"/></g><g id="S_left_arm" data-name="S left arm"><path class="cls-7" d="M654.87,417.2s-5.72,19.74-6.73,26.27,12.74,14.84,16.63,7.18c4.61-9.07,10.26-35.33,10.26-35.33Z"/><path class="cls-8" d="M654.87,417.2l12.65,10.53s-6.64,30.58-2.75,22.92c4.61-9.07,10.26-35.33,10.26-35.33Z"/><path class="cls-12" d="M658.27,393.89l-4.67,25.17L674,424.15l6.62-29.41S668.24,377.84,658.27,393.89Z"/><path class="cls-13" d="M658.27,393.88s6.47,2.77,8.58,4.35-1.06,15.3-1.06,15.3l9.18,6.23s5.74-18.42,6.13-24.07S668.13,378,658.27,393.88Z"/><path class="cls-12" d="M659.08,411c3.61-.44,9.09,1.47,11.65,2.49a9.38,9.38,0,0,1,3.06,1.6,43.09,43.09,0,0,0-10.71,0C657.91,415.78,655.48,411.38,659.08,411Z"/><path class="cls-7" d="M663.28,452.34s5-6.16-5.42-11.6-31.55-14.27-39.23-16.5-13.82-3.94-15.93,0-1.12,6.95,4.41,9.33,34.67,21.47,44,22.84S663.28,452.34,663.28,452.34Z"/></g><g id="S_left_hand" data-name="S left hand"><path class="cls-19" d="M612.29,425.06l-31.64-22.7a2,2,0,0,1-.47-2.75h0a2,2,0,0,1,1.66-.85l8.7.13a2,2,0,0,1,1.12.37l22.94,16.21a2,2,0,0,1,.84,1.62v6.35A2,2,0,0,1,612.29,425.06Z"/><polygon class="cls-1" points="613.75 420.21 583.38 399.98 591.5 399.78 614.24 415.64 613.75 420.21"/><path class="cls-7" d="M612.71,431.22s4.72-5.25,2.84-9.18-5.25-11.2-4.5-14.87-3.11-3.63-4.41-.94a8.44,8.44,0,0,0,.27,5.77c1,2.12-3.91,4.15-3.91,4.15l-8.81-4.45s-4.79-3.85-5.41-4.09c-1.7-.64-5.08.06-3.16,2a41.87,41.87,0,0,1,2.93,3.3s-1.74,7.58.08,8.92a13.64,13.64,0,0,1,3.15,3.74l2.94,4.42S601.86,434.47,612.71,431.22Z"/></g><g id="M_left_arm" data-name="M left arm"><path class="cls-20" d="M394.74,643a53,53,0,0,1-6.14-11.47c-5.14-13.8-10.67-32.74-3.51-33.17,10.79-.65,20.73,7.7,23.8,16.3s4.66,15.67,10.55,25.35,21.7,34.72,9.19,39.13S404.75,668.42,394.74,643Z"/><path class="cls-21" d="M405.53,631.18c-2.73-4.25-13.47-14.82-13.47-14.82s-13.23-17.58-7-18c10.79-.65,20.73,7.7,23.8,16.3s4.66,15.67,10.55,25.35,21.7,34.72,9.19,39.13c-7.28,2.56-30.25-18.17-34.29-32.18-.38-1.31,14.19-.31,13.85-1.58C405.85,636.88,406.52,632.73,405.53,631.18Z"/></g><g id="M"><path class="cls-19" d="M340.72,720.36s-10.55.6-22.28,2.33c-9.93,1.48-21.24,3.1-20.51,14.26s9.29,12.22,20.42,11.54,27.08-6.21,30.89-7.39S360,721.48,340.72,720.36Z"/><path class="cls-15" d="M373.18,679.9c10.28-.79,43.64,2.64,73.71,1.85S457.44,736.6,406,733.44s-49.85-7.12-53.8-24.53S362.89,680.69,373.18,679.9Z"/><path class="cls-15" d="M326.34,690.24S278,686.48,268.6,715c-6.27,18.93,34.79,18.42,74.64,23.21s46.81-29.49,21.64-41.13S326.34,690.24,326.34,690.24Z"/><path class="cls-22" d="M338.76,591.92c-.69.19-23.74,4.58-31.25,12.08-6,6-5.67,85.73-5.67,85.73s13.85,2.73,28.21,5a202.08,202.08,0,0,0,40,2.08s17.21-14.17,18.59-16.25-4.94-11.46-4.94-11.46-1.39.2,4.15-28.14a114.31,114.31,0,0,0,0-43.21S378.32,591.92,338.76,591.92Z"/><path class="cls-23" d="M338.76,591.92c-.69.19-23.74,2.68-31.25,10.18-6,6-5.67,87.63-5.67,87.63s13.85,2.73,28.21,5a202.08,202.08,0,0,0,40,2.08s17.21-14.17,18.59-16.25-4.94-11.46-4.94-11.46-37.4,22.41-56.51,12.29c-10-5.3-4.94-41.4,3.5-52.79S382,619.15,382,619.15c3.17-1.95,5.8-21.4,5.8-21.4S378.32,591.92,338.76,591.92Z"/><path class="cls-21" d="M370.31,596.58s-2.21,15-13,15.69c-20.94,1-21.41-9.07-19.08-17.4s24.2-3.68,24.2-3.68Z"/><path class="cls-14" d="M367,713.76s66.63-40.52,82-43.22c8.53-1.51,23.75,7.71,24.62,12.93s-1.15,19.35-9.3,24c-12.32,7-84.35,29.49-93.17,32.06S367,713.76,367,713.76Z"/><path class="cls-15" d="M367,713.76s66.63-40.52,82-43.22l-19.81,24-29.89,9.08s-22.54,34.29-28.15,35.93C362.32,742.06,367,713.76,367,713.76Z"/><path class="cls-10" d="M405.8,711.21s13.84-1,26.88-.72c11,.24,21.35.72,22.07,12.23s-6.24,13.44-18.47,14.16-32.64-2.64-37-3.36S384.93,714.81,405.8,711.21Z"/><path class="cls-19" d="M405.8,711.21,425.24,729l29.51-6.24c.72,11.52-6.24,13.44-18.47,14.16s-32.64-2.64-37-3.36S384.93,714.81,405.8,711.21Z"/><path class="cls-14" d="M409.18,708s-8.71-5.54-11.08-4.75-7.12,4-7.12,4-55.39-9.5-64.09-12.66-49.45-15-60.53-2.38-8,31.39,9.37,35.35S339,737,369.09,737c10.81,0,23.65,1.91,27.16,2.11,6.26.36,6.48,1,10-1.06C411.81,734.89,409.18,708,409.18,708Z"/><path class="cls-15" d="M409.18,708s-8.71-5.54-11.08-4.75-7.12,4-7.12,4-55.39-9.5-64.09-12.66-49.45-15-60.53-2.38-8,31.39,9.37,35.35l37.45-23.21,31.64,3.16,43.78,19Z"/><path class="cls-22" d="M355,617.34c-4.88-2-19.58-3.12-26.24,14.59,0,0,3.1-5.42,11.21-9.38A64,64,0,0,1,355,617.34Z"/><path class="cls-22" d="M383.61,669.08S373,688.34,341.66,687.23C341.66,687.23,377.28,673,383.61,669.08Z"/><path class="cls-21" d="M319.68,630.15C316,643,308.3,650.85,302.4,649c-5.62-1.78-8.39-12.07-6.22-24.12,2.43-13.41,10.15-24.81,17.32-24C321.1,601.79,323.83,615.68,319.68,630.15Z"/></g><g id="brown_chat_box" data-name="brown chat box"><path class="cls-8" d="M414,804c-2.22.25-7.79,39.3,21,77,42,55,112,47,126,49,0,0-40-31-46-83S493,795,414,804Z"/><path class="cls-21" d="M414,804c-2.22.25-7.79,39.3,21,77,42,55,112,47,126,49,0,0-40-31-46-83S493,795,414,804Z"/><path class="cls-7" d="M407,736l-104,2-62,4s-28.52,11-24.52,40,16.29,34,27.29,36,115.92-.89,115.92-.89L489,813s-2,28,11,54,47,63,61,63c0,0,.49-1.15-6.51-11.15S523,841,550,809c0,0,21.26-2,44-2s38-10,41-32-11-43-26-43S407,736,407,736Z"/><path class="cls-21" d="M345.78,737.2l-15.13.29S300.91,737,242,742c-4,.34-28,10-28,37s16.65,39.48,27.64,40.09C254.14,819.78,368,817,368,817s-27.61-4.14-31-42C335.59,759.29,345.78,737.2,345.78,737.2Z"/><path class="cls-20" d="M315.81,818.1l-51.43-11.87-19,2.37-4-13.45-7.12-4.74-4.75-22.95S243.26,742,242,742c-4,0-28,10-28,37s16.65,39.48,27.64,40.09C254.14,819.78,315.81,818.1,315.81,818.1Z"/><circle class="cls-20" cx="429.35" cy="774.58" r="15.43"/><circle class="cls-21" cx="425.79" cy="774.58" r="11.87"/><circle class="cls-20" cx="508.08" cy="773.2" r="14.04"/><circle class="cls-21" cx="505.21" cy="773.2" r="11.18"/><circle class="cls-20" cx="573.48" cy="761.2" r="14.04"/><circle class="cls-21" cx="571.01" cy="761.2" r="11.57"/><path class="cls-8" d="M367.77,738.45l9.49,22.68L373,765.35l-.52,17.94a58.36,58.36,0,0,0,5.27,4.74c1.58,1.06,4.48,12.66,4.48,12.66L376,788.43,369,783.88l2.18-19.58,3.16-4Z"/><polygon class="cls-8" points="621.69 736.56 612.91 759.53 603.64 761.61 591.25 770.3 593.5 782.56 586.65 800.07 591.81 782.04 588.7 768.69 602.89 759.53 611.53 758.21 620.23 735.89 621.69 736.56"/><polygon class="cls-21" points="303.98 807.27 307.2 799.91 296.18 792.97 280.35 797.39 271.23 812.37 315.02 817.7 303.98 807.27"/><polygon class="cls-8" points="455.86 833.33 443.4 867.35 458.82 884.1 472.21 867.15 467.73 847.84 455.86 833.33"/><polygon class="cls-21" points="455.04 833.45 442.68 864.24 458.28 882 467.99 865.82 463.24 847.11 455.04 833.45"/><polygon class="cls-8" points="516.78 803.07 511.24 824.43 515.99 841.04 525.48 850.54 536.56 817.31 516.78 803.07"/><polygon class="cls-7" points="519.35 802.99 512.14 824.41 517.97 840.25 524.69 846.98 538.14 816.52 519.35 802.99"/><polygon class="cls-8" points="481.18 873.48 476.96 886.14 486.45 894.58 498.06 892.47 493.83 875.07 481.18 873.48"/><polygon class="cls-21" points="480.54 874.01 476.96 884.77 485.03 891.95 494.89 890.15 491.3 875.36 480.54 874.01"/><path class="cls-8" d="M444.78,735.29s10.55,18.46,13.19,19,19,5.28,19,5.28l18.46-12.66-14.24-12.66Z"/><path class="cls-7" d="M442.67,734.09s10.44,18.27,13.05,18.79,18.79,5.22,18.79,5.22l18.27-12.53L478.69,733Z"/></g><g id="leaves-2" data-name="leaves"><path class="cls-4" d="M341.92,810.19s-10,3.16-5.8,8.44,9.5,2.63,10.55-2.64S341.92,810.19,341.92,810.19Z"/><path class="cls-4" d="M340.34,801.75c-1-.53-10,3.16-1,5.8S341.4,802.27,340.34,801.75Z"/><path class="cls-4" d="M345.09,794.36c-3.69-2.11-8.44,5.8-.53,7.39S348.78,796.47,345.09,794.36Z"/><path class="cls-4" d="M295,769.57a6.21,6.21,0,0,0-4.22,7.91c1.58,6.33,10.55,2.11,11.6-3.69S300.25,768.52,295,769.57Z"/><path class="cls-4" d="M287.59,789.09s-7.91,9,0,11.6,10.55-4.74,9-9.49S287.59,789.09,287.59,789.09Z"/><path class="cls-3" d="M299.2,800.69s-4.75,7.39,3.69,6.86,3.69-10.55.53-12.13S299.2,800.69,299.2,800.69Z"/><path class="cls-3" d="M299.2,784.87s-6.86,2.11-3.17,6.86,10.55-4.75,8.44-5.81A14.16,14.16,0,0,0,299.2,784.87Z"/><path class="cls-3" d="M303.42,813.35s7.91,2.11,7.38-3.69S302.36,808.6,303.42,813.35Z"/><path class="cls-4" d="M286,781.7c-4.75,1.59-7.38,7.92,1.06,5.28S290.76,780.12,286,781.7Z"/><path class="cls-4" d="M488.56,737.4c-4.75-2.64.53-10,6.33-7.39S493.31,740,488.56,737.4Z"/><path class="cls-4" d="M494.89,740.56c3.16,1.06,3.16,7.91-.53,6.86S491.73,739.51,494.89,740.56Z"/><path class="cls-4" d="M514.93,833.92c-2.63-4.74-7.38-.52-6.33,3.7S517.57,838.67,514.93,833.92Z"/><path class="cls-4" d="M519.15,839.73c2.64,4.22,6.33,2.11,5.81-1.59S516.52,835.51,519.15,839.73Z"/><path class="cls-4" d="M511.24,828.65c2.64,4.22,6.33,2.11,5.8-1.58S508.6,824.43,511.24,828.65Z"/><path class="cls-3" d="M509.66,881.92c5.27-4.22,9,2.64,4.75,6.86S504.38,886.14,509.66,881.92Z"/><path class="cls-4" d="M517.57,892c5.28-4.22,9,2.63,4.75,6.85S512.3,896.16,517.57,892Z"/><path class="cls-3" d="M517.16,886.15c4.25-3.4,7.22,2.13,3.82,5.53S512.91,889.55,517.16,886.15Z"/><path class="cls-3" d="M504.91,873.48c4.25-3.39,7.22,2.13,3.83,5.53S500.66,876.88,504.91,873.48Z"/><path class="cls-3" d="M483.29,862.93c4.24-3.39,7.22,2.13,3.82,5.53S479,866.33,483.29,862.93Z"/><path class="cls-3" d="M488.41,869.63c6.53-4.3,11.1,2.69,5.88,7S481.89,873.93,488.41,869.63Z"/><path class="cls-4" d="M516.9,781c6.52-4.29,11.09,2.69,5.87,7S510.37,785.31,516.9,781Z"/><path class="cls-4" d="M509.07,777.8c4.08-2.69,6.94,1.68,3.68,4.37S505,780.49,509.07,777.8Z"/><path class="cls-4" d="M427.63,780.35c5.81-3.83,9.88,2.39,5.23,6.21S421.82,784.17,427.63,780.35Z"/><path class="cls-3" d="M438.45,778s-5.27-7.38-2.64-7.91,3.7,3.69,3.7,3.69,7.91-11.08,10-5.8-3.17,6.33-3.17,6.33,6.86,3.69,3.69,4.22S443.2,777,443.2,777s1.58,6.33,0,6.33-4.75-2.11-4.75-2.11S434.23,780.12,438.45,778Z"/></g><g id="M_right_forearm" data-name="M right forearm"><path class="cls-20" d="M415.77,676.74s10.11,5.57,16,.62,1.47-12.19-9.58-20.76c-7.63-5.92-21.92-8.52-30.4-11-4.75-1.38-11.69,3.16-2.64,11.86C393.8,662,401,666.71,415.77,676.74Z"/><path class="cls-21" d="M415.77,676.74s10.11,5.57,16,.62,1.47-12.19-9.58-20.76l-11.94,5.63s-30.15-13.45-21.1-4.75C393.8,662,401,666.71,415.77,676.74Z"/></g><g id="M_right_arm" data-name="M right arm"><path class="cls-20" d="M304.68,654.61c3.57-7.16,7.56-14.35,11.73-26.58,2.87-8.44,6.77-25.28-2.62-27s-18.23,4.92-22.13,17c-4.91,15.08-7.56,19.34-12.69,29.55-10.53,21-7.78,36.94,2.68,36.59S292.24,679.52,304.68,654.61Z"/><path class="cls-21" d="M301.34,658.07s-14.14,3.7-14.72.14c-.4-2.52,10.63-18,10.63-18s2.4-17.91,5-22.81,17.66-8,16.47-11.89a6.6,6.6,0,0,0-5-4.44c-9.39-1.69-18.23,4.92-22.13,17-4.91,15.08-7.56,19.34-12.69,29.55-10.53,21-7.78,36.94,2.68,36.59S301.34,658.07,301.34,658.07Z"/><path class="cls-20" d="M340.22,660.47c-.25-4.88-3.1-9.59-14.6-6.8s-27.8,3.58-36.88,6-16.08,8.2-16.05,16.64,9.08,17.2,28.24,7.15S340.81,671.79,340.22,660.47Z"/><path class="cls-21" d="M340.22,660.47c-.25-4.88-25.12,5.82-33.91,7.14s-17.57-7.94-17.57-7.94c-9.08,2.42-16.08,8.2-16.05,16.64s9.08,17.2,28.24,7.15S340.81,671.79,340.22,660.47Z"/></g><g id="Layer_25" data-name="Layer 25"><path class="cls-20" d="M376,635.07c-.61-2.13,2-4.49,2.9-2.38s7.78,5.15,8.83,7.12,3.06,6,1.58,6.73c-1.67.88-4.08-1.32-4.08-1.32S376.74,637.84,376,635.07Z"/></g><g id="M_phone" data-name="M phone"><path class="cls-24" d="M346.09,661.65c1.81-7.88,7.36-30.2,9-37.07A3.17,3.17,0,0,1,358,622.3l17.07-.07c1.78-.13,4.39,1.66,4.28,2.49L370,661.59a3.2,3.2,0,0,1-3,2.26l-18.33.59A2.32,2.32,0,0,1,346.09,661.65Z"/><path class="cls-5" d="M348,662.21c1.75-7.73,7.27-29.48,8.84-36.21a3,3,0,0,1,2.72-2.23l17.16-.15a2.26,2.26,0,0,1,2.5,2.8l-8.55,36.25a3,3,0,0,1-2.84,2.21l-17.45.08A2.25,2.25,0,0,1,348,662.21Z"/><ellipse class="cls-25" cx="361.14" cy="628.4" rx="1.72" ry="1.36" transform="translate(-297.13 325.09) rotate(-35.38)"/><ellipse class="cls-25" cx="359.92" cy="632.62" rx="1.31" ry="1.03" transform="translate(-299.79 325.17) rotate(-35.38)"/></g><g id="M_right_hand" data-name="M right hand"><path class="cls-20" d="M324.7,662.73c-.12-.76,5.19-10.85,11.48-17,2.59-2.52,9.66-3.92,12.7-6.5s3.17,4.35,0,6.4-3.28,2.52-3.28,2.52,6.83-.56,7.59-.64,8.36-5.2,11.07-3.16c2.24,1.7-1.84,3.52-1.84,3.52s-6.25,4.2-6.85,4.67c0,0,11-4.2,11.45-2.11s-1.6,4.09-4.86,4.94a15.69,15.69,0,0,0-5,2.09s5.92-3.6,6.7-1.45-6.1,4.32-7.58,5.12c0,0,4.16-2.7,4.39-1,.38,3-10.84,7.09-10.84,7.09S326,670.47,324.7,662.73Z"/><path class="cls-21" d="M324.7,662.73c-.12-.76,10.5-4.85,10.5-4.85l12.26-.13,4.09-1.26,3.63-1.51s10.24-.42,7,.43a15.69,15.69,0,0,0-5,2.09s5.92-3.6,6.7-1.45-6.1,4.32-7.58,5.12c0,0,4.16-2.7,4.39-1,.38,3-10.84,7.09-10.84,7.09S326,670.47,324.7,662.73Z"/></g><g id="M_left_hand" data-name="M left hand"><path class="cls-20" d="M389.2,655.31c2.83-.73,6.53-5.21.05-13.38-2.37-3-5.92-.27-5.92-.27L378.6,641S366,635.05,365,636.78s5,4.3,5,4.3-7.78-3.27-7.78-.49,7.43,4.47,7.43,4.47-7.93-2.28-6.4.89c1.07,2.2,6.41,3.29,6.41,3.29s-3.37-.07-4,.86c-.52,1.73,10.43,7,13.2,7.65S387.79,655.67,389.2,655.31Z"/></g><g id="M_head" data-name="M head"><path class="cls-21" d="M336.65,571.62s-1.23-11.12-6.8-4.78,1.24,22.64,6.29,18.18S336.65,571.62,336.65,571.62Z"/><path class="cls-20" d="M360.27,548.77s-21-1.9-23.44,12.5-1.9,35.32,8.47,38.45,19.65,3.9,27.58-1.42c5.91-4,6.23-6.07,7.31-22.09C381.36,558.87,377.19,547.48,360.27,548.77Z"/><path class="cls-21" d="M360.27,548.77s-21-1.9-23.44,12.5-2.62,36.87,8.47,38.45c0,0-14.45-22.68,9.81-35.34s24,27.85,25.08,11.83C381.36,558.87,377.19,547.48,360.27,548.77Z"/><path class="cls-9" d="M337.37,576.58c1.84-.19,2.58-6.72,4.95-14.44s.73-6.82,6.72-5.85c13.57,2.69,20.84-1.14,24.27-1.14,4.22,0,3.91,4.9,7.06,15.79,0,0,2.17-24.07-9.07-27.56-11-3.43-24.41-2.2-30.66,1-6,3.11-6.52,12-6.75,19C333.81,565.9,337.37,576.58,337.37,576.58Z"/><ellipse class="cls-9" cx="371.34" cy="575.19" rx="1.67" ry="3.12" transform="translate(-15.85 10.55) rotate(-1.59)"/><path class="cls-17" d="M370.37,567a3.57,3.57,0,0,1,3.16,1.82"/><ellipse class="cls-9" cx="353.01" cy="575.4" rx="3.12" ry="1.67" transform="translate(-231.98 912.28) rotate(-88.41)"/><path class="cls-17" d="M354,567.16a3.61,3.61,0,0,0-3.17,1.83"/></g></svg>